<svg id="Capa_1" data-name="Capa 1" xmlns="http://www.w3.org/2000/svg" viewBox="0 0 30 30"><defs><style>.cls-1{fill:#fce9f3;}</style></defs><title>instagram</title><path class="cls-1" d="M22.94,5.36A1.76,1.76,0,1,0,24.7,7.12,1.76,1.76,0,0,0,22.94,5.36Z"/><path class="cls-1" d="M15.12,7.61A7.39,7.39,0,1,0,22.51,15,7.4,7.4,0,0,0,15.12,7.61Zm0,12.12A4.73,4.73,0,1,1,19.86,15,4.73,4.73,0,0,1,15.12,19.73Z"/><path class="cls-1" d="M21,30H9a9,9,0,0,1-9-9V9A9,9,0,0,1,9,0H21a9,9,0,0,1,9,9V21A9,9,0,0,1,21,30ZM9,2.82A6.2,6.2,0,0,0,2.82,9V21A6.2,6.2,0,0,0,9,27.18H21A6.2,6.2,0,0,0,27.18,21V9A6.2,6.2,0,0,0,21,2.82Z"/></svg>