<svg id="Capa_1" data-name="Capa 1" xmlns="http://www.w3.org/2000/svg" viewBox="0 0 30 30"><defs><style>.cls-1{fill:#fce9f3;}</style></defs><title>instagram</title><path class="cls-1" d="M31.26,20.14A1.76,1.76,0,1,0,33,21.9,1.76,1.76,0,0,0,31.26,20.14Z" transform="translate(-8.32 -14.79)"/><path class="cls-1" d="M23.44,22.4a7.39,7.39,0,1,0,7.39,7.39A7.4,7.4,0,0,0,23.44,22.4Zm0,12.12a4.74,4.74,0,1,1,4.73-4.73A4.73,4.73,0,0,1,23.44,34.52Z" transform="translate(-8.32 -14.79)"/><path class="cls-1" d="M29.31,44.79h-12a9,9,0,0,1-9-9v-12a9,9,0,0,1,9-9h12a9,9,0,0,1,9,9v12A9,9,0,0,1,29.31,44.79Zm-12-27.18a6.2,6.2,0,0,0-6.19,6.19v12A6.19,6.19,0,0,0,17.33,42h12a6.19,6.19,0,0,0,6.19-6.18v-12a6.2,6.2,0,0,0-6.19-6.19Z" transform="translate(-8.32 -14.79)"/></svg>