<?xml version="1.0" encoding="utf-8"?>
<!-- Generator: Adobe Illustrator 24.0.2, SVG Export Plug-In . SVG Version: 6.00 Build 0)  -->
<svg version="1.1" id="Capa_1" xmlns="http://www.w3.org/2000/svg" xmlns:xlink="http://www.w3.org/1999/xlink" x="0px" y="0px"
	 viewBox="0 0 85.8 68.4" style="enable-background:new 0 0 85.8 68.4;" xml:space="preserve">
<style type="text/css">
	.st0{fill:#FCE9F3;}
</style>
<g>
	<g>
		<path class="st0" d="M45.7,24.6c-1,0-1.8,0.8-1.8,1.8c0,1,0.8,1.8,1.8,1.8c1,0,1.8-0.8,1.8-1.8C47.5,25.4,46.7,24.6,45.7,24.6z"/>
		<path class="st0" d="M37.9,26.8c-4.1,0-7.4,3.3-7.4,7.4c0,4.1,3.3,7.4,7.4,7.4c4.1,0,7.4-3.3,7.4-7.4C45.3,30.1,42,26.8,37.9,26.8
			z M37.9,38.9c-2.6,0-4.7-2.1-4.7-4.7s2.1-4.7,4.7-4.7c2.6,0,4.7,2.1,4.7,4.7S40.5,38.9,37.9,38.9z"/>
		<path class="st0" d="M43.8,49.2h-12c-5,0-9-4-9-9v-12c0-5,4-9,9-9h12c5,0,9,4,9,9v12C52.8,45.2,48.7,49.2,43.8,49.2z M31.8,22
			c-3.4,0-6.2,2.8-6.2,6.2v12c0,3.4,2.8,6.2,6.2,6.2h12c3.4,0,6.2-2.8,6.2-6.2v-12c0-3.4-2.8-6.2-6.2-6.2H31.8z"/>
	</g>
</g>
</svg>
