<?xml version="1.0" encoding="utf-8"?>
<!-- Generator: Adobe Illustrator 24.0.2, SVG Export Plug-In . SVG Version: 6.00 Build 0)  -->
<svg version="1.1" id="Capa_1" xmlns="http://www.w3.org/2000/svg" xmlns:xlink="http://www.w3.org/1999/xlink" x="0px" y="0px"
	 viewBox="0 0 51.5 30" style="enable-background:new 0 0 51.5 30;" xml:space="preserve">
<style type="text/css">
	.st0{fill:#FCE9F3;}
</style>
<g>
	<g>
		<path class="st0" d="M22.9,5.4c-1,0-1.8,0.8-1.8,1.8S21.9,9,22.9,9s1.8-0.8,1.8-1.8S23.9,5.4,22.9,5.4z"/>
		<path class="st0" d="M15.1,7.6c-4.1,0-7.4,3.3-7.4,7.4s3.3,7.4,7.4,7.4s7.4-3.3,7.4-7.4S19.2,7.6,15.1,7.6z M15.1,19.7
			c-2.6,0-4.7-2.1-4.7-4.7s2.1-4.7,4.7-4.7s4.7,2.1,4.7,4.7S17.7,19.7,15.1,19.7z"/>
		<path class="st0" d="M21,30H9c-5,0-9-4-9-9V9c0-5,4-9,9-9h12c5,0,9,4,9,9v12C30,26,25.9,30,21,30z M9,2.8C5.6,2.8,2.8,5.6,2.8,9
			v12c0,3.4,2.8,6.2,6.2,6.2h12c3.4,0,6.2-2.8,6.2-6.2V9c0-3.4-2.8-6.2-6.2-6.2C21,2.8,9,2.8,9,2.8z"/>
	</g>
</g>
</svg>
