<svg xmlns="http://www.w3.org/2000/svg" viewBox="0 0 98.36 69.87"><defs><style>.cls-1{fill:#8a398b;}.cls-2{fill:#f8f3f9;}.cls-3{fill:#8b398b;}.cls-4{fill:#faf7fb;}.cls-5{fill:#934793;}.cls-6{fill:#944a95;}.cls-7{fill:#b785b8;}.cls-8{fill:#b989ba;}.cls-9{fill:#9d5a9e;}.cls-10{fill:#8e3f8e;}.cls-11{fill:#f5eff6;}.cls-12{fill:#aa70ab;}.cls-13{fill:#a365a4;}.cls-14{fill:#9f5da0;}.cls-15{fill:#985098;}.cls-16{fill:#b37fb4;}.cls-17{fill:#f3ebf4;}.cls-18{fill:#a86eaa;}.cls-19{fill:#e7d8ea;}.cls-20{fill:#9f5c9f;}.cls-21{fill:#9a569c;}.cls-22{fill:#8f418f;}.cls-23{fill:#a669a6;}.cls-24{fill:#b17db2;}.cls-25{fill:#eaddec;}.cls-26{fill:#dcc8e1;}.cls-27{fill:#a161a2;}.cls-28{fill:#924692;}.cls-29{fill:#a060a1;}.cls-30{fill:#ede2ef;}.cls-31{fill:#8e3e8e;}.cls-32{fill:#9c599d;}.cls-33{fill:#a26da4;}.cls-34{fill:#9b559a;}.cls-35{fill:#e8dbea;}.cls-36{fill:#a467a5;}.cls-37{fill:#b07ab1;}.cls-38{fill:#e5d5e8;}.cls-39{fill:#904391;}.cls-40{fill:#985199;}.cls-41{fill:#f4edf6;}.cls-42{fill:#995299;}.cls-43{fill:#e4d4e7;}.cls-44{fill:#a970ab;}.cls-45{fill:#9b559b;}.cls-46{fill:#faf7fa;}.cls-47{fill:#ceadcf;}.cls-48{fill:#9d599d;}.cls-49{fill:#b380b5;}.cls-50{fill:#954d96;}.cls-51{fill:#a364a4;}.cls-52{fill:#f2eaf4;}.cls-53{fill:#ab71ac;}.cls-54{fill:#a86ca9;}.cls-55{fill:#c8a4ca;}.cls-56{fill:#a569a7;}.cls-57{fill:#99529a;}.cls-58{fill:#b989bb;}.cls-59{fill:#8e408f;}.cls-60{fill:#a465a4;}.cls-61{fill:#b684b7;}.cls-62{fill:#b07bb1;}.cls-63{fill:#9c579c;}.cls-64{fill:#e6d7e7;}.cls-65{fill:#d8beda;}.cls-66{fill:#eadeed;}.cls-67{fill:#cdaccf;}.cls-68{fill:#af79b0;}.cls-69{fill:#d5bad6;}.cls-70{fill:#9e5c9f;}.cls-71{fill:#f6f0f7;}.cls-72{fill:#964d96;}.cls-73{fill:#954c96;}.cls-74{fill:#a568a6;}.cls-75{fill:#c59ec7;}.cls-76{fill:#f7f2f8;}.cls-77{fill:#a262a3;}.cls-78{fill:#d1b3d3;}.cls-79{fill:#954b95;}.cls-80{fill:#934893;}.cls-81{fill:#964e97;}.cls-82{fill:#a264a3;}.cls-83{fill:#ae77af;}.cls-84{fill:#c69ec7;}.cls-85{fill:#9e5b9f;}.cls-86{fill:#a567a5;}.cls-87{fill:#b07db2;}.cls-88{fill:#944994;}.cls-89{fill:#bf92bf;}.cls-90{fill:#b786b8;}.cls-91{fill:#efe4f0;}.cls-92{fill:#9e5b9e;}.cls-93{fill:#f1e9f3;}.cls-94{fill:#bb8bbb;}.cls-95{fill:#9d589d;}.cls-96{fill:#f9f4f9;}.cls-97{fill:#cdacce;}.cls-98{fill:#9b579c;}.cls-99{fill:#aa6fab;}.cls-100{fill:#954a95;}.cls-101{fill:#b380b4;}.cls-102{fill:#d9bfda;}.cls-103{fill:#ebe0ee;}.cls-104{fill:#a86ca8;}.cls-105{fill:#d9bed9;}.cls-106{fill:#c49bc5;}.cls-107{fill:#a261a2;}.cls-108{fill:#e5d3e6;}.cls-109{fill:#bb8dbd;}.cls-110{fill:#a569a6;}.cls-111{fill:#bb8cbc;}.cls-112{fill:#e1cce2;}.cls-113{fill:#a160a1;}.cls-114{fill:#974e97;}.cls-115{fill:#944c96;}.cls-116{fill:#e1cde2;}.cls-117{fill:#d7bcd8;}.cls-118{fill:#caa6cb;}.cls-119{fill:#b682b7;}.cls-120{fill:#c69fc8;}.cls-121{fill:#b684b8;}.cls-122{fill:#f9f5f8;}.cls-123{fill:#99539a;}.cls-124{fill:#9b569c;}.cls-125{fill:#b886b8;}.cls-126{fill:#ece0ed;}.cls-127{fill:#dfcae1;}.cls-128{fill:#aa71ac;}.cls-129{fill:#9a549a;}.cls-130{fill:#c49cc5;}.cls-131{fill:#b480b5;}.cls-132{fill:#af78af;}.cls-133{fill:#bb8bbc;}.cls-134{fill:#fbf9fc;}.cls-135{fill:#ede1ee;}.cls-136{fill:#b17cb2;}.cls-137{fill:#ac75ad;}.cls-138{fill:#fbf9fb;}.cls-139{fill:#a05fa0;}.cls-140{fill:#ebdfed;}.cls-141{fill:#d3b6d5;}.cls-142{fill:#ad76ae;}.cls-143{fill:#b582b7;}.cls-144{fill:#d9c2dc;}.cls-145{fill:#ab70ab;}.cls-146{fill:#b27db3;}.cls-147{fill:#fffdff;}.cls-148{fill:#f0e6f2;}.cls-149{fill:#c9a5cb;}.cls-150{fill:#e3d0e4;}.cls-151{fill:#a971ab;}.cls-152{fill:#ad75ad;}.cls-153{fill:#d3b6d4;}.cls-154{fill:#d0b1d2;}.cls-155{fill:#a05ea0;}.cls-156{fill:#a76ba8;}.cls-157{fill:#985198;}.cls-158{fill:#a366a5;}.cls-159{fill:#954d97;}.cls-160{fill:#c399c4;}.cls-161{fill:#bf93c0;}.cls-162{fill:#ddc6dd;}.cls-163{fill:#d2b3d3;}.cls-164{fill:#af7ab1;}.cls-165{fill:#a66aa7;}.cls-166{fill:#b27db2;}.cls-167{fill:#d8bdd9;}.cls-168{fill:#b582b6;}.cls-169{fill:#9d599e;}.cls-170{fill:#c8a2c8;}.cls-171{fill:#bc8ebd;}.cls-172{fill:#b787b9;}.cls-173{fill:#8e3f8f;}.cls-174{fill:#aa71ab;}.cls-175{fill:#a86da9;}.cls-176{fill:#9d5b9f;}.cls-177{fill:#ad75ae;}.cls-178{fill:#9d5b9e;}.cls-179{fill:#c399c3;}.cls-180{fill:#a86faa;}.cls-181{fill:#c49ac4;}.cls-182{fill:#c59fc8;}.cls-183{fill:#d3b5d4;}.cls-184{fill:#8f4190;}.cls-185{fill:#180616;}.cls-186{fill:#361435;}.cls-187{fill:#230c22;}.cls-188{fill:#290f28;}.cls-189{fill:#180617;}.cls-190{fill:#1f081d;}.cls-191{fill:#7e337e;}.cls-192{fill:#32102f;}.cls-193{fill:#2f112e;}.cls-194{fill:#6e2c6e;}.cls-195{fill:#712e71;}.cls-196{fill:#030202;}.cls-197{fill:#502050;}.cls-198{fill:#6b2b6b;}.cls-199{fill:#6e2d6e;}.cls-200{fill:#6c2c6d;}.cls-201{fill:#7c327c;}.cls-202{fill:#793179;}.cls-203{fill:#7f3480;}.cls-204{fill:#773178;}.cls-205{fill:#7a317a;}.cls-206{fill:#170214;}.cls-207{fill:#742f75;}.cls-208{fill:#7c337d;}.cls-209{fill:#1c071b;}.cls-210{fill:#652965;}.cls-211{fill:#7b327c;}.cls-212{fill:#6c2c6c;}.cls-213{fill:#5b255c;}.cls-214{fill:#7a327b;}.cls-215{fill:#803480;}.cls-216{fill:#602760;}.cls-217{fill:#682a68;}.cls-218{fill:#79317a;}.cls-219{fill:#391739;}.cls-220{fill:#722e72;}.cls-221{fill:#5e265f;}.cls-222{fill:#823683;}.cls-223{fill:#542654;}.cls-224{fill:#883789;}.cls-225{fill:#893889;}.cls-226{fill:#481d48;}.cls-227{fill:#672a68;}.cls-228{fill:#742f74;}.cls-229{fill:#020202;}.cls-230{fill:#401b41;}.cls-231{fill:#471d48;}.cls-232{fill:#190b1a;}.cls-233{fill:#7f337f;}.cls-234{fill:#321532;}.cls-235{fill:#89388a;}.cls-236{fill:#833684;}.cls-237{fill:#6a2b6b;}.cls-238{fill:#341634;}.cls-239{fill:#030203;}.cls-240{fill:#823582;}.cls-241{fill:#ab71ab;}.cls-242{fill:#bb8ebe;}.cls-243{fill:#e8daeb;}.cls-244{fill:#ede3f0;}.cls-245{fill:#e6d5e6;}.cls-246{fill:#f3ecf5;}.cls-247{fill:#af78b0;}.cls-248{fill:#faf6fa;}.cls-249{fill:#944b96;}.cls-250{fill:#faf8fa;}.cls-251{fill:#cba7cc;}.cls-252{fill:#e4d4e8;}.cls-253{fill:#bd90be;}.cls-254{fill:#c7a1c8;}.cls-255{fill:#ece1ef;}.cls-256{fill:#f7f1f7;}.cls-257{fill:#9c589d;}.cls-258{fill:#be91bf;}.cls-259{fill:#ab74ae;}.cls-260{fill:#ece2ef;}.cls-261{fill:#a76ca9;}.cls-262{fill:#985299;}.cls-263{fill:#b583b7;}.cls-264{fill:#e3d1e5;}.cls-265{fill:#a465a5;}.cls-266{fill:#fff;}.cls-267{fill:#a96faa;}.cls-268{fill:#faf8fb;}.cls-269{fill:#eee3ef;}.cls-270{fill:#ece0ee;}.cls-271{fill:#efe5f0;}.cls-272{fill:#e9dded;}.cls-273{fill:#ab73ad;}.cls-274{fill:#dac3dd;}.cls-275{fill:#9d5a9d;}.cls-276{fill:#f3eaf3;}.cls-277{fill:#e8dbeb;}.cls-278{fill:#e9dceb;}.cls-279{fill:#fcfbfd;}.cls-280{fill:#c298c3;}.cls-281{fill:#e2cfe4;}.cls-282{fill:#c8a2c9;}.cls-283{fill:#c59dc6;}.cls-284{fill:#e7d7e8;}.cls-285{fill:#975098;}.cls-286{fill:#9b569b;}.cls-287{fill:#934692;}.cls-288{fill:#f9f6fa;}.cls-289{fill:#eee4f1;}.cls-290{fill:#e8dbec;}.cls-291{fill:#f0e7f1;}.cls-292{fill:#4b1e4b;}.cls-293{fill:#260c24;}.cls-294{fill:#b581b6;}.cls-295{fill:#ac75ae;}.cls-296{fill:#1d061a;}.cls-297{fill:#582358;}.cls-298{fill:#b07bb2;}.cls-299{fill:#c299c4;}.cls-300{fill:#c79fc7;}.cls-301{fill:#ab74ad;}.cls-302{fill:#c095c1;}.cls-303{fill:#e4d2e5;}.cls-304{fill:#c094c1;}.cls-305{fill:#cfafd1;}.cls-306{fill:#b784b7;}.cls-307{fill:#471e48;}.cls-308{fill:#702d70;}.cls-309{fill:#150614;}.cls-310{fill:#934894;}.cls-311{fill:#bc8dbd;}.cls-312{fill:#a466a5;}.cls-313{fill:#924793;}.cls-314{fill:#f4edf5;}.cls-315{fill:#904290;}.cls-316{fill:#fbf8fb;}.cls-317{fill:#ba8abb;}.cls-318{fill:#c69ec6;}.cls-319{fill:#d1b1d2;}.cls-320{fill:#a66aa8;}.cls-321{fill:#9a559b;}.cls-322{fill:#6d2c6d;}.cls-323{fill:#321432;}.cls-324{fill:#a263a3;}.cls-325{fill:#a262a2;}.cls-326{fill:#934994;}.cls-327{fill:#9a539a;}.cls-328{fill:#d8bcd8;}.cls-329{fill:#e9ddec;}.cls-330{fill:#a466a4;}.cls-331{fill:#c8a1c8;}.cls-332{fill:#a364a3;}.cls-333{fill:#aa6faa;}.cls-334{fill:#924592;}.cls-335{fill:#c8a3ca;}.cls-336{fill:#c7a0c9;}.cls-337{fill:#bd8fbe;}.cls-338{fill:#d2b5d5;}.cls-339{fill:#bc8ebe;}</style></defs><title>vnqlogo</title><g id="Capa_2" data-name="Capa 2"><g id="Capa_1-2" data-name="Capa 1"><g id="Modo_de_aislamiento" data-name="Modo de aislamiento"><path d="M22,1l-1,.1,8-1L26.46,43.45,13.37,45.26,0,3.91,10.31,2.48,17.74,28l.74-26.68C18.57,1.43,22,1,22,1Z"/><path d="M30.74.76,41,1.91l6.41,18.67L49.4,2.86,59.71,4,55.16,46.6,44.85,45.45,38.63,26l-2,18.39-10.4-1.14Z"/></g><path class="cls-1" d="M90.18,43.71l-.13.29a.42.42,0,0,0-.22.51.22.22,0,0,1-.06.19h0c-.13.06,0,.33-.2.31-.08,0-.17-.16-.19-.06-.08.26-.35.44-.31.74a.2.2,0,0,1-.11.19c-.19.07-.2.23-.2.4s0,.2-.1.28a.26.26,0,0,0-.18.21,3.57,3.57,0,0,1-.41,1.35c.29,0,.28-.27.37-.42.24.07.22.26.22.44-.19.11-.08.27,0,.41s-.16.19-.09.31a.19.19,0,0,1-.09.31c-.23.12-.1-.11-.16-.15s-.14.15-.26.12c0,.26-.45.24-.35.56a.73.73,0,0,1,.1.28c.09.14.12,0,.17,0a.25.25,0,0,1,.16-.1.62.62,0,0,0,.38.13l.09.07a.36.36,0,0,0,.2.11c.15,0,.33.12.43-.1.2,0,.25.3.47.21s.12.14.21.18.15-.3.24,0c0,.1.14.13.25.11s.21.13.31.19c.37.09.26-.21.3-.5a1,1,0,0,0,.39.62c.27.17.4-.09.6-.11h.28c.05,0,.05.08,0,.12s.42.14.33.46c0,.07.12.21.25.13s.3.06.4.19a.52.52,0,0,1,.21.18c.37-.1.71.21,1.08.11,0-.11-.2-.16-.11-.31a.29.29,0,0,1,.37-.25c.19,0,.08.15,0,.28s.13.05.19.08,0,0,0,.05a.22.22,0,0,1-.1.11.23.23,0,0,1,.14,0s.06,0,.08.08-.06.2.06.25,0,.27.19.31.07-.34.31-.2c.14.42.59.43.87.66.09.06,0,.18.11.24a.4.4,0,0,0,.18.38,2,2,0,0,1,.93,2,.85.85,0,0,0,0,.56c.13.25-.07.48-.16.71.08.17.08.31-.1.4s-.33.26-.19.5a.16.16,0,0,1-.12.14A.35.35,0,0,1,97,58c-.13,0-.12.11-.14.12-.25.06-.14.36-.39.5s-.44.31-.74.14a.22.22,0,0,0-.19,0,1.47,1.47,0,0,1-1.14.27c-.49-.09-.59,0-.47.54-.25,0-.24,0-.42-.23s-.15-.23-.28-.12a1,1,0,0,1-1.09.15c-.07,0-.22.07-.29.14-.27.33-.73-.06-1,.29-.08-.32-.46-.52-.39-.89a.69.69,0,0,0-.2-.57c-.08-.13-.16,0-.24,0s-.08-.08-.11,0v0a.41.41,0,0,1-.47,0c-.16-.1-.32-.23-.51,0l-.5-.7c-.19.06-.29.45-.6.2-.1,0-.19.1-.3.08l-.5-.28c-.12-.09-.16-.26-.32-.32A.33.33,0,0,1,86.6,57a2.67,2.67,0,0,1,0-.69c0-3.07,0-6.14,0-9.2A1.51,1.51,0,0,0,86.09,46q-4.82-4.77-9.59-9.58a12,12,0,0,1-.88-.87,1.34,1.34,0,0,0-1-.38A6.37,6.37,0,0,1,73,35.05c-.19-.17-.1-.35,0-.53.29-.54.54-1.11.83-1.65a1.37,1.37,0,0,0,.19-.7c.07-.31.23-.29.43-.1a1.55,1.55,0,0,0,.31,0c.38.08.37-.39.64-.45.1.06.2.08.24-.07l.17-.08a.92.92,0,0,0,.23-.09c.28,0,0-.28.14-.37a.24.24,0,0,1,.11-.06c.14,0,.17-.15.29-.18s.27-.08.34-.22a.54.54,0,0,1,.3-.15c.21-.05.44-.07.42-.39a.27.27,0,0,1,.24-.23,2.17,2.17,0,0,0,.58-.36c.13,0,.16-.1.15-.22a.28.28,0,0,1,.15-.08c.06,0,.07-.05,0-.11a.2.2,0,0,1,0-.11c.15-.15.37,0,.52-.15s0-.14,0-.2c-.14-.3,0-.45.28-.54s.32,0,.43-.19.2-.12.25-.24,0-.18-.06-.28a.33.33,0,0,1,0-.17.85.85,0,0,1-.49-.65c-.08-.31-.38-.48-.6-.69s-.16-.24.06-.37a4,4,0,0,1,1.2-.51c.19,0,.39-.09.47-.31a.47.47,0,0,1,.16-.27c.07,0,.15-.06.2,0,0-.11-.17-.08-.2-.18s-.21-.15-.3-.23a.18.18,0,0,1,0-.19c.2-.13.45-.24.12-.51-.11-.09-.09-.27-.07-.42s0-.13,0-.19l0-.2a.54.54,0,0,1,.15-.29c.1-.12.23-.24.15-.42s-.09-.42-.37-.44-.3-.18-.34-.39a2.87,2.87,0,0,1-.13-1.09,1.58,1.58,0,0,0-.12-.15,1.2,1.2,0,0,1-.19-.27c-.06-.14-.08-.3-.14-.44,0-.34.06-.68-.29-.92a.22.22,0,0,1,0-.34c.1-.07.21-.13.2-.28A.59.59,0,0,0,79.6,17c0-.05,0-.15,0-.15s-.09.08-.14.12a2.5,2.5,0,0,1-.33.32c-.11.07-.18.2-.3.25a.41.41,0,0,1-.61-.32.44.44,0,0,1,0-.1,3.37,3.37,0,0,0-.24-1.63,2.63,2.63,0,0,0-.33-2.73,21.67,21.67,0,0,1-1.3-2.65,2.76,2.76,0,0,1,.78-1.61c1-1,2-2,3-3,.15-.09.29-.28.48-.07s0,.55.3.68c.1.11.27,0,.36.14s0,.14.08,0,.08-.23.24-.19c0,.15.16.19.21.3.2.08.12.24.12.38a.2.2,0,0,0,.22,0l.06,0a.3.3,0,0,1,.31.18c0,.06,0,.15.1.2a.16.16,0,0,1,0,.12c-.13.21,0,.19.17.21a.23.23,0,0,1,.12.06.46.46,0,0,1,.15.3c.08.35.3.45.63.32h.06a.81.81,0,0,1,.43.08c.19.1.39,0,.52-.12s-.35-.13-.15-.36a.28.28,0,0,1,.2-.18.55.55,0,0,1,.42.19c.15.08.27,0,.38-.07-.09-.11-.35-.11-.23-.35s.22,0,.32-.09l.09-.1a.21.21,0,0,1,.16-.07A.52.52,0,0,0,86.12,7c.14,0,0-.49.35-.22,0,0,.11,0,.07-.11a1,1,0,0,1,.28-.27c.27,0,0,.14,0,.22s0,.2.14.23a.16.16,0,0,0,.19-.17c0-.2.16-.23.24-.11.3.45.36.17.44-.13A.76.76,0,0,1,88,6.27c.06.22,0,.4.39.26a1,1,0,0,1,1.13.16c.12.14.15,0,.2-.06a.5.5,0,0,1,.59-.23c.07,0,0,.13.1.18l.12.25a.46.46,0,0,1,.36,0l.1,0c.11.07.23,0,.33,0,.11-.13.25-.15.47-.1a.28.28,0,0,0,.2,0c.41-.21.72.16,1.1.19.17,0,.33.26.5.4s.21.25.21,0c.14.06.36-.19.45.14,0,0,.19.62.49.06.14-.25.3.12.41.26s.05.33.22.43a.24.24,0,0,1,.09.16c0,.12.12.09.19.11s.11.24.23.3A1.49,1.49,0,0,1,96,9c0,.1,0,.22.18.09a1.46,1.46,0,0,0,.36.09.16.16,0,0,1,.11.05c.18.2.66.05.61.52.25.28,0,.38-.19.45s-.15.19.28.32a3.31,3.31,0,0,0,.34.3.33.33,0,0,1,.16.19.27.27,0,0,1,0,.09c-.19,0-.15.25-.3.3-.16-.14-.29,0-.34.1s.12.22.23.29.23.16.22.32v.19c.14.18-.13.34,0,.52-.19.1-.07.33-.18.46s0,0,0,.08,0,0,0,0-.11-.26-.24-.05a.36.36,0,0,1-.27,0c-.07,0,0-.15-.15-.06a.57.57,0,0,0,0,.29c0,.19-.1.38,0,.55a.29.29,0,0,1-.14.41.34.34,0,0,1-.32.07c-.07,0-.13-.1-.21-.05s0,.16.08.24a.21.21,0,0,1,.06.1c0,.17-.15.25-.17.4a.77.77,0,0,0,0,.45.24.24,0,0,1,0,.12c-.07.1-.13.21-.2.3s.08.26,0,.38a1.14,1.14,0,0,0-.14,1.14c.09.17-.09.34-.12.52a2.75,2.75,0,0,1-.14.8,1.12,1.12,0,0,0-.06.6.48.48,0,0,1-.05.31s-.09.13.05.11.17-.08.26,0c0,.31-.24.51-.31.78a.14.14,0,0,1-.11.05c-.24,0-.24.16-.2.34a.59.59,0,0,1,0,.13.33.33,0,0,1-.06.19c-.32.15-.11.42-.15.63s0,.24-.06.35c-.15.43.12.85,0,1.28,0,.18-.11.22-.26.21-.13.15,0,.35-.09.51.06.18-.33.4.05.55,0,0,0,.1,0,.13-.37.46-.29,1.11-.66,1.57,0,.06-.1.13,0,.19a.23.23,0,0,1,.06.21c.06.62-.46,1.08-.48,1.68-.08.13-.1.28-.19.41s.09.15.07.17a1.44,1.44,0,0,0-.41,1.39c0,.14-.18.2-.25.31s.14.13.18.21c0,.27-.34.47-.18.78a.33.33,0,0,1-.2.31c0,.24-.16.38-.22.58a.21.21,0,0,0,0,.13c0,.07,0,0,0,0a1.2,1.2,0,0,1,.11,1.09c-.09,0-.15,0-.12-.1-.07.06,0,.11,0,.16a1,1,0,0,1,.06.23,3,3,0,0,0-.1.85,6.1,6.1,0,0,0-.29.57.22.22,0,0,1-.07.09c-.07.18.08.36,0,.54A2.83,2.83,0,0,0,92,37a.77.77,0,0,1-.07.4c0,.08-.09.17,0,.23a.25.25,0,0,1,.08.1.61.61,0,0,1-.26.42s-.22,0-.06.15a.4.4,0,0,1,.21.09c.11.25.11.39-.24.29-.15,0-.22.18-.22.24a1.11,1.11,0,0,1-.07.37c-.26.17-.1.5-.27.71a1.92,1.92,0,0,0-.33.69c0,.11-.13.13-.16.22.13.29-.33.56,0,.85h0l-.11.6A2.39,2.39,0,0,0,90.18,43.71Z"/><path class="cls-1" d="M72.93,35c.48,0,1,0,1.44,0a1.86,1.86,0,0,1,1.6.7c.53.59,1.15,1.13,1.72,1.69,1.14,1.11,2.25,2.25,3.37,3.37l3.33,3.34,2.16,2.1a.66.66,0,0,1,.15.55c0,3.45,0,6.9,0,10.34-.17,0-.2.09-.23.22a.57.57,0,0,1-.16.27.51.51,0,0,1-.11.48c-.11.15-.31.36-.2.63s-.27.51-.4.76c-.12.05-.14,0-.19-.11a.38.38,0,0,0-.31-.26,4.74,4.74,0,0,0-.39,1.17s0,0-.08,0c-.22-.22-.32-.07-.39.14s-.15.5-.23.75c-.17-.13-.14.21-.3.12-.26.74-.57,1.48-.76,2.25a.68.68,0,0,1-.54.59c-.3,0,0,.34-.21.35s-.33.25-.36.13-.33-.24-.37-.44a.87.87,0,0,0-.09-.32c0,.44-.57.39-.59.91,0,.32-.48.64-.78.93-.1.1-.24.15-.32.29-.33.56-.84,1-1.21,1.5,0,.06-.08.14-.13.14-.83,0-.93.83-1.34,1.3-.06.08-.09.18-.14.26-.19.32-.37.56-.67.09a.49.49,0,0,0-.45-.26c-.3,0-.55,0-.62-.36a.64.64,0,0,1,.38-.69c1-.55,1.28-1.62,1.78-2.52l0,0v0a2.93,2.93,0,0,0-.69.67c-.22.26-.45.48-.81.24-.07-.1,0-.22-.05-.37,0,.17,0,.28-.14.33-.18.25-.42.23-.68.14s-.16-.49-.17-.75c-.18-6-.07-12-.1-17.95a1.92,1.92,0,0,0-.11-.92.9.9,0,0,0-.67-.44.16.16,0,0,1,0-.3c.12,0,.16-.07.16-.18a.26.26,0,0,1,0-.09c.23-.21.29,0,.41.13s.18.25.32.08.22-.22,0-.37-.22-.24,0-.33.1-.15.08-.25A3.58,3.58,0,0,1,75.24,43a.63.63,0,0,0,0-.47c-.14-.36-.2-.06-.27,0a.17.17,0,0,1-.23,0c-.22,0-.46-.09-.58.2a.26.26,0,0,1-.12.07c-.43-.51-.86.12-1.33,0a5.14,5.14,0,0,0-1.11,0s-.07-.1-.1-.1,0,.09,0,.1a.92.92,0,0,0-.28.15c-.34.36-.15-.08-.21-.13s-.17-.08-.24,0a.31.31,0,0,1-.15.1l-.15-.13c-.31.56-.42-.06-.63-.1s-.21-.11-.31,0a1,1,0,0,1-.19.3c-.31.12-.63.28-.79-.2-.19.08-.12.34-.31.39h0c-.36-.73-.49-.67-.9-.32a.22.22,0,0,1-.3,0c-.1-.39-.48-.26-.73-.38,0,0,0,.16,0,.25s0,0,0,.07,0,0,0,0a1.93,1.93,0,0,0-.91-.41h-.06a.9.9,0,0,0-1-.72.37.37,0,0,1-.39-.18c-.16-.3-.31-.37-.56-.11,0,0-.07,0-.11-.08a.12.12,0,0,1,0-.14.57.57,0,0,1,.64-.13c.12,0,.23.39.39,0A7.71,7.71,0,0,1,66,41.12a1.31,1.31,0,0,0,1-.42c1.77-1.79,3.55-3.56,5.33-5.33C72.51,35.2,72.63,35,72.93,35Z"/><path class="cls-1" d="M72.93,35c-.57.56-1.16,1.11-1.73,1.68-1.4,1.39-2.8,2.78-4.18,4.19a1.11,1.11,0,0,1-.91.37c-.68,0-1.35,0-2,0a.16.16,0,0,1-.22,0,1.15,1.15,0,0,0-.73.08,1.53,1.53,0,0,1-.3,0,.24.24,0,0,1-.11-.06h-.15c.11-.16-.1-.14-.12-.22a.06.06,0,0,0,0-.07c-.06-.13,0-.28-.09-.4s0-.21-.11-.18c-.39.13-.5-.18-.67-.4-.1,0-.14,0-.11-.11-.19-.32-.52-.09-.76-.19s-.33-.24-.53-.3c0,.11.06.19.07.3s-.09.26-.17.37h-.2c-.06,0-.06-.07,0-.11,0-.22-.23-.32-.38-.45a.11.11,0,0,1,0-.14l.1-.08c.24-.29,0-.25-.18-.29l0,0c-.17-.15.07-.48-.19-.53s-.11.35-.36.44c0-.31,0-.65-.32-.85-.07-.1-.21-.1-.27-.21l0-.28a.24.24,0,0,1,0-.12c0-.19-.06-.26-.24-.16a.09.09,0,0,1-.11,0,.25.25,0,0,1-.3-.19.74.74,0,0,0-.19-.59c-.11,0-.23.09-.34,0s-.21-.28-.34-.39-.15-.14-.13-.26c0-.35-.18-.29-.39-.25a.38.38,0,0,1-.16-.19.45.45,0,0,1,0-.42.5.5,0,0,0-.12-.33c-.22-.18-.12-.36,0-.54a1.3,1.3,0,0,0-.06-.91,2.85,2.85,0,0,0-.13-.48c.21-.14,0-.26,0-.39a.43.43,0,0,1,0-.16s0,0,0,0,.06.05,0,.05a.38.38,0,0,1-.2.23.27.27,0,0,1-.26,0c-.17-.17,0-.47-.21-.62a.33.33,0,0,1-.18-.17c.05-.25-.18-.32-.29-.46s.13-.28,0-.44-.2-.05-.3-.09-.1-.05-.11-.1a1.67,1.67,0,0,1,.11-.59c.07-.09,0-.18,0-.27s-.2-.12-.31-.16a.19.19,0,0,1-.11-.07h0a.76.76,0,0,1-.06-.39.27.27,0,0,1,.06-.12v-.1c0-.15-.09-.32-.32-.24a.27.27,0,0,1-.2-.14.19.19,0,0,1,0-.13c0-.06.09-.12,0-.19s-.17-.07-.24-.12a.58.58,0,0,0-.1-.36c.11-.09.14-.19,0-.3l.2-.49a.67.67,0,0,1-.11-.51c0-.25-.27-.11-.29-.28s-.08-.16,0-.24a0,0,0,0,1,0-.06c.08-.11.23-.16.28-.31s.29-.2.07-.38C53,25,53,24.77,53,24.75c.38-.28.07-.62.08-.93.23-.25,0-.5,0-.74a.39.39,0,0,1,0-.26l.12-.19a1.43,1.43,0,0,1,0-.51,3.19,3.19,0,0,1,.33-.31v-.27a.36.36,0,0,1,0-.41.24.24,0,0,0-.29-.17c0-.11-.17-.19-.11-.33l.1-.19c0-.1.13-.13.21-.19.28-.22,0-.5.08-.74s.06-.18.18-.07a.83.83,0,0,1,.65-.17c3.73,0,7.47,0,11.2,0a1.26,1.26,0,0,1,1,.41,2.1,2.1,0,0,0,.44.4,1.06,1.06,0,0,1,.21.16.2.2,0,0,1,0,.13,1,1,0,0,1-.12.16c-.19.16-.13.39-.17.59a.49.49,0,0,1-.21.4.62.62,0,0,0-.26.49c0,.29.25.19.38.29.32.26.29.49,0,.73a.72.72,0,0,0-.29.77.36.36,0,0,1-.06.2c.09.05-.3,0,0,.12,0,0,0,.05,0,.08s0,.29,0,.43c.26,0,.24-.34.46-.38s.66-.25.52.34c-.06.13-.21.22-.15.39a.2.2,0,0,1-.17.25s-.11,0-.15,0,.16,0,.21,0a.28.28,0,0,1-.17.36.52.52,0,0,0-.29.64,1,1,0,0,0-.1.49,1.32,1.32,0,0,0,.51,1.07c.17.13.13.24,0,.36a3.87,3.87,0,0,0-.49.57c.09.08.24.09.29.21s0,.26,0,.39c0,.28.22.27.37.37s.11.11.19,0a.36.36,0,0,1,.15-.17.25.25,0,0,1,.12,0,.49.49,0,0,1,.21.26s0,.11.07.08a.48.48,0,0,1,.23-.17.18.18,0,0,1,.12.05c.08.27.47.33.43.7.16-.14.25-.32.46-.31s.31-.1.38,0c.22.31.76.15.85.62a.49.49,0,0,1,.1.26c0,.17-.1.4.18.47.1,0,.25.1.22.16-.23.39.25.43.3.42.41-.06.88.12,1.2-.29l.11-.08a1.07,1.07,0,0,0,.78.18c.17,0,.4-.09.48.18s0,.46-.07.68c-.34.63-.66,1.27-1,1.91A1,1,0,0,0,72.93,35Z"/><path class="cls-1" d="M73.9,46.09l-.08.19c.21.14.49.12.69.3s.3.28.3.51V50.6q0,5.64,0,11.27c0,1.52.14,3,.1,4.54l-.42.82a.31.31,0,0,1-.09.11,2.85,2.85,0,0,0-1.26,1.49c-.14.33-.29.66-.46,1-.36-.37-.7-.72-1.27-.61-.17,0-.3-.13-.35-.29a.67.67,0,0,1,.26-.75c1.14-.73,1.09-2.08,1.72-3.08a1.62,1.62,0,0,0-.59.63c-.25.32-.38.87-1,.48,0,0-.11,0-.16.07s-.37.39-.57.12-.45-.6-.16-1c.17-.21.35-.43.51-.65a33,33,0,0,0,1.82-3.23c.08-.12,0-.32.11-.45.54-.29.54-.29.12-1-.06.2,0,.5-.31.52-.32.28-.34.72-.6,1s-.29.3-.52.22a.5.5,0,0,1-.35-.54,1.34,1.34,0,0,1,.38-.78c.2-.25.31-.55.53-.79s.06-.6,0-.9a24.44,24.44,0,0,1,.44-2.56c0-.2.11-.19.38.13a.13.13,0,0,0,.1-.18c-.42-.42.19-.92-.12-1.34.43-.06.19-.59.51-.73a.17.17,0,0,0,0-.28c-.1-.12-.15,0-.22.06-.46-.26-1-.22-1.48-.44-.19,0-.38-.12-.58-.14a.31.31,0,0,0-.28,0,.09.09,0,0,1-.1,0c-.31-.16-.49.17-.76.2s-.16,0-.3-.17-.23-.51-.7-.48a5.7,5.7,0,0,1-1.32-.31,2.55,2.55,0,0,0-.39,0c-.12.15.22.17.1.33s-.29.16-.41,0H67a.35.35,0,0,1-.17-.15l0-.05c0-.27-.33-.34-.34-.58-.28,0,.22.43-.23.3-.2.05-.14-.14-.2-.22-.17-.25-.63,0-.71-.42a.82.82,0,0,1-.3-.47,3,3,0,0,1-1-.61,2.25,2.25,0,0,1-.54-1.53c-.05-.41-.28-.81-.09-1.24a.15.15,0,0,1,0-.22c.07,0,.14.11.2,0s-.1-.17-.11-.28.17-.18.25-.28-.24-.2-.13-.33.28.06.34-.14c.14.26.17.09.22,0s.38-.45.43-.76c0-.05.17-.13.25-.12a.84.84,0,0,0,.81-.12c0,.06.07.13.15.15a.41.41,0,0,1-.15-.14c.37,0,.6-.47,1.06-.26.15.06.72.14.48-.45a.25.25,0,0,1,.06-.21c.1,0,.28,0,.3.07.18.58.44.19.68.06s.27,0,.4,0,.1-.22.21-.14c.26.19.43,0,.59-.12s.74,0,1-.35c0,.31.44.38.48.72a.94.94,0,0,0,.39.8s.05.11.09,0c0-.27.24-.19.4-.19s.21.11.31.18.34.3.58.1c0,0,.07,0,.1,0,0,.22.5-.09.4.35,0,.06.13-.21.28-.15,0-.31.24-.19.41-.13A.09.09,0,0,1,73.9,46.09Z"/><path class="cls-1" d="M61.64,5.81l.1,0c.27,0,.29-.37.51-.47l.06-.13c.35.21.43-.3.71-.28.11-.14.28,0,.4-.1l.7-.29.19-.23a.26.26,0,0,1,.11-.14L64.53,4c.29-.12.62-.08.87-.3a.45.45,0,0,0,.52,0c.23-.14.42-.29.74-.1.15.1.47-.09.71-.15s0-.1,0-.15c-.15-.29.17-.14.22-.24.13.09.22,0,.3-.06.33,0,.64-.35,1,0,.08-.18.35.24.38-.12,0,0,.15,0,.16,0,.21.55.43,0,.65,0a.61.61,0,0,1,0,.61,2.19,2.19,0,0,0-.23,1.23c0,1.2,0,2.39,0,3.59a1.19,1.19,0,0,1-.08.62,24.07,24.07,0,0,1-2,2,.65.65,0,0,1-.5.16H57.16a.84.84,0,0,1-.76-.27c0-.21.36-.14.28-.4a.3.3,0,0,1,.34,0c.15-.09,0-.32.16-.39s0-.25.21-.28a.5.5,0,0,0,.48-.21c.13-.08.33.16.41-.1s.34-.28.56-.32.13-.4.22-.58a.16.16,0,0,1,0-.09.18.18,0,0,1,.17,0,1,1,0,0,0,.33.16c.21.05.26-.15.39-.23s.18-.09.14-.22.16-.16,0-.18a.2.2,0,0,1-.17-.22c0-.11.11-.17.16-.27s0-.19.1-.27c.27.14.36-.11.44-.24s-.13-.11-.2-.18,0-.19.06-.28A2,2,0,0,0,61,6.51c.11-.34.53-.34.69-.62,0,0,0,0,0-.06Z"/><path class="cls-1" d="M69.66,8.86a26.24,26.24,0,0,0,.06-2.66,10.13,10.13,0,0,1,.11-2.46,6.45,6.45,0,0,0,.23-.89c.08.08.25,0,.29.16s.11.13.21.11.46-.2.4.24c0,.06.19,0,.29,0s.22.1.31.17a.67.67,0,0,0,.53-.17c.24-.22.45-.07.49.13.1.43.22.07.33,0a.34.34,0,0,1,.2,0c.14.23.32.05.48,0,.25.2.4-.21.63-.09l.19,0a.38.38,0,0,0,.31.06l.09,0a.32.32,0,0,1,.19.05.39.39,0,0,1,.08.1c.07.2.35.06.43.25s.21-.16.35-.07a.28.28,0,0,1,.1.09c.07.16,0,.35.1.49.08-.07,0-.18.07-.26a.31.31,0,0,1,.09-.11c.21-.12.38.06.58.07a1,1,0,0,1,.49.37c.17,0,.3.1.2.31.09.25.36,0,.48.19.22-.37.63-.07.91-.26.1,0,.15.19.28,0s.21.07.33,0c0,.36.28.46.57.53,0,0,0,.09,0,.14,0,.23-.19.34-.33.47-.78.79-1.55,1.57-2.34,2.34a4,4,0,0,0-1,1.75c-.14.13-.32.08-.47.08-.89,0-1.78,0-2.66,0A1.46,1.46,0,0,1,72,9.59,1.47,1.47,0,0,0,70.59,9C70.29,9,69.93,9.15,69.66,8.86Z"/><path class="cls-2" d="M96.19,15.81c-.25-.13-.09-.34-.09-.52a.21.21,0,0,1,.17-.07.25.25,0,0,0,.24-.16.34.34,0,0,1,.08-.09.27.27,0,0,0,.11-.22.3.3,0,0,1,.08-.17.17.17,0,0,1,.12,0,.65.65,0,0,0,.34.25.67.67,0,0,1,.12.06c.16.15.12.35.13.54v0c-.07.09,0,.23-.07.32s-.32.11-.33.31c-.19.11-.14.36-.3.49l0,0a.34.34,0,0,1-.36,0h0C96.27,16.34,96.3,16.06,96.19,15.81Z"/><path class="cls-3" d="M72.83,60.64a.48.48,0,0,0,.18-.52c-.06-.21.12-.18.22-.28,0,.18,0,.38.14.47a.4.4,0,0,1,.22.56c-.1.26-.33.29-.57.26C73.2,60.87,73,60.75,72.83,60.64Z"/><path class="cls-4" d="M92.34,35.39c0-.29-.24-.62.12-.87,0-.05,0-.11.09-.12a.24.24,0,0,0,.21-.12.4.4,0,0,1,.31.11c.06.08.14.14.12.25-.2.26-.2.59-.36.86h0c-.13.06-.17-.06-.24-.11s-.14,0-.2,0Z"/><path class="cls-2" d="M90.18,43.71a1.15,1.15,0,0,1,.36-1.4h0a.45.45,0,0,1,.16.39.39.39,0,0,1,0,.28c-.06.17-.24.31-.16.52C90.44,43.59,90.4,43.82,90.18,43.71Z"/><path class="cls-5" d="M85.31,7.37c0,.18.11.2.27.16.34-.09.16.12.13.23a1.32,1.32,0,0,0-.62.11c-.13-.08-.22-.22-.39-.21s-.3,0-.17-.25.21-.17.36-.15a.28.28,0,0,1,.37-.12C85.37,7.18,85.37,7.28,85.31,7.37Z"/><path class="cls-6" d="M96.19,23.57c-.16.05-.2,0-.15-.16s.21-.36.15-.58,0-.4.3-.4c0,.12,0,.25,0,.38s0,0,0,0,0,0,0,0,.17,0,.21.11l-.28.67A.27.27,0,0,0,96.19,23.57Z"/><path class="cls-7" d="M89.07,47c.19-.17-.11-.43.11-.59s.1-.26.29-.2.21-.09.2.11a1,1,0,0,1-.5.88C89.09,47.13,89,47.08,89.07,47Z"/><path class="cls-8" d="M96.5,19.16l-.07-.42c.23-.1,0-.48.3-.53.12,0,.23-.12.36-.05-.06.29-.22.59.15.8-.07,0-.12.14-.23.1-.32-.33-.34.13-.51.2s0,0,0-.06S96.49,19.16,96.5,19.16Z"/><path class="cls-9" d="M92.64,35.28l.2.21c0,.27.35.46.21.79s0,.3-.16,0-.19.12-.34.16v-.36a1.34,1.34,0,0,1,0-.69A.27.27,0,0,1,92.64,35.28Z"/><path class="cls-10" d="M88.09,49.84,88,50a.17.17,0,0,1-.18,0c-.08-.06-.06-.2-.17-.25s-.27-.21,0-.35l.4-.25C88.05,49.37,88.36,49.58,88.09,49.84Z"/><path class="cls-11" d="M92.63,35.42c0,.23.1.46-.08.67h-.11c-.16,0-.26-.1-.4-.1,0-.25,0-.48.3-.6h0C92.42,35.51,92.55,35.26,92.63,35.42Z"/><path class="cls-12" d="M81.53,6.09a1.14,1.14,0,0,0-.15.17c0,.12.19.32,0,.36s-.1-.25-.21-.34-.24-.11-.34-.21a.23.23,0,0,1,0-.26A.83.83,0,0,1,81.53,6.09Z"/><path class="cls-13" d="M78.88,4.73c-.14.12-.21.36-.47.13S78.15,5,78,5c.16-.16.06-.38.13-.55C78.4,4.45,78.57,4.77,78.88,4.73Z"/><path class="cls-14" d="M92,36c.18-.18.26.08.4.1,0,.25.07.57-.29.7-.13,0,0,.16-.1.21a.08.08,0,0,1-.11,0l0-.52c.28-.11,0-.32.08-.47Z"/><path class="cls-15" d="M92.83,35.5a.92.92,0,0,1,.33-.89c0-.08.07-.14.16-.12a.16.16,0,0,1,.12.21c-.22.06-.25.23-.29.41A.53.53,0,0,1,92.83,35.5Z"/><path class="cls-16" d="M75.31,3.4c.33.12.83-.07.9.5a.13.13,0,0,1,0,.19.09.09,0,0,1,0,0C76,4.2,76.1,3.85,75.9,4a0,0,0,0,1,0-.06c-.11-.13-.27-.11-.41-.13s-.22,0-.3-.15S75.23,3.45,75.31,3.4Z"/><path class="cls-17" d="M93.34,33.39c-.09.18-.2.06-.3,0-.25-.11-.18-.3-.11-.49a.58.58,0,0,0,.47-.21C93.66,33,93.44,33.18,93.34,33.39Z"/><path class="cls-18" d="M96.19,15.81a.78.78,0,0,1,.21.77.28.28,0,0,0-.4,0c0-.14-.29-.25,0-.4s.06-.28.23-.31C96.2,15.85,96.19,15.83,96.19,15.81Z"/><path class="cls-19" d="M94.89,22.22a.7.7,0,0,0-.07-.37c-.11-.24,0-.36.29-.35s.09.29.11.45l-.13.19C95.05,22.22,95,22.29,94.89,22.22Z"/><path class="cls-20" d="M97.51,13.72c.12.26,0,.46-.13.67-.08,0-.18,0-.25,0-.33-.19-.09-.36,0-.53s.12-.22.27-.24A.13.13,0,0,1,97.51,13.72Z"/><path class="cls-21" d="M85.31,7.37c-.06-.34-.26-.13-.42-.11a.45.45,0,0,1,0-.46l.73.47C85.54,7.39,85.42,7.38,85.31,7.37Z"/><path class="cls-22" d="M92,37.67h-.06a.16.16,0,0,1,0-.13c0-.11.1-.22.25-.22s.24.1.27.25a2.5,2.5,0,0,1,0,.67c-.23-.09.09-.49-.29-.48C92.08,37.75,92.05,37.7,92,37.67Z"/><path class="cls-23" d="M61.15,40.94c.05-.32.27-.18.44-.15,0,0,.19,0,.1.13s-.23.28-.45.19S61.09,41.05,61.15,40.94Z"/><path class="cls-24" d="M97.79,17l-.2.1A.21.21,0,0,1,97.4,17a1,1,0,0,0-.07-.45c0-.22.09,0,.15-.05a.13.13,0,0,1,.19,0c.15.14,0,.35.11.51Z"/><path class="cls-25" d="M74.22,3.39s-.12,0-.14,0c-.16.29-.16.29-.48.1a.08.08,0,0,1,0-.13C73.82,3.13,74,3.23,74.22,3.39Z"/><path class="cls-26" d="M96.34,8.28c.34,0,.28.18.26.38a.39.39,0,0,1-.1.08c-.16,0-.2.31-.43.21a.43.43,0,0,1,0-.45C96.16,8.4,96.21,8.29,96.34,8.28Z"/><path class="cls-27" d="M95.41,20.84h.08a.68.68,0,0,1-.2.59c-.1.06-.12,0-.18-.07a.27.27,0,0,1,0-.09C95,21,95.11,20.84,95.41,20.84Z"/><path class="cls-28" d="M65,51.33c.12.14.32.23.3.47-.15,0-.13.29-.33.18C65.12,51.77,64.79,51.54,65,51.33Z"/><path class="cls-22" d="M92.93,32.92c.15.14,0,.35.11.49,0,.09,0,.24-.15.18S92.69,33.09,92.93,32.92Z"/><path class="cls-29" d="M93.34,33.39c0-.23.15-.44.06-.68.1,0,.26-.22.24.08S93.64,33.3,93.34,33.39Z"/><path class="cls-30" d="M89,58.28c.1-.09,0-.3.16-.31s.27.13.32.3,0,0,0,.07,0,0,0,0A.44.44,0,0,1,89,58.28Z"/><path class="cls-22" d="M96.41,16.59c.12.05.24-.12.36,0a4.67,4.67,0,0,1-.08.52.19.19,0,0,1-.21.16c-.11,0-.06-.13-.07-.21s0-.26,0-.4A.19.19,0,0,0,96.41,16.59Z"/><path class="cls-31" d="M96.49,8.64l.11,0c0,.2.33.36.08.59h-.06a.52.52,0,0,1-.34-.1C96.19,8.92,96.41,8.81,96.49,8.64Z"/><path class="cls-32" d="M73.63,3.39l0,.13a1.25,1.25,0,0,0-.24.16c-.08.07-.14.16-.25.09s.15-.17,0-.27a.21.21,0,0,1,0-.28l.1,0a.15.15,0,0,1,.12.12C73.41,3.45,73.52,3.41,73.63,3.39Z"/><path class="cls-33" d="M60.54,40.55l.1-.11c.23,0,.36.09.31.31s-.24.11-.38,0a.09.09,0,0,1,0-.07A.14.14,0,0,1,60.54,40.55Z"/><path class="cls-34" d="M67.19,52.92c.12.06.25.12.36,0s.15,0,.14.13-.08.26-.25.21-.21.14-.34,0S67.24,53,67.19,52.92Z"/><path class="cls-35" d="M96.19,23.57l.16-.32c.18.08.11.24.17.34-.13.07-.12.19-.12.31s-.1.15-.18.1-.08-.18,0-.29Z"/><path class="cls-36" d="M96.08,24.7c.21.28.09.51-.09.82-.21-.33,0-.57,0-.82Z"/><path class="cls-37" d="M64.86,42.58c-.17.23-.35.35-.59.09C64.46,42.56,64.62,42.33,64.86,42.58Z"/><path class="cls-38" d="M95.92,24c.14.11,0,.27.08.4a.14.14,0,0,1,.06.12.11.11,0,0,1-.09.09c-.29-.05-.28-.27-.28-.49S95.79,24,95.92,24Z"/><path class="cls-39" d="M97.1,10.22c.12-.12.32-.22.19-.45.32,0,.06.46.39.42,0,.1-.07.16-.16.13A1,1,0,0,0,97.1,10.22Z"/><path class="cls-14" d="M90.56,43.51c-.12-.19-.31-.4.09-.51.1,0,.19-.08.28,0S90.6,43.29,90.56,43.51Z"/><path class="cls-40" d="M89.74,44.51c0-.12-.33-.24,0-.35s-.06-.29.09-.4.09.2.2.24-.16.18-.08.3S89.86,44.48,89.74,44.51Z"/><path class="cls-1" d="M66.86,53l0,0c-.1.06-.12.26-.3.19s-.12-.08,0-.13,0-.46.3-.33h0C66.86,52.79,66.92,52.86,66.86,53Z"/><path class="cls-41" d="M73.41,54l-.07-.36c.33.1.6.18.36.59l0,0,0,0A.2.2,0,0,0,73.41,54Z"/><path class="cls-42" d="M83.7,61.25c.14-.08-.06-.32.16-.34,0,0,.09.14.14.22a.9.9,0,0,1-.19.51C83.68,61.52,83.75,61.37,83.7,61.25Z"/><path class="cls-43" d="M65.92,3.72c0,.09,0,.27-.14.26s-.38,0-.38-.27A.37.37,0,0,1,65.92,3.72Z"/><path class="cls-44" d="M77.49,4.8c0-.16-.14-.2-.2-.31.23-.24.43-.16.65.1C77.69,4.49,77.58,4.63,77.49,4.8Z"/><path class="cls-14" d="M80.85,5.81v.27c.05,0,0,.08,0,.11-.36-.17-.36-.46-.29-.78.19,0,.15.16.12.29S80.79,5.77,80.85,5.81Z"/><path class="cls-22" d="M83.23,7.8c.4-.19.28.3.49.37h0c-.27.15-.48.12-.56-.22A.2.2,0,0,1,83.23,7.8Z"/><path class="cls-45" d="M96.78,18.36c-.11,0-.19-.06-.12.11s0,.29-.23.27a.67.67,0,0,1,.16-.59C96.79,18.09,96.89,18.13,96.78,18.36Z"/><path class="cls-46" d="M95.8,20.05c-.09,0-.18.14-.3.09s-.07-.13-.09-.19a.28.28,0,0,1,.17-.31h0A.71.71,0,0,1,95.8,20.05Z"/><path class="cls-47" d="M93.44,34.7c0-.18-.14-.21-.28-.09L93,34.43a.08.08,0,0,1,.13,0c.18.05.29-.1.46-.13C93.61,34.45,93.71,34.65,93.44,34.7Z"/><path class="cls-42" d="M90.67,40.87a.24.24,0,0,1,.16-.22c.18,0,.35-.11.52,0a.23.23,0,0,1,0,.3h0a.27.27,0,0,1-.25,0C91,40.6,90.82,40.92,90.67,40.87Z"/><path class="cls-48" d="M69.17,43.53c.09-.26.28-.31.51-.41C69.63,43.44,69.58,43.67,69.17,43.53Z"/><path class="cls-49" d="M62.72,41.24h.11c0,.15.09.28.09.42-.2-.06-.46.1-.6-.17C62.41,41.34,62.67,41.47,62.72,41.24Z"/><path class="cls-50" d="M97.49,15.42l-.17-.52a.24.24,0,0,1,.11-.21.17.17,0,0,1,.12,0c.06,0,.1.07,0,.14S97.65,15.24,97.49,15.42Z"/><path class="cls-7" d="M93.51,51c.09,0,.21-.16.21.07s-.08.17-.19.19-.43.22-.39-.2C93.26,51,93.4,51.05,93.51,51Z"/><path class="cls-51" d="M96.7,21.43c-.1,0-.22.17-.28,0s-.1-.4.17-.48C96.69,21.09,96.85,21.23,96.7,21.43Z"/><path class="cls-52" d="M97.58,11.42a.5.5,0,0,0,0-.13c0-.1-.28,0-.16-.19s.18-.06.28,0,.09,0,.14,0,.1.19,0,.28-.06.09-.1.13Z"/><path class="cls-53" d="M92,37.67l.14.09a1.76,1.76,0,0,0-.18.59h-.31c-.11-.15,0-.23.11-.3S92,37.82,92,37.67Z"/><path class="cls-54" d="M92.43,37.57c-.09-.07-.13-.21-.28-.2s0,0,0,0l0,0c.14,0,0-.38.3-.18S92.52,37.42,92.43,37.57Z"/><path class="cls-55" d="M96.79,16.58c0-.21-.12-.52.3-.49C97.07,16.3,97.14,16.57,96.79,16.58Z"/><path class="cls-56" d="M63.43,42.23c.12.05.26-.18.38,0s0,.21-.08.28c-.27.18-.17-.19-.3-.21s0,0,0-.06Z"/><path class="cls-57" d="M86.3,57.57c0-.13,0-.25.14-.31s.28.05.4.13a.17.17,0,0,1,.06.18C86.7,57.67,86.5,57.55,86.3,57.57Z"/><path class="cls-58" d="M85.5,59.27c0,.07,0,.14.09.17s-.1.12-.18.11,0,.28-.19.19-.1-.26,0-.39S85.35,59.12,85.5,59.27Z"/><path class="cls-59" d="M62.92,41.65a.43.43,0,0,1-.09-.42c.14-.08.24-.06.3.1v.1C62.9,41.35,63.26,41.84,62.92,41.65Z"/><path class="cls-60" d="M91.16,40c0-.26-.17-.61.27-.71.07.15-.12.25-.07.39s0,.26-.12.32h-.08Z"/><path class="cls-61" d="M63.78,47.19c.1.25-.06.28-.25.28H63.2C63.45,47.48,63.54,47.16,63.78,47.19Z"/><path class="cls-62" d="M68.68,44.87c-.12.18-.26.16-.4,0l-.18-.27C68.35,44.64,68.5,44.8,68.68,44.87Z"/><path class="cls-63" d="M71,53.41h.09c.07-.11.21,0,.3-.1.15.18.47,0,.57.25a.07.07,0,0,1,0,.06.28.28,0,0,1-.3-.12C71.42,53.48,71.16,53.67,71,53.41Z"/><path class="cls-64" d="M76.2,4.09V3.9a.58.58,0,0,1,.59.22c0,.11,0,.2-.16.08S76.36,4.09,76.2,4.09Z"/><path class="cls-36" d="M96.5,19.16v.1c.13.25-.19.22-.2.38C96.16,19.38,96.13,19.18,96.5,19.16Z"/><path class="cls-9" d="M67.69,53l-.14-.13c0-.09-.29-.13,0-.27,0,.17.24.07.35.17s.13.12.07.23S67.77,53.06,67.69,53Z"/><path class="cls-65" d="M89,45.88l.11-.19c.27,0,0,.26.19.29s.16.3-.12.3C89,46.18,89.16,46,89,45.88Z"/><path class="cls-66" d="M88.61,48.55c-.16-.1-.29-.24-.22-.42s.18,0,.27,0S88.72,48.43,88.61,48.55Z"/><path class="cls-67" d="M63.43,42.23a.14.14,0,0,0,0,.09c-.09,0-.17.08-.28,0s-.22,0-.18-.16.13-.19.26-.09Z"/><path class="cls-68" d="M96,9.06,95.8,9c0-.13-.26-.28,0-.4L96,8.35c.18.17,0,.38,0,.56A.17.17,0,0,1,96,9.06Z"/><path class="cls-69" d="M74.72,3.48a.22.22,0,0,1-.34.13c-.12-.07,0-.12,0-.19s.07-.17.16-.16A.18.18,0,0,1,74.72,3.48Z"/><path class="cls-70" d="M95.71,52.32c-.16,0-.19.16-.31.2-.12-.26.3-.24.26-.47,0,0,.17-.07.22,0S95.84,52.29,95.71,52.32Z"/><path class="cls-71" d="M95.63,19.63h0c-.26-.21-.27-.41,0-.6l.09.11c.11.12,0,.18-.07.26Z"/><path class="cls-72" d="M91.24,40l.12-.32c.18,0,.12.11.1.19s.13.17.06.28S91.19,40.27,91.24,40Z"/><path class="cls-73" d="M69.05,53.45c-.19.06-.29.27-.5.14a.14.14,0,0,1,0-.11C68.68,53.36,68.81,53.2,69.05,53.45Z"/><path class="cls-74" d="M97.69,12.13c-.07-.11-.09-.25-.22-.32s.09-.25.21-.15S97.81,12,97.69,12.13Z"/><path class="cls-75" d="M96.34,8.28l-.13.18c-.11,0-.14-.11-.19-.19s.11-.27.24-.26S96.32,8.18,96.34,8.28Z"/><path class="cls-76" d="M95.31,8.35c-.62.08-.08-.34-.21-.48a.32.32,0,0,1,.21.2A.19.19,0,0,1,95.31,8.35Z"/><path class="cls-77" d="M66,52.22l.2.22c0,.19-.06.34-.29.34C65.85,52.57,66.08,52.42,66,52.22Z"/><path class="cls-78" d="M95.21,28.16c.15-.06.24-.19.39-.4a.54.54,0,0,1-.37.61C95.15,28.31,95.16,28.24,95.21,28.16Z"/><path class="cls-79" d="M94.63,24.52a.34.34,0,0,1,.09-.51C94.63,24.17,95.11,24.43,94.63,24.52Z"/><path class="cls-80" d="M90.49,46.07c0-.2-.2-.39,0-.64A.93.93,0,0,1,90.49,46.07Z"/><path class="cls-51" d="M91.36,41v-.3c.14,0,.07-.26.28-.25C91.55,40.59,91.69,40.88,91.36,41Z"/><path class="cls-81" d="M94.23,32.22a1,1,0,0,1-.24.52l-.09-.42c0-.14.09-.16.2-.17A.27.27,0,0,1,94.23,32.22Z"/><path class="cls-82" d="M97.49,18.46l-.21.24-.06,0,.22-.68c.17.17,0,.32,0,.46Z"/><path class="cls-27" d="M68.17,43.21c.15.19-.13.32-.09.49-.07-.18-.34-.39.1-.48Z"/><path class="cls-83" d="M90.06,44.3c.16-.15.27-.37.57-.36-.12.17-.32.24-.34.44a.15.15,0,0,1-.23,0l0,0A.1.1,0,0,1,90.06,44.3Z"/><path class="cls-54" d="M93.15,34.4l-.13,0-.26-.15c.1-.05.19-.17.32-.14S93.3,34.27,93.15,34.4Z"/><path class="cls-84" d="M96.78,18.36c0-.15,0-.21-.19-.21l.09-.09c.07,0,.1-.15.21-.09s.22,0,.2.19Z"/><path class="cls-85" d="M96.89,18l-.21.09c0-.18-.08-.39.07-.58C97,17.61,96.9,17.8,96.89,18Z"/><path class="cls-3" d="M86.9,57.57l-.13-.11a.28.28,0,0,1,.13-.29.37.37,0,0,1,.19.41c0,.07,0,.13-.11.12S86.92,57.61,86.9,57.57Z"/><path class="cls-1" d="M90.84,6.88c-.13.09-.25,0-.36,0l.36-.3C90.94,6.63,90.65,6.77,90.84,6.88Z"/><path class="cls-86" d="M69.27,43a.56.56,0,0,1,.11-.41c.2-.06.26,0,.2.21S69.46,43.08,69.27,43Z"/><path class="cls-87" d="M94.81,27.92c0-.15-.17.08-.19-.1s.1-.18.2-.22.17,0,.16.09S95,27.91,94.81,27.92Z"/><path class="cls-55" d="M90.93,43l-.28,0,0-.29s.07,0,.1,0C91,42.75,91.09,42.82,90.93,43Z"/><path class="cls-88" d="M89.14,46.28c.14-.06.15-.17.12-.3a.13.13,0,0,1,.19-.08c.14.08,0,.19,0,.28s-.13.23-.29.2Z"/><path class="cls-89" d="M97.29,19.15a.17.17,0,0,1,0,.33c-.18.09-.18-.09-.2-.21S97.17,19.09,97.29,19.15Z"/><path class="cls-90" d="M93.43,29.26c0-.17-.06-.36.19-.41C93.92,29.15,93.54,29.14,93.43,29.26Z"/><path class="cls-91" d="M89.46,58.38v-.11l.5.1c-.08.12-.27.14-.31.3s-.11-.16-.19-.21Z"/><path class="cls-1" d="M96,8.27l.19.19-.12.5S96,9,96,9v-.6A.31.31,0,0,1,96,8.27Z"/><path class="cls-92" d="M90.79,50.21c-.19,0-.32.19-.51.11C90.4,50.1,90.53,50,90.79,50.21Z"/><path class="cls-93" d="M97.68,10.92c-.29,0-.19-.26-.3-.38h.32c0,.1,0,.16.11.2A.17.17,0,0,1,97.68,10.92Z"/><path class="cls-59" d="M94.41,51.62c0,.12.24.15.11.32a1.28,1.28,0,0,0-.26-.2c-.09-.05-.19-.09-.1-.2S94.32,51.63,94.41,51.62Z"/><path class="cls-94" d="M92.64,32.43c.08-.1,0-.25.2-.31s.22,0,.16.14S92.85,32.56,92.64,32.43Z"/><path class="cls-95" d="M93.53,51.23l.19-.19c.13,0,.27.05.2.18S93.66,51.35,93.53,51.23Z"/><path class="cls-96" d="M97.67,12.84c-.35-.19.09-.34,0-.52C98,12.51,97.73,12.67,97.67,12.84Z"/><path class="cls-97" d="M96.7,21.43,96.59,21c.17,0,.22.18.29.28S97,21.56,96.7,21.43Z"/><path class="cls-5" d="M95.11,21.35l.18.07c.16.2.09.37-.07.53-.16-.12.11-.34-.11-.45Z"/><path class="cls-88" d="M94.81,29.64c.17,0,.21.08.12.25s-.16.22-.3.06C94.66,29.83,94.68,29.7,94.81,29.64Z"/><path class="cls-9" d="M89.46,47.16c.14.24.16.4-.06.54A.57.57,0,0,1,89.46,47.16Z"/><path class="cls-98" d="M96.49,22.12a.19.19,0,0,1-.09-.2c.1-.06.08-.34.23-.23S96.58,22,96.49,22.12Z"/><path class="cls-36" d="M87.17,58.29c-.21.12-.31,0-.42-.1a.07.07,0,0,1,0-.12C87,58,87,58.18,87.17,58.29Z"/><path class="cls-99" d="M87.59,57.86c.08-.11.16-.19.3-.08s-.19.25-.31.25S87.59,57.92,87.59,57.86Z"/><path class="cls-85" d="M81.75,6.78c-.06-.13.15-.26,0-.39.26,0,.19.34.4.39h0A.29.29,0,0,1,81.75,6.78Z"/><path class="cls-100" d="M83.66,6.59c.15,0,.28,0,.33.16s-.06.09-.13.1C83.62,6.9,83.73,6.69,83.66,6.59Z"/><path class="cls-101" d="M95.31,8.35V8.07h.2a.23.23,0,0,1,.1.19l-.2.2Z"/><path class="cls-102" d="M95.81,8.58c-.14.13.12.27,0,.4-.21-.07-.29-.19-.2-.41S95.74,8.56,95.81,8.58Z"/><path class="cls-103" d="M89.19,50.05c0,.58-.35.09-.51.18,0-.2.17-.16.29-.09Z"/><path class="cls-104" d="M84.53,7.41l.17.25-.18.11c0-.09-.13-.09-.2-.11h0C84.35,7.54,84.26,7.34,84.53,7.41Z"/><path class="cls-105" d="M92.14,37.29a.25.25,0,0,1,0,.08l-.2.21c-.09,0,0-.15-.1-.2l.09-.41H92c.06.05,0,.12.09.18Z"/><path class="cls-106" d="M97.48,17.27c.23.22,0,.37-.06.56a.67.67,0,0,1,.07-.57Z"/><path class="cls-107" d="M71.84,53.91c.09,0,.16-.14.26-.07s-.09.19,0,.29c-.13.09-.19,0-.26-.09A.09.09,0,0,1,71.84,53.91Z"/><path class="cls-108" d="M90.06,44.3l0,.12c-.1.08,0,.32-.26.28l0-.19c0-.15.08-.23.23-.21Z"/><path class="cls-109" d="M70.51,53.76c.1.05.25,0,.21.17a.2.2,0,0,1-.12.12.23.23,0,0,1-.21-.18S70.47,53.79,70.51,53.76Z"/><path class="cls-110" d="M97.59,57.27a.63.63,0,0,0,.1-.4l.32.4Z"/><path class="cls-111" d="M91.52,40.11a.35.35,0,0,1-.06-.28c.12.05.17-.08.29-.18C91.72,39.88,91.73,40.05,91.52,40.11Z"/><path class="cls-112" d="M67,42.94l.3,0a.29.29,0,0,1,0,.09.12.12,0,0,0,0,.14c-.07.09-.18.08-.28.09A.15.15,0,0,1,67,43,.09.09,0,0,1,67,42.94Z"/><path class="cls-113" d="M91.19,50.17c.13,0,.28.07.29.23s-.11.12-.14.11S91.17,50.32,91.19,50.17Z"/><path class="cls-114" d="M67.29,43.13c-.1-.05-.08-.09,0-.14s.26-.05.32.11c-.06,0,0,.29-.16.07S67.35,43.13,67.29,43.13Z"/><path class="cls-74" d="M96.2,23.71c0,.14,0,.27.2.19,0,.14-.05.3-.19.23S96,23.86,96.2,23.71Z"/><path class="cls-1" d="M92.25,50.86v-.12c.08-.05-.08-.24.13-.21,0,0,.18,0,.12.08S92.48,50.93,92.25,50.86Z"/><path class="cls-115" d="M74.71,42.52h.23c.22.28-.17.15-.19.27C74.61,42.72,74.76,42.61,74.71,42.52Z"/><path class="cls-116" d="M94.11,32.21c-.08,0-.18,0-.21.11-.2-.29.08-.3.23-.38A.2.2,0,0,1,94.11,32.21Z"/><path class="cls-117" d="M97.19,14.39c.06-.08.13,0,.19,0s.26.07.29.23-.12,0-.16.09l0,0c-.09.05-.16,0-.22,0a.36.36,0,0,1-.11-.14A.11.11,0,0,1,97.19,14.39Z"/><path class="cls-72" d="M97.77,10.75c-.18,0-.16-.1-.07-.21s.32.07.29.3C97.89,10.89,97.83,10.83,97.77,10.75Z"/><path class="cls-111" d="M83.23,7.8a0,0,0,0,1,0,.06c-.1,0-.2,0-.29,0l-.11-.3a.21.21,0,0,1,.3,0C83.23,7.62,83.23,7.71,83.23,7.8Z"/><path class="cls-79" d="M83.14,7.57h-.31a.25.25,0,0,1-.06-.2c0-.08.07-.13.16-.11S83.16,7.41,83.14,7.57Z"/><path class="cls-17" d="M82.93,7.26l-.1.11c-.19.08-.2-.12-.3-.19h0c-.06-.19.12-.14.2-.2S82.87,7.17,82.93,7.26Z"/><path class="cls-63" d="M82.73,7l-.2.2c-.08,0-.19.09-.23,0s.1-.12.15-.19S82.64,6.92,82.73,7Z"/><path class="cls-118" d="M85.9,7.18h-.2c0-.12,0-.28.08-.35S86,6.9,86,7C86,7,85.84,7,85.9,7.18Z"/><path class="cls-119" d="M93,31.34c-.11,0-.26.12-.34,0s.07-.15.16-.17S93,31.23,93,31.34Z"/><path class="cls-120" d="M71.56,3.49c-.16,0-.23-.06-.31-.17s.18-.12.28-.07S71.6,3.41,71.56,3.49Z"/><path class="cls-121" d="M70.56,3.12l-.35.25c-.09-.2,0-.29.14-.36C70.38,3.12,70.48,3.1,70.56,3.12Z"/><path class="cls-122" d="M67.89,3c-.14.1,0,.23,0,.37-.18,0-.12-.27-.27-.31C67.66,2.92,67.77,3,67.89,3Z"/><path class="cls-123" d="M85.5,59.27l-.29.08c0-.12-.07-.19-.12-.28C85.32,58.93,85.42,59.08,85.5,59.27Z"/><path class="cls-124" d="M89.47,58.46c.14,0,.08.19.19.21s.15.18.07.3A.48.48,0,0,1,89.47,58.46Z"/><path class="cls-15" d="M93.51,51c-.1.18-.22.17-.37.06C93.21,50.72,93.4,51.06,93.51,51Z"/><path class="cls-125" d="M90.67,50.73c-.17,0-.25-.06-.31-.19C90.64,50.31,90.59,50.62,90.67,50.73Z"/><path class="cls-107" d="M98,13.5c0-.23.09-.34.28-.54C98.22,13.21,98.21,13.38,98,13.5Z"/><path class="cls-126" d="M69.58,42.82a.23.23,0,0,0-.2-.21c.21-.28.28,0,.39.11Z"/><path class="cls-1" d="M97.79,11.53a.13.13,0,0,1,.1-.13c.12,0,.25.06.32.18C98.06,11.67,97.93,11.56,97.79,11.53Z"/><path class="cls-59" d="M90.65,42.32c.06-.08.17-.21.21-.14a.23.23,0,0,1-.1.36C90.69,42.49,90.6,42.44,90.65,42.32Z"/><path class="cls-127" d="M94.89,22.22l.2-.08.1.11a.26.26,0,0,1-.16.13l-.1.14C95,22.42,94.79,22.33,94.89,22.22Z"/><path class="cls-128" d="M95,22.38l.16-.13c0,.13.22.23.06.33S95.12,22.44,95,22.38Z"/><path class="cls-101" d="M93.41,33.8c0-.17,0-.29.17-.36C93.65,33.6,93.63,33.71,93.41,33.8Z"/><path class="cls-16" d="M92.44,33.12a.35.35,0,0,1-.16.37.44.44,0,0,1,.14-.48Z"/><path class="cls-129" d="M93.44,51.82a.29.29,0,0,1-.21-.18c.16,0,.22-.15.36-.17C93.68,51.65,93.45,51.69,93.44,51.82Z"/><path class="cls-130" d="M97.77,10.75l.22.09c.11.14,0,.14-.11.19l-.2-.11Z"/><path class="cls-22" d="M68.19,53.23c.14,0,.18,0,.19.12s0,.15-.07.13a1.23,1.23,0,0,1-.26-.12Z"/><path class="cls-131" d="M88.66,46.56c-.06-.13-.13-.26.1-.28C88.79,46.39,89,46.58,88.66,46.56Z"/><path class="cls-132" d="M70.82,53.93a1.44,1.44,0,0,1,.2-.11c.11,0,.13,0,.13.14a.11.11,0,0,1-.12.12S70.94,54,70.82,53.93Z"/><path class="cls-1" d="M69.88,43.17c.19,0,.27.08.39.19C70,43.47,70,43.29,69.88,43.17Z"/><path class="cls-1" d="M96.39,52.58a.32.32,0,0,1-.35-.06v-.05C96.18,52.41,96.31,52.41,96.39,52.58Z"/><path class="cls-107" d="M97.36,8.85c-.09-.19,0-.25.14-.34C97.5,8.63,97.53,8.77,97.36,8.85Z"/><path class="cls-7" d="M67,43l0,.23c-.13.13-.22-.1-.37-.07Z"/><path class="cls-101" d="M88.48,50.05a.11.11,0,0,1,0-.08c.14,0,.28-.07.42-.09S89,50,89,50A.5.5,0,0,1,88.48,50.05Z"/><path class="cls-81" d="M72.23,56.71c0-.06-.18,0-.14-.14a.2.2,0,0,1,.16-.07c.08,0,.09.06.09.13S72.33,56.75,72.23,56.71Z"/><path class="cls-48" d="M70.55,43l.06-.14c.13-.08.13,0,.13.09v.27C70.59,43.15,70.56,43.06,70.55,43Z"/><path class="cls-133" d="M66.2,42.92v-.11c.1.11.32.22,0,.31,0,0-.15,0-.13-.07S66.16,43,66.2,42.92Z"/><path class="cls-47" d="M96.3,17.87c0,.16-.11.21-.25.24-.07-.17.11-.22.14-.34S96.32,17.77,96.3,17.87Z"/><path class="cls-134" d="M88.48,50.05H89v.1c-.1,0-.21,0-.29.09S88.47,50.2,88.48,50.05Z"/><path class="cls-135" d="M96.42,16.67c.4.14,0,.27,0,.4h0a.56.56,0,0,1-.1-.33Z"/><path class="cls-136" d="M70.74,42.9l-.13-.09c.06-.07.11-.21.16-.22s.13.15.17.24Z"/><path class="cls-137" d="M72.83,45.89h-.1c0-.08-.16-.14-.07-.24a.19.19,0,0,1,.18,0C73,45.7,72.84,45.8,72.83,45.89Z"/><path class="cls-138" d="M62.45,41c.13.12.22-.26.33,0s-.2.13-.21.27Z"/><path class="cls-139" d="M68.6,43.93c.09,0,.07.08.09.13s0,.14-.1.16-.1,0-.11-.11S68.55,44,68.6,43.93Z"/><path class="cls-102" d="M96,24.5v-.1c.12,0,.32-.08.35.12s-.15.07-.24.09S96,24.53,96,24.5Z"/><path class="cls-123" d="M89.07,47l.1.2-.27.18C88.84,47.16,88.87,47,89.07,47Z"/><path class="cls-45" d="M94.41,28.89c.12.13,0,.21,0,.3C94.25,29.07,94.34,29,94.41,28.89Z"/><path class="cls-140" d="M94.81,29.64l-.18.31C94.58,29.78,94.55,29.62,94.81,29.64Z"/><path class="cls-49" d="M94.48,30.57c0,.07-.06.15-.15.15s-.08,0,0-.1a.36.36,0,0,1,.11-.13S94.47,30.51,94.48,30.57Z"/><path class="cls-141" d="M95.92,24l-.23.12c-.09-.11-.06-.18.07-.25S95.89,23.92,95.92,24Z"/><path class="cls-142" d="M96.8,22.92l-.21-.11c0-.1.11-.18.21-.12S96.9,22.84,96.8,22.92Z"/><path class="cls-8" d="M92.55,34.4l-.09.12a2.09,2.09,0,0,1-.08-.23c0-.06-.09-.15,0-.18s.1.07.15.1Z"/><path class="cls-1" d="M92.13,37.16,92,37l0-.3.06.11Z"/><path class="cls-143" d="M92.52,38.59a.14.14,0,0,1,.11.15.08.08,0,0,1-.12.08s-.06-.1-.06-.16S92.47,38.56,92.52,38.59Z"/><path class="cls-136" d="M61.45,39.85l.11.11c-.07.09-.15.22-.26.14A.15.15,0,0,1,61.45,39.85Z"/><path class="cls-144" d="M62.34,40.54c.11.11.21.23.09.4C62.15,40.86,62.42,40.66,62.34,40.54Z"/><path class="cls-59" d="M61.15,40.94l.09.17c-.09,0-.21.21-.27,0S61,40.9,61.15,40.94Z"/><path class="cls-145" d="M91.11,41h.25c-.09.11-.23.17-.2.38C91,41.18,91.12,41.07,91.11,41Z"/><path class="cls-73" d="M90.65,41.72c.08,0,.07-.21.19-.13s.15.15,0,.24-.14-.11-.24-.12Z"/><path class="cls-146" d="M62.47,42.47a.5.5,0,0,1,.11-.1.09.09,0,0,1,.14.07c0,.05.05.15-.07.12A.6.6,0,0,1,62.47,42.47Z"/><path class="cls-79" d="M95.62,19.41l.07-.26c.08,0,.17-.14.19-.06S95.78,19.36,95.62,19.41Z"/><path class="cls-74" d="M65.23,42.52h.06c-.05.1,0,.24-.16.27s-.1-.05-.1-.08S65.16,42.58,65.23,42.52Z"/><path class="cls-147" d="M71.43,42.81c0-.13-.17-.15-.3-.23.32-.15.36.06.44.23Z"/><path class="cls-148" d="M94,27c-.1,0-.21.19-.27,0s.18-.15.27-.24v.11s0,0,0,.06S94,27,94,27Z"/><path class="cls-149" d="M97.48,18.46l.18-.14c0,.11.07.24,0,.29s-.11-.08-.12-.15Z"/><path class="cls-28" d="M90.06,44.4l.23,0c.09.2-.12.19-.19.28Z"/><path class="cls-150" d="M89.57,45l.2-.31C89.79,45.1,89.79,45.1,89.57,45Z"/><path class="cls-39" d="M72.14,45.19v.3s0,0,0,.07l0,0h0s-.06,0-.08,0a2.23,2.23,0,0,1-.09-.32c0-.28.1-.09.17-.07Z"/><path class="cls-151" d="M72.14,45.59v-.1c.12.06.18-.12.36-.06C72.4,45.57,72.38,45.77,72.14,45.59Z"/><path class="cls-152" d="M94,27v-.09c.07,0,.17,0,.19.09s0,.18-.11.2S94,27,94,27Z"/><path class="cls-153" d="M90.14,46.94s-.06,0-.06-.08,0-.13.08-.13.07,0,.08.07A.1.1,0,0,1,90.14,46.94Z"/><path class="cls-5" d="M95.61,8.26a.16.16,0,0,1-.1-.19c.09,0,.15-.2.24-.07S95.71,8.2,95.61,8.26Z"/><path class="cls-154" d="M84.32,7.66c0,.17-.08.26-.27.27,0-.21.18-.2.28-.27Z"/><path class="cls-8" d="M97.78,17l.23-.16c-.05.28-.05.28-.22.15Z"/><path class="cls-155" d="M91.67,50.28c.23,0,.29.11.16.3C91.65,50.53,91.77,50.35,91.67,50.28Z"/><path class="cls-1" d="M95.12,51.64l.08,0c.11,0,.13,0,.11.11s0,.16-.08.21-.08,0-.12,0h0A.21.21,0,0,1,95.12,51.64Z"/><path class="cls-56" d="M95.11,51.93h.12l0,.27c0,.08-.09.06-.13,0S95.09,52,95.11,51.93Z"/><path class="cls-156" d="M96.69,53.22a.28.28,0,0,1-.11-.24c-.06-.08-.08-.14.06-.15s.13,0,.11.1A2.47,2.47,0,0,0,96.69,53.22Z"/><path class="cls-157" d="M70.24,54.09c0,.11,0,.14-.1.15s-.08-.09-.07-.14,0-.14.06-.13S70.22,54.06,70.24,54.09Z"/><path class="cls-158" d="M97.42,15.78c0-.13,0-.24.07-.32.05.12.16.23.08.36S97.47,15.8,97.42,15.78Z"/><path class="cls-159" d="M71.83,56a1,1,0,0,1-.21.08c-.1,0-.09-.06-.08-.12a.14.14,0,0,1,.1-.07Z"/><path class="cls-134" d="M85.9,7.18c0-.13-.06-.24.14-.2h.08C86,7,86.12,7.28,85.9,7.18Z"/><path class="cls-114" d="M97.28,57.91l.12-.14c.14.07.13.19,0,.26S97.31,58,97.28,57.91Z"/><path class="cls-160" d="M84.62,60.24h.08l-.12.47C84.45,60.51,84.56,60.38,84.62,60.24Z"/><path class="cls-70" d="M97.51,14.71c0-.11.09-.09.16-.09s.15.19.08.33l-.16-.14Z"/><path class="cls-161" d="M87.59,6.2c0,.13,0,.18-.07.18s-.06-.09-.06-.15-.06-.14.05-.13S87.58,6.19,87.59,6.2Z"/><path class="cls-8" d="M85.68,6a1.2,1.2,0,0,1,.11.17.14.14,0,0,1-.09.08c-.08,0-.16,0-.14-.14S85.63,6.06,85.68,6Z"/><path class="cls-162" d="M75,3.61c-.07,0-.17,0-.2-.1s.17-.19.31-.09S75.1,3.58,75,3.61Z"/><path class="cls-54" d="M75.6,66.27l.19-.46v.5Z"/><path class="cls-13" d="M97.49,13.41V13.3c.25.13.22.28,0,.42h0A.21.21,0,0,1,97.49,13.41Z"/><path class="cls-1" d="M95.21,28.16l0,.21c0,.06-.08.2-.13.13S95.06,28.24,95.21,28.16Z"/><path class="cls-163" d="M61.59,41.68c-.09.06-.16.15-.29.1C61.37,41.65,61.45,41.6,61.59,41.68Z"/><path class="cls-142" d="M94.26,51.22c0,.11,0,.11-.08.1a.7.7,0,0,1-.14,0s0-.11.06-.11A.75.75,0,0,1,94.26,51.22Z"/><path class="cls-164" d="M95.31,51.73l-.11-.11c.08-.1.21-.19.29-.06S95.38,51.68,95.31,51.73Z"/><path class="cls-161" d="M95.12,51.64v.29l-.22,0,.11-.15C95,51.67,95.05,51.63,95.12,51.64Z"/><path class="cls-94" d="M66.86,53l-.07-.25c.14,0,.21.06.2.2S66.92,53,66.86,53Z"/><path class="cls-107" d="M97.29,19.15a.2.2,0,0,0-.2.12c-.13,0-.11-.12-.08-.21l.23-.1A1.33,1.33,0,0,1,97.29,19.15Z"/><path class="cls-165" d="M75,3.61l.11-.19c.06,0,.12-.12.19,0l-.1.19a.13.13,0,0,1-.2,0Z"/><path class="cls-166" d="M90.65,42.32l.11.22v.18h-.1l-.12-.39Z"/><path class="cls-167" d="M71.65,53.5a.42.42,0,0,1,.3.12.2.2,0,0,1-.2.09s-.06,0-.1,0Z"/><path class="cls-168" d="M71.65,53.72h.1c0,.08,0,.17.09.2V54C71.43,54.11,71.73,53.81,71.65,53.72Z"/><path class="cls-169" d="M67.37,3.32c.1,0,.24.09.16.21s-.12,0-.16-.06Z"/><path class="cls-90" d="M98.33,15.52a.21.21,0,0,1-.08.29c-.15,0,0-.13,0-.2S98.3,15.55,98.33,15.52Z"/><path class="cls-164" d="M72.14,45.2c0-.1.07-.19.18-.12a.27.27,0,0,1,.07.16c-.1.09-.16-.05-.25-.05Z"/><path class="cls-170" d="M73.13,3.22V3.5l-.21,0A.3.3,0,0,1,73.13,3.22Z"/><path class="cls-171" d="M94.11,32.21l0-.27c.28,0,.07.19.1.28Z"/><path class="cls-168" d="M73.35,3.32l-.12-.12c.06-.11.15-.11.21,0S73.43,3.31,73.35,3.32Z"/><path class="cls-151" d="M72.06,45.59h.08v.19c-.13,0-.31.06-.31-.18C71.91,45.59,72,45.74,72.06,45.59Z"/><path class="cls-1" d="M97.4,17a.17.17,0,0,1,.19.09l-.11.2h0C97.37,17.19,97.4,17.08,97.4,17Z"/><path class="cls-77" d="M62.33,42c-.08,0-.09,0-.09-.09s0-.13.11-.1a.78.78,0,0,1,.15.1Z"/><path class="cls-172" d="M96.3,16.75c.12.08.11.21.1.33C96.3,17,96.11,16.93,96.3,16.75Z"/><path class="cls-12" d="M89.87,50.44c-.22.1-.17-.09-.21-.18C89.81,50.22,89.87,50.29,89.87,50.44Z"/><path class="cls-111" d="M73.94,43.14c0-.15.15-.12.21-.18.12.13,0,.14-.09.18Z"/><path class="cls-20" d="M72.15,56.17c0-.19.09-.27.26-.26C72.4,56.06,72.31,56.12,72.15,56.17Z"/><path class="cls-173" d="M97.67,16.47h-.19c0-.11,0-.22.14-.22S97.68,16.39,97.67,16.47Z"/><path class="cls-174" d="M71.44,45.79c.07,0,.17,0,.17.1s0,.06,0,.06-.16-.08-.21-.17Z"/><path class="cls-175" d="M73.9,46.09l0-.13c0-.14.08-.17.19-.18v.1c0,.17,0,.2-.18.21Z"/><path class="cls-164" d="M90,58.35v-.26h.12v.26Z"/><path class="cls-167" d="M95,7c.08-.08.18-.08.33-.06A.24.24,0,0,1,95,7Z"/><path class="cls-176" d="M91.27,7c-.11,0-.23.19-.33,0A.21.21,0,0,1,91.27,7Z"/><path class="cls-177" d="M97.16,20.54c0,.07.09.1.1.15s0,.06-.07.1-.08-.06-.09-.09A.87.87,0,0,1,97.16,20.54Z"/><path class="cls-154" d="M95.61,6.83l-.16.09a.3.3,0,0,1,0-.13s.06,0,.09-.08Z"/><path class="cls-178" d="M90.36,6.58a.17.17,0,0,1-.1-.18c.09,0,.2-.13.28,0S90.42,6.52,90.36,6.58Z"/><path class="cls-179" d="M93.5,59.86a.7.7,0,0,1,.1.19c0,.05,0,.09-.08.06a.14.14,0,0,1-.08-.1A.87.87,0,0,1,93.5,59.86Z"/><path class="cls-9" d="M98.05,14.72c-.08-.18-.09-.28,0-.36h.09Z"/><path class="cls-88" d="M91.39,43.05a.28.28,0,0,1,0-.35s.07,0,.08,0S91.42,42.91,91.39,43.05Z"/><path class="cls-136" d="M96.3,17.87l-.11-.1.07-.15.2.19Z"/><path class="cls-62" d="M67.79,44.56s-.05.11-.07.12a.1.1,0,0,1-.12-.11.38.38,0,0,1,0-.13Z"/><path class="cls-180" d="M63.26,42.69s.16,0,.15.12a.19.19,0,0,1-.11,0c-.06,0-.17,0-.16-.13S63.19,42.66,63.26,42.69Z"/><path class="cls-181" d="M66.4,43.22l.25.12C66.51,43.47,66.43,43.37,66.4,43.22Z"/><path class="cls-182" d="M95.27,27.16s0-.09,0-.11a.8.8,0,0,1,.13-.13.47.47,0,0,1,0,.09A.15.15,0,0,1,95.27,27.16Z"/><path class="cls-183" d="M93.34,36.09c0-.07-.07-.11-.07-.14s.06-.07.09-.1.06.06.06.1S93.38,36,93.34,36.09Z"/><path class="cls-67" d="M96,21.91l.13.13c-.09.09-.2.14-.27,0S95.92,21.94,96,21.91Z"/><path class="cls-184" d="M63.44,47.73V48l-.26-.25A.23.23,0,0,1,63.44,47.73Z"/><path class="cls-7" d="M96,24.5l.11.11,0,.09H96l0-.09Z"/><path class="cls-1" d="M69.66,8.86a7.33,7.33,0,0,0,1.48.05c.22,0,.39,0,.5.19A2.37,2.37,0,0,0,74,10a12.62,12.62,0,0,1,2.38,0c.58,1.17,1.13,2.35,1.75,3.49a1.89,1.89,0,0,1-.17,2,.23.23,0,0,1-.19.07c-.22-.08-.24-.28-.28-.47-.21,0,0,.26-.19.31a.27.27,0,0,1-.26,0,.28.28,0,0,1-.1-.09c-.06-.1-.12-.2-.27-.16s-.12.23-.27.21a1.27,1.27,0,0,1-.34,0l-.26-.06a.71.71,0,0,0-.55-.1c-.23,0-.41.3-.66.09a.92.92,0,0,0-.4-.19c-.17-.07-.3-.35-.52-.09a.63.63,0,0,1-.27,0c-.23,0-.28-.23-.37-.38a.84.84,0,0,0-.9.11c-.1.13-.44,0-.35.34a.92.92,0,0,1-.16.27.43.43,0,0,1-.25.19,1.69,1.69,0,0,1-.32,0c-.17,0-.31-.2-.48.1s-.49.13-.75,0c-.09,0-.15-.12-.26-.1a.77.77,0,0,0-.31.19,1.63,1.63,0,0,0-.42.7.63.63,0,0,0-.1.36.43.43,0,0,1,0,.19c-.27.14,0,.45-.19.61a.29.29,0,0,1-.13,0s-.14-.18-.15,0a.24.24,0,0,1-.06.17c-.58.2-.62.76-.82,1.21,0,.09-.1.17,0,.26a1.28,1.28,0,0,1,0,.19.39.39,0,0,0,0,.24c.23.43.23.43-.24.52,0,0-.12,0-.14-.05-.54-.85-1.38-.81-2.23-.8-3.51,0-7,0-10.54,0-.15,0-.29,0-.43,0a.42.42,0,0,0-.17-.38c.19-.14,0-.22,0-.32a2.6,2.6,0,0,0,.06-1,3.11,3.11,0,0,0,.55-1.23c.22,0,.2-.28.33-.4L54.6,16c.11-.15-.05-.19-.11-.26.35-.3,0-.68.13-1a3,3,0,0,1,.18-.5l.1-.08c-.09-.2.17-.22.2-.36-.18-.26-.07-.51.14-.76s.4-.38.39-.68c.18-.09,0-.25.08-.37.24-.18-.08-.44.1-.62s.14,0,.18-.1l.1-.11c.09-.08.2-.13.29-.21a.14.14,0,0,1,0-.07,11.7,11.7,0,0,0,3.18.15c2.59,0,5.18,0,7.78,0a.41.41,0,0,0,.34-.11Z"/><path class="cls-1" d="M59.17,8.55l-.08-.09c0-.2.15-.25.27-.29s.29-.1.18-.35.17-.23.32-.27a.09.09,0,0,1,.11,0c.05.07-.07.14,0,.21a.2.2,0,0,0,.21.2c0,.11-.08.2-.05.31a.18.18,0,0,1-.06.18c-.16.11-.11.54-.49.33A.55.55,0,0,0,59.17,8.55Z"/><path class="cls-1" d="M53.63,17.7a.9.9,0,0,1,0,1c0,.1-.1.13-.18.18a.41.41,0,0,1-.31,0l-.2,0a.18.18,0,0,1,0-.14c.14-.17,0-.57.43-.5.19-.07.32-.12.11-.36S53.48,17.68,53.63,17.7Z"/><path class="cls-1" d="M53.23,23c0,.27.39.6-.11.81-.14,0-.19.06-.21.19a.21.21,0,0,1-.29,0,.14.14,0,0,1,0-.15c0-.2-.23-.32-.17-.53s.47,0,.61-.28A.15.15,0,0,1,53.23,23Z"/><path class="cls-185" d="M55.11,32.31l.2-.08a.41.41,0,0,1,.07.11.85.85,0,0,1,0,.32c0,.05,0,.09,0,.13a1.12,1.12,0,0,1-.1.31c-.24.08-.45.35-.75.16,0-.3.63-.42.24-.83h.12C54.92,32.36,55,32.4,55.11,32.31Z"/><path class="cls-186" d="M53.33,18.25c-.17,0-.23.09-.21.23s0,.29-.19.31a.22.22,0,0,1-.18-.11c.06-.17-.24-.35,0-.51S53.18,17.94,53.33,18.25Z"/><path class="cls-1" d="M62.25,5.3c0,.29-.23.43-.35.64s-.12-.08-.16-.17C61.82,5.52,61.8,5.15,62.25,5.3Z"/><path class="cls-1" d="M55.11,32.31c0,.19-.17.1-.27.1L54.73,32a.51.51,0,0,1,.07-.24.34.34,0,0,1,.1-.16c.09,0,.2-.09.21.09Z"/><path class="cls-187" d="M54.8,14.2a.37.37,0,0,1-.18.5c-.14,0-.32,0-.28-.21S54.57,14.17,54.8,14.2Z"/><path class="cls-1" d="M57.28,36.19c.39.18.37.46.21.79a.56.56,0,0,1-.3-.5C57.23,36.39,57.23,36.28,57.28,36.19Z"/><path class="cls-188" d="M55.77,34c.06.16-.16.4.13.5a.25.25,0,0,1-.23.1c-.11-.11-.36-.05-.36-.3s0-.14.09-.19Z"/><path class="cls-1" d="M55.23,33.1a.45.45,0,0,1,0-.36c.08-.14.22-.1.34-.13h.06c.11.15.33.28.09.48S55.39,32.93,55.23,33.1Z"/><path class="cls-1" d="M56.62,36c.3,0,.5,0,.38.41,0,0,0,0,0,.06l0,0a2.71,2.71,0,0,0-.37-.21C56.32,36.16,56.62,36.08,56.62,36Z"/><path class="cls-189" d="M53.12,23.12c-.12.38-.4.3-.68.22l.2-.23a.58.58,0,0,1,.21-.23C53,22.89,53.05,23,53.12,23.12Z"/><path class="cls-190" d="M53.24,28.28a.31.31,0,0,1,0,.08.11.11,0,0,1-.18,0c-.17-.05-.17-.17-.11-.31s0-.05,0-.06,0,0,0,0l.07,0c.12-.06.24-.13.34,0S53.3,28.18,53.24,28.28Z"/><path class="cls-191" d="M53,28.36h.18l.2.1a.18.18,0,0,1,.1.09c0,.37-.34.15-.49.26s-.1-.12,0-.14C53.42,28.59,53,28.46,53,28.36Z"/><path class="cls-192" d="M53.35,22.12c-.17.14.26.4-.1.51-.32-.15-.4-.31,0-.49A.11.11,0,0,1,53.35,22.12Z"/><path class="cls-193" d="M54.41,31l.46.13c.05.17-.14.24-.16.37s0,.12-.1.1c0-.17-.13-.26-.19-.39A.15.15,0,0,1,54.41,31Z"/><path class="cls-1" d="M63.42,4.79c-.1.16-.26.09-.4.1,0-.17-.32,0-.19-.23a.29.29,0,0,1,.3-.12C63.08,4.8,63.32,4.71,63.42,4.79Z"/><path class="cls-194" d="M52.33,24.79c.1.1.28.16.25.33s-.15.07-.24.07h0c-.13-.15-.39-.26-.11-.5C52.29,24.7,52.3,24.75,52.33,24.79Z"/><path class="cls-195" d="M53.72,29.35h.12a1.06,1.06,0,0,1,.39.21c0,.1,0,.21-.11.28-.06-.14-.21-.07-.31-.12s-.23,0-.18-.18Z"/><path class="cls-196" d="M56,34.89c-.17.13,0,.26,0,.4s-.2.06-.29.11c-.2-.13,0-.27,0-.41S55.83,34.65,56,34.89Z"/><path class="cls-197" d="M54.41,31v.21c-.73-.21.2-.41,0-.62C54.76,30.78,54.5,30.91,54.41,31Z"/><path class="cls-198" d="M53.72,28.85V29c0,.11-.1.22-.23.26a.22.22,0,0,1-.19-.05c-.35-.08-.13-.22,0-.27A1.43,1.43,0,0,1,53.72,28.85Z"/><path class="cls-199" d="M53.63,29.55l.18.18c0,.26-.26.22-.42.31C53.45,29.87,53.38,29.64,53.63,29.55Z"/><path class="cls-1" d="M59.37,39c.14-.06.33-.19.42,0s-.1.25-.24.33C59.63,39.06,59.3,39.14,59.37,39Z"/><path class="cls-1" d="M56,34.89c-.15-.1-.21.1-.33.1l0-.39c0-.11.15-.07.23-.1C55.92,34.64,56.18,34.7,56,34.89Z"/><path class="cls-200" d="M59.06,8.55c0,.22.38.58-.22.58C58.78,8.89,59,8.73,59.06,8.55Z"/><path class="cls-201" d="M52.84,20c0-.14-.14-.17-.24-.23s0-.1,0,0l0,0a.16.16,0,0,1,.22,0c.19,0,.27.12.39.3Z"/><path class="cls-1" d="M58.28,9.45l-.22.43c-.17-.07.1-.34-.19-.33C57.93,9.38,58.06,9.35,58.28,9.45Z"/><path class="cls-202" d="M53.22,20.63l.11.33c-.2,0-.31-.2-.48-.28C52.94,20.45,53.1,20.7,53.22,20.63Z"/><path class="cls-203" d="M59.45,39.33l0,.14-.06.36C59.1,39.53,59.11,39.47,59.45,39.33Z"/><path class="cls-204" d="M53.35,22.12l-.13,0v0a.11.11,0,0,1,0-.18.49.49,0,0,1,.39-.12C53.64,22,53.55,22.12,53.35,22.12Z"/><path class="cls-205" d="M53.62,21.13c.12.14,0,.27,0,.41-.11-.05-.24-.05-.22-.25S53.52,21.15,53.62,21.13Z"/><path class="cls-1" d="M59.85,39.92V40c.11.23-.11.29-.24.55C59.61,40.22,59.49,40,59.85,39.92Z"/><path class="cls-206" d="M60,7.58l-.09,0c-.06-.28.19-.21.31-.27,0,.1.19.21,0,.3A.17.17,0,0,1,60,7.58Z"/><path class="cls-1" d="M54.51,16.07c0,.18,0,.48-.33.4C54.28,16.33,54.2,16,54.51,16.07Z"/><path class="cls-207" d="M52.61,23.87l0,.11v0c-.12,0-.23.22-.37,0s-.07-.12,0-.17S52.49,24,52.61,23.87Z"/><path class="cls-208" d="M52.65,24v0l.25,0c.05.24-.13.31-.29.27S52.71,24.12,52.65,24Z"/><path class="cls-1" d="M64.41,4.32c0,.2-.16.18-.29.18s-.12-.25.08-.31S64.37,4.24,64.41,4.32Z"/><path class="cls-209" d="M53.41,18.85c0-.11.12-.12.22-.12s0,.22,0,.33h-.19A.16.16,0,0,1,53.41,18.85Z"/><path class="cls-1" d="M61,6.51c-.13.21-.3.19-.48.07,0-.18.27,0,.29-.2h0Z"/><path class="cls-210" d="M53.51,29.17a.37.37,0,0,1,.22-.22.35.35,0,0,1,0,.41h-.2A.13.13,0,0,1,53.51,29.17Z"/><path class="cls-211" d="M53,25.38c0,.22,0,.34-.28.31C52.5,25.29,53,25.54,53,25.38Z"/><path class="cls-212" d="M53.12,23.12c-.15,0-.21-.11-.29-.2s-.07,0-.1,0a.48.48,0,0,1,.4-.09l.1.19Z"/><path class="cls-205" d="M53.41,18.85l0,.21c-.12,0-.22.16-.35.06s0-.12.06-.19S53.31,18.87,53.41,18.85Z"/><path class="cls-1" d="M57.79,37.17h.11c.16,0,.3,0,.28.2v.12C58.08,37.33,57.71,37.52,57.79,37.17Z"/><path class="cls-211" d="M53,26.27a.77.77,0,0,1,.11.51C52.94,26.64,52.76,26.5,53,26.27Z"/><path class="cls-213" d="M52.85,19.74h-.22l.12-.41C53,19.42,52.91,19.58,52.85,19.74Z"/><path class="cls-1" d="M60.16,39.66c.13,0,.31-.06.2.19l-.3.18Z"/><path class="cls-214" d="M58.87,40c0-.1.07-.13.16-.11s.18,0,.15.13-.13.06-.2.09S58.89,40,58.87,40Z"/><path class="cls-215" d="M55.4,34.11l-.09.19c-.07-.08-.24.09-.24-.06S55.26,34.08,55.4,34.11Z"/><path class="cls-216" d="M55.72,35.4c.08-.09.23,0,.29-.11a.17.17,0,0,1,.09.19C55.92,35.72,55.83,35.48,55.72,35.4Z"/><path class="cls-1" d="M52.75,18.68a.21.21,0,0,1,.18.11v.1c-.06.21-.11,0-.16,0S52.71,18.75,52.75,18.68Z"/><path class="cls-1" d="M53.52,28.55l-.1-.09c.35-.16.38,0,.3.29C53.62,28.72,53.68,28.52,53.52,28.55Z"/><path class="cls-1" d="M52.72,25.75c0,.08.12.15,0,.24l-.36-.13C52.42,25.61,52.63,25.87,52.72,25.75Z"/><path class="cls-217" d="M56.38,10.91c0,.17-.13.22-.29.21,0-.13,0-.29.11-.37S56.31,10.86,56.38,10.91Z"/><path class="cls-1" d="M54.49,15.7a1.28,1.28,0,0,1,.28.16s0,.14,0,.17-.11,0-.15-.07Z"/><path class="cls-218" d="M53.23,21.93v.18h-.37C52.93,21.87,53.1,21.94,53.23,21.93Z"/><path class="cls-1" d="M55.71,12c.06.14.2.3-.08.37a.26.26,0,0,0,0-.28C55.51,11.91,55.66,12,55.71,12Z"/><path class="cls-219" d="M56,11.23c0,.12-.11.09-.18.1s-.2.15-.25,0,.11-.11.19-.13Z"/><path class="cls-220" d="M58.85,8.69a1,1,0,0,1-.23.12s-.08-.08-.12-.12a.44.44,0,0,1,.19-.12S58.78,8.63,58.85,8.69Z"/><path class="cls-221" d="M52.94,21.5c0,.07,0,.15-.08.14a.14.14,0,0,1-.14-.16.16.16,0,0,1,.07-.12C52.89,21.34,52.93,21.41,52.94,21.5Z"/><path class="cls-222" d="M58.87,7.88c0,.09,0,.17-.11.19s-.1-.08-.12-.13.08-.07.12-.11S58.87,7.78,58.87,7.88Z"/><path class="cls-223" d="M60.54,40.55v.18l-.33-.14C60.31,40.39,60.43,40.5,60.54,40.55Z"/><path class="cls-224" d="M56.34,36.34c.2.12.36.12.31.3s-.06.06-.09.09Z"/><path class="cls-225" d="M60.35,39.84c.09,0,.2,0,.23.11s0,.28-.17.24S60.36,40,60.35,39.84Z"/><path class="cls-1" d="M61.64,5.81v.08c-.26,0-.24-.22-.38-.36C61.51,5.5,61.5,5.75,61.64,5.81Z"/><path class="cls-226" d="M52.84,20a.38.38,0,0,1-.06.43c-.19-.18-.08-.31.06-.43Z"/><path class="cls-227" d="M53.53,20.25a.18.18,0,0,1-.21.19c-.09,0-.09-.11,0-.18S53.45,20.22,53.53,20.25Z"/><path class="cls-228" d="M52.33,24.79l-.1-.1c0-.19.12-.12.21-.14a.07.07,0,0,1,.09.07C52.52,24.74,52.38,24.72,52.33,24.79Z"/><path class="cls-1" d="M54,30.44l.11.1c-.17-.05-.19.16-.33.22C53.78,30.56,53.8,30.43,54,30.44Z"/><path class="cls-229" d="M54.61,31.64l.1-.1.19.09v.19c-.14.13-.2,0-.27-.09A.28.28,0,0,1,54.61,31.64Z"/><path class="cls-230" d="M54.62,31.73l.27.09c0,.11-.08.16-.16.21S54.62,31.84,54.62,31.73Z"/><path class="cls-1" d="M58.2,37.77a.26.26,0,0,1,.27.21C58.39,37.9,58.08,38.12,58.2,37.77Z"/><path class="cls-1" d="M57,10.43h-.34c-.14-.13,0-.18.08-.17S57,10.21,57,10.43Z"/><path class="cls-231" d="M52.34,25.19v.46c-.24-.22-.12-.34,0-.46Z"/><path class="cls-232" d="M52.93,27.27c.17.12.1.21,0,.3C52.72,27.45,52.75,27.35,52.93,27.27Z"/><path class="cls-1" d="M55.1,13.76l-.2.36C54.63,13.82,55,13.84,55.1,13.76Z"/><path class="cls-233" d="M64.41,4.32l-.21-.13c0-.09,0-.21.1-.24s0,.17.12.18Z"/><path class="cls-234" d="M51.93,25.24c0,.08,0,.13-.11.14s-.06,0-.09-.05l.12-.14C51.92,25.15,51.92,25.21,51.93,25.24Z"/><path class="cls-235" d="M52.38,27.21c0-.11.08-.13.15-.13a.1.1,0,0,1,.09.13s-.08,0-.11,0A.4.4,0,0,1,52.38,27.21Z"/><path class="cls-211" d="M52.93,28a.14.14,0,0,0,0,.09c-.09,0-.2.07-.26,0s0-.13.08-.16S52.82,28,52.93,28Z"/><path class="cls-236" d="M52.73,22.91h.1c0,.13-.08.18-.19.19l-.14-.17Z"/><path class="cls-1" d="M57.39,9.76l-.21.28C57.27,10,57.05,9.67,57.39,9.76Z"/><path class="cls-237" d="M54.72,32.43l-.2,0s.14-.34.2,0Z"/><path class="cls-238" d="M52.42,20.09c0,.07,0,.13-.09.14s-.07,0-.11,0l.12-.14S52.41,20,52.42,20.09Z"/><path class="cls-235" d="M53.51,29.17v.18c-.23.11-.2-.06-.21-.19Z"/><path class="cls-197" d="M53.67,13.07l-.09-.1s.08-.05.11,0a.12.12,0,0,1,.1.08S53.77,13.09,53.67,13.07Z"/><path class="cls-1" d="M60.76,6.38c-.1,0-.21,0-.18-.14s0-.11.06-.09.11.14.11.23Z"/><path class="cls-1" d="M58.45,38.3c-.12.12-.2.17-.33.11C58.18,38.29,58.27,38.26,58.45,38.3Z"/><path class="cls-239" d="M57,36.48a.24.24,0,0,0,0-.08c.2.08.15-.18.28-.21s.07.23-.09.29Z"/><path class="cls-240" d="M55.93,36.12c0-.16.12-.17.22-.2s.06.09.05.1A.28.28,0,0,1,55.93,36.12Z"/><path class="cls-241" d="M79.57,17.56c0-.4-.4-.17-.5-.38l.27-.31a.52.52,0,0,1,.32.09c.39,0,.18.32.2.51S79.7,17.63,79.57,17.56Z"/><path class="cls-242" d="M76.5,30.84c-.17-.2-.14-.31.12-.4s.3-.06.27.18S76.81,31.08,76.5,30.84Z"/><path class="cls-243" d="M83,7.87c.09-.18.19-.12.29,0,0,.36.31.22.49.3,0,.27-.29.2-.44.27C83.25,8.2,82.79,8.22,83,7.87Z"/><path class="cls-156" d="M81,24.68c-.24.05-.22-.41-.51-.26a1.22,1.22,0,0,1,.1-.34,1,1,0,0,1,.21-.25V24a1.23,1.23,0,0,1,.22.24.42.42,0,0,1,.08.18Z"/><path class="cls-49" d="M97.49,13.41v.3c-.18-.06-.12.25-.3.19-.07.11-.14.2-.29.14a.21.21,0,0,1-.06-.2.45.45,0,0,1,.15-.21c.1-.1.16-.25.3-.31S97.39,13.45,97.49,13.41Z"/><path class="cls-244" d="M96.89,14l.3-.1c.12.17-.33.33,0,.49v.12c0,.3-.18.22-.34.08l0,0a.17.17,0,0,1-.14-.12c.07-.08.2-.14.13-.29S96.81,14,96.89,14Z"/><path class="cls-245" d="M80.85,21.64c.05-.12.12-.25,0-.38.08,0,.21-.22.22,0a1.13,1.13,0,0,0,.2.46c0,.18-.1.34-.34.19C80.91,21.82,80.81,21.75,80.85,21.64Z"/><path class="cls-246" d="M86.9,57.17c0,.14-.08.2-.13.29s-.16-.24-.33-.2,0-.23.06-.29.09.14.19.11C86.73,57.2,86.84,57.14,86.9,57.17Z"/><path class="cls-76" d="M92,36c0,.16.56.42-.08.47,0-.13.09-.28-.1-.36s-.07-.09,0-.14S92,36,92,36Z"/><path class="cls-247" d="M96,9h.09c.25,0,.12-.4.4-.32,0,.2-.21.3-.18.5s-.07.06-.11,0-.21.1-.2-.09Z"/><path class="cls-248" d="M85.09,7.87c.15-.35.38-.23.62-.11C85.5,7.8,85.34,8.13,85.09,7.87Z"/><path class="cls-249" d="M82.53,7.18l.3.19v.2h-.47C82.31,7.38,82.56,7.34,82.53,7.18Z"/><path class="cls-250" d="M81,21.81c.18.23.2-.09.32-.09.23.29-.1.34-.21.49-.09,0-.13-.12-.2-.18v-.19C80.87,21.79,80.9,21.78,81,21.81Z"/><path class="cls-251" d="M96.34,15.29H96.1c-.12-.07-.11-.15,0-.17s.2-.07.18-.21,0-.12.09-.14a.3.3,0,0,1,.16.22C96.55,15.14,96.54,15.28,96.34,15.29Z"/><path class="cls-252" d="M96.5,15c-.1,0-.11-.12-.12-.2a.11.11,0,0,1,0-.16l.27-.15.14.12a1.23,1.23,0,0,1,0,.19.41.41,0,0,0-.19.2h0S96.54,15,96.5,15Z"/><path class="cls-253" d="M96.89,14l-.09.2c-.27-.19-.17-.38,0-.58.08,0,.13.08.1.17Z"/><path class="cls-254" d="M96.4,14.64l0,.16-.09.11-.1,0a1.67,1.67,0,0,1-.1-.4C96.36,14.22,96.38,14.43,96.4,14.64Z"/><path class="cls-255" d="M81,24.3c-.17,0-.2-.17-.2-.32s.23-.17.35,0,0,.17,0,.26A.13.13,0,0,1,81,24.3Z"/><path class="cls-248" d="M80.05,19.45c-.2,0-.22-.19-.29-.32s0-.06,0-.08L80,19A.54.54,0,0,1,80.05,19.45Z"/><path class="cls-244" d="M94.47,23.43a.56.56,0,0,1,.09-.68A.9.9,0,0,1,94.47,23.43Z"/><path class="cls-243" d="M81.45,23c0-.18,0-.34.2-.38s.22.06.08.17a.25.25,0,0,0-.08.21A.14.14,0,0,1,81.45,23Z"/><path class="cls-256" d="M88.05,57.43c-.26.07-.49.08-.62-.22C87.72,57.06,87.82,57.44,88.05,57.43Z"/><path class="cls-257" d="M96.9,13.79l-.1-.17c0-.1-.4-.19,0-.31a.37.37,0,0,1,.16.09.48.48,0,0,1,.19.29Z"/><path class="cls-96" d="M97.13,13.69c-.06-.11-.29-.08-.22-.28a.08.08,0,0,1,.08-.07l.3,0Z"/><path class="cls-126" d="M95.41,20.84a.36.36,0,0,0-.3.42c-.3-.23,0-.36.1-.53s.09-.07.14,0A.39.39,0,0,1,95.41,20.84Z"/><path class="cls-258" d="M80.05,27.68c-.18-.22-.14-.31.23-.48l0,.17a.65.65,0,0,1-.09.23A.2.2,0,0,1,80.05,27.68Z"/><path class="cls-259" d="M80.36,19.76c0,.27-.2.23-.37.16,0-.19.23-.14.28-.27Z"/><path class="cls-256" d="M97,13.34l-.08.07-.13-.1a.44.44,0,0,1,.07-.17c.07-.08.19-.21.26-.05s-.14.07-.18.15,0,0,0,0Z"/><path class="cls-134" d="M79.66,17c-.12,0-.25.05-.32-.09l.32-.24Z"/><path class="cls-32" d="M80.86,22c.13,0,.2,0,.2.18l-.11.32C80.78,22.39,80.89,22.2,80.86,22Z"/><path class="cls-256" d="M79.57,17.56a.44.44,0,0,1,.29-.09c.13.23,0,.3-.2.28Z"/><path class="cls-260" d="M87.79,49.92,88,50c0,.39-.21.2-.38.15l0,0,0,0C87.72,50,87.74,50,87.79,49.92Z"/><path class="cls-261" d="M80.06,27.57l.18-.2c0,.1.31.11.12.3S80.14,27.68,80.06,27.57Z"/><path class="cls-262" d="M80.06,27.57l.3.1a.32.32,0,0,1-.31.2c-.39-.06.14-.13,0-.19Z"/><path class="cls-76" d="M81.75,6.78h.4C82,7.1,81.88,7,81.75,6.78Z"/><path class="cls-154" d="M94.58,22.54c0-.14-.13-.29.06-.39C94.73,22.31,94.58,22.42,94.58,22.54Z"/><path class="cls-85" d="M80.85,22.82c-.11,0-.23,0-.26-.12a.14.14,0,0,1,.06-.12c.16-.1.16.18.3.13Z"/><path class="cls-263" d="M75.8,31.63c0-.1-.18-.19,0-.27s.24,0,.26.15Z"/><path class="cls-248" d="M96.2,15.87c0,.41,0,.41-.23.31C96,16,96,15.86,96.2,15.87Z"/><path class="cls-264" d="M87.79,49.92l-.13.12a.32.32,0,0,0,0-.3l.09-.15C87.86,49.67,87.76,49.82,87.79,49.92Z"/><path class="cls-265" d="M74.29,32.2c.15-.36.3-.12.45,0Z"/><path class="cls-253" d="M78.47,29.54l-.11-.16c.07-.07.11-.21.26-.12S78.76,29.58,78.47,29.54Z"/><path class="cls-175" d="M78.62,29.26l-.26.12c0-.34.32-.17.42-.33h0a.13.13,0,0,1,0,.18Z"/><path class="cls-266" d="M78.8,29.23l0-.18c.12,0,.28,0,.27.13S78.89,29.23,78.8,29.23Z"/><path class="cls-267" d="M81,24.3l.11-.1.21.16-.22,0Z"/><path class="cls-268" d="M91.85,37.38c.09,0,.09.12.1.2a.14.14,0,0,0,0,.09c-.1,0-.19,0-.23-.1S91.84,37.47,91.85,37.38Z"/><path class="cls-118" d="M81.9,21.81c-.05,0,0,.17-.09.17s0-.07-.06-.12a.13.13,0,0,1,.09-.15C81.91,21.69,81.9,21.75,81.9,21.81Z"/><path class="cls-269" d="M91.76,38.06a.41.41,0,0,0-.11.3c-.21,0-.16-.09-.11-.19S91.57,37.87,91.76,38.06Z"/><path class="cls-270" d="M95.41,20l.09.19,0,.17s-.1,0-.11,0S95.26,20,95.41,20Z"/><path class="cls-96" d="M96.2,9.15h.11c.1,0,.25,0,.31.11C96.42,9.47,96.32,9.27,96.2,9.15Z"/><path class="cls-271" d="M87.49,50.06c0,.08,0,.17-.13.16s-.1-.08-.15-.12l.15-.1C87.42,50,87.48,49.94,87.49,50.06Z"/><path class="cls-266" d="M96.09,14.48c.16.1.1.26.1.4C96.07,14.77,95.9,14.68,96.09,14.48Z"/><path class="cls-272" d="M97.43,12.11c0,.14.23.21.06.34s-.11,0-.13,0S97.4,12.25,97.43,12.11Z"/><path class="cls-273" d="M80.33,28.42c-.06,0-.09.1-.13.11s-.12,0-.13-.11,0-.1.08-.09A1,1,0,0,1,80.33,28.42Z"/><path class="cls-274" d="M91.11,51,91,50.9s.06-.06.1-.07.13,0,.12.1S91.23,51,91.11,51Z"/><path class="cls-74" d="M81.45,23h.2c.1.1,0,.14-.07.16S81.45,23.1,81.45,23Z"/><path class="cls-68" d="M75.39,31.72c0-.06,0-.15,0-.16s.14.08.23.09C75.59,31.85,75.48,31.74,75.39,31.72Z"/><path class="cls-275" d="M76.17,31c-.08,0-.15-.08-.15-.16s.08-.09.1-.08.13.14.16.24Z"/><path class="cls-276" d="M78.14,30.33,78,30C78.16,30.07,78.16,30.07,78.14,30.33Z"/><path class="cls-169" d="M81.46,24.58c-.07.06-.1.1-.14.1a.16.16,0,0,1-.12,0s0-.1,0-.09Z"/><path class="cls-277" d="M79.36,28.86c-.11-.1,0-.2,0-.29C79.71,28.67,79.43,28.76,79.36,28.86Z"/><path class="cls-278" d="M80.84,6.19V6.08c.12,0,.33,0,.3.2Z"/><path class="cls-279" d="M74.51,46.58c-.29,0-.5-.19-.76-.23v0l.07,0C74.08,46.31,74.4,46.19,74.51,46.58Z"/><path class="cls-280" d="M76.89,64.79a.94.94,0,0,1-.54.45l.45-.54C76.88,64.67,76.92,64.7,76.89,64.79Z"/><path class="cls-103" d="M63.86,41.25h.22l.11.26C64,41.48,63.72,41.66,63.86,41.25Z"/><path class="cls-281" d="M70.56,42.59c0,.07,0,.13-.11.09a1.49,1.49,0,0,1-.14-.12s.1-.1.15-.11S70.55,42.52,70.56,42.59Z"/><path class="cls-282" d="M76.89,64.79l-.09-.09c0-.08.1-.24.21-.15S77,64.74,76.89,64.79Z"/><path class="cls-283" d="M77.29,65.4a.27.27,0,0,1,.2-.3c0,.19-.1.23-.21.3Z"/><path class="cls-284" d="M73.94,46.09l.18-.21c.14,0,.11.13,0,.21S74,46.23,73.94,46.09Z"/><path class="cls-285" d="M76.06,47.45,76,47.33a.31.31,0,0,1,.12,0,.65.65,0,0,1,.13,0Z"/><path class="cls-286" d="M67.48,29.16c0,.12.06.2.11.29s.3,0,.19.24l-.09.14c-.08.11-.19.08-.29,0s-.68,0-.41-.49A.35.35,0,0,1,67.48,29.16Z"/><path class="cls-287" d="M67,24.12c.2,0,.16.06.1.17a.61.61,0,0,0-.13.15c-.09.17-.12.45-.41.35s0-.36-.08-.53C66.6,24,66.84,24.18,67,24.12Z"/><path class="cls-30" d="M70.15,31.55c-.43.16-.47-.36-.77-.43-.08,0,0-.2.17-.18C69.92,31,70.07,31.22,70.15,31.55Z"/><path class="cls-288" d="M67,22.21l-.15.13c-.24,0-.49.09-.44-.31.29-.41.29-.41.78-.1h0C67.26,22.1,67.05,22.11,67,22.21Z"/><path class="cls-267" d="M67.19,21.93c-.26,0-.57-.26-.78.1a1.06,1.06,0,0,1,.27-.6c0,.05,0,.16.08.13C67.11,21.45,67.14,21.7,67.19,21.93Z"/><path class="cls-266" d="M68.25,29.54l.17,0a.88.88,0,0,1,0,.28c-.08.09,0,.26-.21.29a.26.26,0,0,1-.12-.19c0-.14-.29-.1-.18-.3l0,0C68,29.52,68.12,29.45,68.25,29.54Z"/><path class="cls-289" d="M67.27,25.16v.15c-.13.05-.22.23-.42.1s0-.14,0-.2C66.94,24.91,67.12,25.13,67.27,25.16Z"/><path class="cls-1" d="M55.22,32.6l.1-.26a1.12,1.12,0,0,1,.32-.12.23.23,0,0,1,0,.39h0C55.48,32.65,55.34,32.72,55.22,32.6Z"/><path class="cls-256" d="M67.18,20.41c-.1.2.06.51-.25.63C67,20.81,66.83,20.51,67.18,20.41Z"/><path class="cls-142" d="M67.48,24.6c.07.1.37,0,.2.29-.08.09-.23,0-.31.11C67.13,24.79,67.3,24.69,67.48,24.6Z"/><path class="cls-290" d="M67.48,29.16l-.49.21c-.23-.19.09-.2.1-.31C67.21,29.1,67.39,29,67.48,29.16Z"/><path class="cls-291" d="M67,24.12c-.14.16-.34.1-.52.14,0-.09-.19-.17,0-.26a.19.19,0,0,1,.27,0Z"/><path class="cls-292" d="M58.18,37.37l-.28-.2c0-.16.1-.28.24-.14S58.5,37.24,58.18,37.37Z"/><path class="cls-136" d="M70.85,31.33v.31c-.36-.05-.24-.29-.19-.5a.07.07,0,0,1,.1,0C70.83,31.16,70.8,31.26,70.85,31.33Z"/><path class="cls-266" d="M67.37,25c0-.3.22,0,.31-.11,0,.15,0,.39-.3.19A.11.11,0,0,0,67.37,25Z"/><path class="cls-261" d="M66.76,26.38c.17.17.15.29-.08.37C66.58,26.6,66.59,26.47,66.76,26.38Z"/><path class="cls-107" d="M68.4,29.85c-.09-.1-.15-.19,0-.28s.18.1.21.2,0,.09-.11.09Z"/><path class="cls-293" d="M54.23,29.57c-.17,0-.33,0-.39-.21C54.07,29.24,54.15,29.4,54.23,29.57Z"/><path class="cls-1" d="M55.5,32c0-.11,0-.24.13-.27a.15.15,0,0,1,.12,0c.06.12,0,.17-.12.23S55.55,32.08,55.5,32Z"/><path class="cls-129" d="M70.75,31.14h-.09L70.58,31c0-.15.1-.22.22-.29.15.12-.06.22,0,.33A.1.1,0,0,1,70.75,31.14Z"/><path class="cls-294" d="M67.4,29.86l.29,0c.06.06.12.14,0,.19A.21.21,0,0,1,67.4,29.86Z"/><path class="cls-295" d="M66.76,24h-.27v-.18c.12,0,.24-.05.35,0A1.23,1.23,0,0,1,66.76,24Z"/><path class="cls-296" d="M55.5,32h.13v.2c-.06.17-.2.13-.32.12v-.11C55.41,32.2,55.5,32.15,55.5,32Z"/><path class="cls-65" d="M67.78,29.69l-.19-.24.29-.12a.11.11,0,0,1,.12,0c0,.13,0,.22-.11.3h0Z"/><path class="cls-1" d="M72.73,32c-.06,0-.14.06-.18,0s0-.15,0-.2a.11.11,0,0,1,.19,0Z"/><path class="cls-297" d="M53.24,28.28a.37.37,0,0,1,.1-.32C53.48,28.12,53.56,28.25,53.24,28.28Z"/><path class="cls-298" d="M68.07,30c.1,0,.1.11.12.19s-.2.05-.23-.07S68,30,68.07,30Z"/><path class="cls-299" d="M72.24,64.9a.62.62,0,0,1,.27-.56c0,.3-.17.41-.27.56Z"/><path class="cls-300" d="M71.63,65.44a.43.43,0,0,1-.14.48C71.4,65.72,71.55,65.59,71.63,65.44Z"/><path class="cls-301" d="M72.92,57.68c-.12-.12-.1-.26,0-.47l.15.37S73,57.67,72.92,57.68Z"/><path class="cls-302" d="M72.92,57.68l.1-.1c0,.15,0,.31-.15.45Z"/><path class="cls-303" d="M71.36,53.31c-.06.16-.2.06-.3.1C71.06,53.07,71.24,53.27,71.36,53.31Z"/><path class="cls-304" d="M72.24,64.9a.39.39,0,0,1-.27.24c0-.18.08-.28.27-.24Z"/><path class="cls-305" d="M65.7,45.69l.34.15c-.18,0-.34.08-.34-.16Z"/><path class="cls-306" d="M72.93,57c0-.09,0-.26,0-.26s.06.09.07.15S73,57,73,57Z"/><path class="cls-188" d="M59.17,8.55c.16,0,.13-.16.25-.19l.15.43C59.44,8.71,59.25,8.72,59.17,8.55Z"/><path class="cls-307" d="M60.06,8.46v-.2s.08,0,.11,0,.14,0,.1.1S60.18,8.53,60.06,8.46Z"/><path class="cls-308" d="M60,7.58h.21a.18.18,0,0,1-.2.19C59.63,7.72,60,7.64,60,7.58Z"/><path class="cls-309" d="M60.18,8.26h-.11c0-.13,0-.2.1-.29C60.58,8.05,60.05,8.17,60.18,8.26Z"/><path class="cls-310" d="M75.9,4c.31-.29.13.25.31.18,0,.18.09.39-.17.48A.64.64,0,0,1,75.9,4Z"/><path class="cls-147" d="M75,3.61l.2,0,.3.14a.17.17,0,0,1,0,.26c-.09,0,0-.16-.19-.09S74.93,3.89,75,3.61Z"/><path class="cls-266" d="M75.51,4V3.73c.2-.12.36-.11.39.17-.11.06-.3,0-.32.18Z"/><path class="cls-311" d="M96.86,14.59c.14.07.26.09.34-.08l.11.11c.08.14,0,.21-.12.27C96.93,15,96.9,14.78,96.86,14.59Z"/><path class="cls-312" d="M96.66,15.73c.08.19,0,.27-.13.38C96.53,16,96.44,15.83,96.66,15.73Z"/><path class="cls-313" d="M96.6,15a.18.18,0,0,1,0-.25c.08-.07.13,0,.19.05S96.83,15.1,96.6,15Z"/><path class="cls-262" d="M96.5,15h.1c0,.15.07.4-.26.29A.33.33,0,0,0,96.5,15Z"/><path class="cls-314" d="M97.19,14.89l.12-.27.17.07a.22.22,0,0,1-.16.21Z"/><path class="cls-315" d="M92.63,35.42c-.11.06-.21.11-.3,0,.21-.3.21-.3.31-.11Z"/><path class="cls-88" d="M68.18,17.77l0,0c.22.43.21.5-.2.43s-.31.07-.42.2c.1.18.37.11.46.3s-.23.16-.18.34-.2.06-.3.09l-.06,0a1,1,0,0,0-.25-.07C67.36,18.25,67.62,17.88,68.18,17.77Z"/><path class="cls-247" d="M73.13,14.48c-.07,0-.16.12-.21.1-.46-.14-.29.12-.15.45-.23-.24-.46-.18-.63-.32s-.13-.27,0-.25C72.49,14.51,72.82,14.28,73.13,14.48Z"/><path class="cls-11" d="M77.78,15.49c-.11.28-.3.12-.47.1a.15.15,0,0,1,0-.21c.17-.13-.3-.35,0-.43s.28.18.36.34S77.75,15.43,77.78,15.49Z"/><path class="cls-136" d="M68.65,17a1.09,1.09,0,0,0,.18.43.25.25,0,0,1,0,.31c-.1-.12-.33.16-.37-.13C68.64,17.42,68.22,17.06,68.65,17Z"/><path class="cls-316" d="M76.11,15.58h-.29c-.07-.07-.17-.1-.21-.19v-.14c0-.14.11-.13.21-.08l.28,0C76.22,15.33,76.1,15.46,76.11,15.58Z"/><path class="cls-136" d="M73.92,15.1c-.2,0-.29.15-.46.23l0-.43h.29C73.82,14.91,74,14.92,73.92,15.1Z"/><path class="cls-241" d="M74.62,15.18c-.22.25-.35,0-.51-.08s0-.1.07-.11S74.57,14.9,74.62,15.18Z"/><path class="cls-317" d="M77.49,14.78c-.39,0-.36-.25-.47-.44C77.37,14.31,77.3,14.62,77.49,14.78Z"/><path class="cls-266" d="M74.18,15l-.07.11c-.06,0-.12.1-.19,0s-.21-.07-.21-.21C73.92,14.66,74.06,14.79,74.18,15Z"/><path class="cls-74" d="M67.58,19.15a.29.29,0,0,1-.11.43c-.1.06-.08-.14-.19-.14v-.18c.08-.1.16-.18.3-.11Z"/><path class="cls-14" d="M77.27,15.38l0,.21c-.07.07.08.25-.12.23s-.17-.1-.07-.21-.06-.2-.05-.31Z"/><path class="cls-160" d="M76.48,15.39l0,0h0s0,0,0-.06,0,0,0,0a.21.21,0,0,0,.09-.2c0-.06,0-.17.08-.17s.08.09.12.14.13,0,.13.13S76.68,15.51,76.48,15.39Z"/><path class="cls-7" d="M75.81,15.18l-.21.09c-.16,0-.28,0-.29-.18A.33.33,0,0,1,75.81,15.18Z"/><path class="cls-106" d="M76.79,15.21l-.1-.12c0-.08.11-.21.21-.17s0,.26.09.38h0C76.89,15.35,76.8,15.37,76.79,15.21Z"/><path class="cls-318" d="M67.59,19.15l-.3.11c-.14-.06,0-.14,0-.2C67.44,18.86,67.55,18.89,67.59,19.15Z"/><path class="cls-266" d="M68.69,15.91c.13-.11,0-.29.1-.47C68.94,15.67,68.89,15.81,68.69,15.91Z"/><path class="cls-16" d="M68.73,16.47c-.07.17.27.15.16.32s-.18,0-.27,0S68.66,16.55,68.73,16.47Z"/><path class="cls-161" d="M76.4,15.32v.09c-.14,0-.2.11-.29.17-.16-.11,0-.25,0-.37A.33.33,0,0,1,76.4,15.32Z"/><path class="cls-136" d="M71.35,15.5c0,.08-.06.18-.17.18a1,1,0,0,1,0-.19C71.22,15.39,71.29,15.36,71.35,15.5Z"/><path class="cls-319" d="M69.56,15.48c0,.22-.15.21-.29.21C69.26,15.47,69.41,15.47,69.56,15.48Z"/><path class="cls-320" d="M68.38,17.58c-.07.13-.13,0-.19,0s0-.11.06-.12S68.37,17.51,68.38,17.58Z"/><path class="cls-321" d="M71.73,15.09c.06.17.13.36-.18.22A.33.33,0,0,1,71.73,15.09Z"/><path class="cls-322" d="M54.89,15.06a.17.17,0,0,1-.06-.23c.13-.07.06.08.1.12S55,15,54.89,15.06Z"/><path class="cls-323" d="M55.22,32.6l.39,0c-.07.23-.25.1-.39.12Z"/><path class="cls-72" d="M68.63,19c.49,0,.49,0,.55.71C68.84,19.56,68.84,19.56,68.63,19Z"/><path class="cls-324" d="M69.27,20.44c0,.18-.24.21-.2.4-.1-.05-.27,0-.29-.17s0-.36.3-.3A.16.16,0,0,1,69.27,20.44Z"/><path class="cls-321" d="M76.79,15.21c0,.08.13.08.21.08,0,.15,0,.31-.21.28s-.36.15-.31-.18C76.64,15.44,76.68,15.25,76.79,15.21Z"/><path class="cls-317" d="M67.89,29.65l.09-.3c0-.08,0-.16.13-.18.3,0,0,.28.14.37Z"/><path class="cls-68" d="M78,16.2a.17.17,0,0,1-.17.18c-.12,0-.18,0-.18-.17a.22.22,0,0,1,.17-.2C78,16,78,16.14,78,16.2Z"/><path class="cls-94" d="M68.89,18.15c0-.22.16-.18.28-.18h0c.09.13,0,.26,0,.39C68.9,18.52,69,18.24,68.89,18.15Z"/><path class="cls-325" d="M67.84,28.81c.21-.17.41-.31.41.16Z"/><path class="cls-326" d="M70.75,31.14l0-.15c.16.05.29-.08.47-.11,0,.29-.34.24-.39.45C70.76,31.29,70.76,31.21,70.75,31.14Z"/><path class="cls-136" d="M67.33,22.24c.07,0,.14.05.13.12a.87.87,0,0,1-.11.32s-.14-.07-.15-.16A.21.21,0,0,1,67.33,22.24Z"/><path class="cls-314" d="M67.88,19.06c-.1-.07-.23-.1-.13-.29s.22,0,.31-.05A.28.28,0,0,1,67.88,19.06Z"/><path class="cls-327" d="M77.78,29.43c0,.23-.13.27-.3.33C77.54,29.51,77.54,29.51,77.78,29.43Z"/><path class="cls-14" d="M67.4,23.61c0,.17-.09.3-.25.31s-.12-.15-.12-.24.14-.06.22-.08A.1.1,0,0,1,67.4,23.61Z"/><path class="cls-31" d="M67.28,23.54c-.13,0-.35,0-.29-.21s.19-.08.3,0A.16.16,0,0,1,67.28,23.54Z"/><path class="cls-328" d="M67.49,23.32l.28-.3c0,.23,0,.37-.19.39Q67.46,23.44,67.49,23.32Z"/><path class="cls-329" d="M68.89,18.15c.08.07.1.25.27.2a.4.4,0,0,1-.27.25Z"/><path class="cls-153" d="M66.89,28.68l.55,0C67.27,28.89,67.12,28.83,66.89,28.68Z"/><path class="cls-15" d="M67.49,23.32l.09.09c0,.15,0,.21-.18.2h-.15l0-.06v-.22Z"/><path class="cls-330" d="M68.73,21.89c0-.1-.23-.17-.1-.31a.13.13,0,0,1,.12,0C68.87,21.68,68.77,21.78,68.73,21.89Z"/><path class="cls-56" d="M80.33,22.33c.1.11.1.21,0,.25s-.23,0-.13-.16S80.24,22.29,80.33,22.33Z"/><path class="cls-51" d="M67.1,26.06a.27.27,0,0,1-.15,0c-.08,0-.15-.06-.14-.15s.06-.06.09-.09Z"/><path class="cls-331" d="M74.14,15.73c-.06,0-.13-.08-.1-.15a.24.24,0,0,1,.12-.14c.09,0,.1,0,.08.1S74.25,15.71,74.14,15.73Z"/><path class="cls-76" d="M68.11,29.17l-.13.18-.1,0c0-.1-.14-.23,0-.3S68,29.15,68.11,29.17Z"/><path class="cls-332" d="M77.16,29.08c0,.06,0,.07-.08.07s-.12-.09-.14-.17.06-.14.11-.1S77.12,29,77.16,29.08Z"/><path class="cls-333" d="M80.33,22.33l-.18.09c0-.08-.12-.17,0-.23S80.32,22.24,80.33,22.33Z"/><path class="cls-166" d="M68.65,22.27c0,.07,0,.12-.07.09s-.17,0-.18-.12,0-.09.08-.09S68.61,22.22,68.65,22.27Z"/><path class="cls-247" d="M67,22.21c0-.17.17-.17.19-.29C67.36,22.17,67.19,22.2,67,22.21Z"/><path class="cls-101" d="M80.3,21.62c.06,0,.15,0,.12.11a.16.16,0,0,1-.1.08c-.06,0-.12,0-.13-.07S80.25,21.65,80.3,21.62Z"/><path class="cls-80" d="M80.25,20.8s0-.13.1-.11.12.07.09.15-.09.08-.16.07S80.21,20.87,80.25,20.8Z"/><path class="cls-334" d="M69.06,20.26c-.08-.12,0-.26.07-.27s.15.13.14.25A.17.17,0,0,1,69.06,20.26Z"/><path class="cls-335" d="M75.61,15.4c.12,0,.21,0,.21.19C75.73,15.55,75.45,15.71,75.61,15.4Z"/><path class="cls-265" d="M67.5,28.15c.14-.11.29-.1.33-.38C67.9,28.16,67.73,28.14,67.5,28.15Z"/><path class="cls-336" d="M67.81,28.44a.14.14,0,0,1-.2-.06C67.72,28.24,67.8,28.45,67.81,28.44Z"/><path class="cls-257" d="M80.85,23.54c0,.07,0,.15-.07.14s-.09-.06-.08-.08a.45.45,0,0,1,.1-.14Z"/><path class="cls-39" d="M71.94,31.69c0,.12-.07.15-.14.12a.5.5,0,0,1-.1-.14.31.31,0,0,1,.12-.05C71.89,31.62,71.94,31.65,71.94,31.69Z"/><path class="cls-155" d="M77.2,29.92c.08.17,0,.27-.08.39C77.13,30.19,77,30,77.2,29.92Z"/><path class="cls-1" d="M71.12,29.88c0,.1,0,.15-.12.12a.15.15,0,0,1,0-.07.8.8,0,0,1,.13-.13Z"/><path class="cls-337" d="M69.17,18a.25.25,0,0,1,.2-.29c0,.18-.09.22-.2.28Z"/><path class="cls-72" d="M67.29,20.35c.06,0,.14-.11.19,0s0,.17-.11.16-.08-.11-.07-.18Z"/><path class="cls-338" d="M69.06,20.26l.21,0c.15.07,0,.13,0,.2s-.15,0-.19-.07Z"/><path class="cls-61" d="M73.06,14.91l-.17-.16s.07,0,.11,0a.12.12,0,0,1,.13.11S73.14,14.92,73.06,14.91Z"/><path class="cls-339" d="M79.78,19.05a.12.12,0,0,0,0,.08c-.08,0-.17,0-.19-.08a.27.27,0,0,1,0-.13C79.7,18.91,79.74,19,79.78,19.05Z"/><path class="cls-1" d="M81,21.81a.17.17,0,0,0-.1,0c-.06,0-.17,0-.15-.13s.1,0,.15-.07Z"/></g></g></svg>