<?xml version="1.0" encoding="utf-8"?>
<!-- Generator: Adobe Illustrator 24.0.2, SVG Export Plug-In . SVG Version: 6.00 Build 0)  -->
<svg version="1.1" id="Capa_1" xmlns="http://www.w3.org/2000/svg" xmlns:xlink="http://www.w3.org/1999/xlink" x="0px" y="0px"
	 viewBox="0 0 40.5 28.5" style="enable-background:new 0 0 40.5 28.5;" xml:space="preserve">
<style type="text/css">
	.st0{fill:#8A398B;}
	.st1{fill:#F8F3F9;}
	.st2{fill:#8B398B;}
	.st3{fill:#FAF7FB;}
	.st4{fill:#934793;}
	.st5{fill:#944A95;}
	.st6{fill:#B785B8;}
	.st7{fill:#B989BA;}
	.st8{fill:#9D5A9E;}
	.st9{fill:#8E3F8E;}
	.st10{fill:#F5EFF6;}
	.st11{fill:#AA70AB;}
	.st12{fill:#A365A4;}
	.st13{fill:#9F5DA0;}
	.st14{fill:#985098;}
	.st15{fill:#B37FB4;}
	.st16{fill:#F3EBF4;}
	.st17{fill:#A86EAA;}
	.st18{fill:#E7D8EA;}
	.st19{fill:#9F5C9F;}
	.st20{fill:#9A569C;}
	.st21{fill:#8F418F;}
	.st22{fill:#A669A6;}
	.st23{fill:#B17DB2;}
	.st24{fill:#EADDEC;}
	.st25{fill:#DCC8E1;}
	.st26{fill:#A161A2;}
	.st27{fill:#924692;}
	.st28{fill:#A060A1;}
	.st29{fill:#EDE2EF;}
	.st30{fill:#8E3E8E;}
	.st31{fill:#9C599D;}
	.st32{fill:#A26DA4;}
	.st33{fill:#9B559A;}
	.st34{fill:#E8DBEA;}
	.st35{fill:#A467A5;}
	.st36{fill:#B07AB1;}
	.st37{fill:#E5D5E8;}
	.st38{fill:#904391;}
	.st39{fill:#985199;}
	.st40{fill:#F4EDF6;}
	.st41{fill:#995299;}
	.st42{fill:#E4D4E7;}
	.st43{fill:#A970AB;}
	.st44{fill:#9B559B;}
	.st45{fill:#FAF7FA;}
	.st46{fill:#CEADCF;}
	.st47{fill:#9D599D;}
	.st48{fill:#B380B5;}
	.st49{fill:#954D96;}
	.st50{fill:#A364A4;}
	.st51{fill:#F2EAF4;}
	.st52{fill:#AB71AC;}
	.st53{fill:#A86CA9;}
	.st54{fill:#C8A4CA;}
	.st55{fill:#A569A7;}
	.st56{fill:#99529A;}
	.st57{fill:#B989BB;}
	.st58{fill:#8E408F;}
	.st59{fill:#A465A4;}
	.st60{fill:#B684B7;}
	.st61{fill:#B07BB1;}
	.st62{fill:#9C579C;}
	.st63{fill:#E6D7E7;}
	.st64{fill:#D8BEDA;}
	.st65{fill:#EADEED;}
	.st66{fill:#CDACCF;}
	.st67{fill:#AF79B0;}
	.st68{fill:#D5BAD6;}
	.st69{fill:#9E5C9F;}
	.st70{fill:#F6F0F7;}
	.st71{fill:#964D96;}
	.st72{fill:#954C96;}
	.st73{fill:#A568A6;}
	.st74{fill:#C59EC7;}
	.st75{fill:#F7F2F8;}
	.st76{fill:#A262A3;}
	.st77{fill:#D1B3D3;}
	.st78{fill:#954B95;}
	.st79{fill:#934893;}
	.st80{fill:#964E97;}
	.st81{fill:#A264A3;}
	.st82{fill:#AE77AF;}
	.st83{fill:#C69EC7;}
	.st84{fill:#9E5B9F;}
	.st85{fill:#A567A5;}
	.st86{fill:#B07DB2;}
	.st87{fill:#944994;}
	.st88{fill:#BF92BF;}
	.st89{fill:#B786B8;}
	.st90{fill:#EFE4F0;}
	.st91{fill:#9E5B9E;}
	.st92{fill:#F1E9F3;}
	.st93{fill:#BB8BBB;}
	.st94{fill:#9D589D;}
	.st95{fill:#F9F4F9;}
	.st96{fill:#CDACCE;}
	.st97{fill:#9B579C;}
	.st98{fill:#AA6FAB;}
	.st99{fill:#954A95;}
	.st100{fill:#B380B4;}
	.st101{fill:#D9BFDA;}
	.st102{fill:#EBE0EE;}
	.st103{fill:#A86CA8;}
	.st104{fill:#D9BED9;}
	.st105{fill:#C49BC5;}
	.st106{fill:#A261A2;}
	.st107{fill:#E5D3E6;}
	.st108{fill:#BB8DBD;}
	.st109{fill:#A569A6;}
	.st110{fill:#BB8CBC;}
	.st111{fill:#E1CCE2;}
	.st112{fill:#A160A1;}
	.st113{fill:#974E97;}
	.st114{fill:#944C96;}
	.st115{fill:#E1CDE2;}
	.st116{fill:#D7BCD8;}
	.st117{fill:#CAA6CB;}
	.st118{fill:#B682B7;}
	.st119{fill:#C69FC8;}
	.st120{fill:#B684B8;}
	.st121{fill:#F9F5F8;}
	.st122{fill:#99539A;}
	.st123{fill:#9B569C;}
	.st124{fill:#B886B8;}
	.st125{fill:#ECE0ED;}
	.st126{fill:#DFCAE1;}
	.st127{fill:#AA71AC;}
	.st128{fill:#9A549A;}
	.st129{fill:#C49CC5;}
	.st130{fill:#B480B5;}
	.st131{fill:#AF78AF;}
	.st132{fill:#BB8BBC;}
	.st133{fill:#FBF9FC;}
	.st134{fill:#EDE1EE;}
	.st135{fill:#B17CB2;}
	.st136{fill:#AC75AD;}
	.st137{fill:#FBF9FB;}
	.st138{fill:#A05FA0;}
	.st139{fill:#EBDFED;}
	.st140{fill:#D3B6D5;}
	.st141{fill:#AD76AE;}
	.st142{fill:#B582B7;}
	.st143{fill:#D9C2DC;}
	.st144{fill:#AB70AB;}
	.st145{fill:#B27DB3;}
	.st146{fill:#FFFDFF;}
	.st147{fill:#F0E6F2;}
	.st148{fill:#C9A5CB;}
	.st149{fill:#E3D0E4;}
	.st150{fill:#A971AB;}
	.st151{fill:#AD75AD;}
	.st152{fill:#D3B6D4;}
	.st153{fill:#D0B1D2;}
	.st154{fill:#A05EA0;}
	.st155{fill:#A76BA8;}
	.st156{fill:#985198;}
	.st157{fill:#A366A5;}
	.st158{fill:#954D97;}
	.st159{fill:#C399C4;}
	.st160{fill:#BF93C0;}
	.st161{fill:#DDC6DD;}
	.st162{fill:#D2B3D3;}
	.st163{fill:#AF7AB1;}
	.st164{fill:#A66AA7;}
	.st165{fill:#B27DB2;}
	.st166{fill:#D8BDD9;}
	.st167{fill:#B582B6;}
	.st168{fill:#9D599E;}
	.st169{fill:#C8A2C8;}
	.st170{fill:#BC8EBD;}
	.st171{fill:#B787B9;}
	.st172{fill:#8E3F8F;}
	.st173{fill:#AA71AB;}
	.st174{fill:#A86DA9;}
	.st175{fill:#9D5B9F;}
	.st176{fill:#AD75AE;}
	.st177{fill:#9D5B9E;}
	.st178{fill:#C399C3;}
	.st179{fill:#A86FAA;}
	.st180{fill:#C49AC4;}
	.st181{fill:#C59FC8;}
	.st182{fill:#D3B5D4;}
	.st183{fill:#8F4190;}
	.st184{fill:#180616;}
	.st185{fill:#361435;}
	.st186{fill:#230C22;}
	.st187{fill:#290F28;}
	.st188{fill:#180617;}
	.st189{fill:#1F081D;}
	.st190{fill:#7E337E;}
	.st191{fill:#32102F;}
	.st192{fill:#2F112E;}
	.st193{fill:#6E2C6E;}
	.st194{fill:#712E71;}
	.st195{fill:#030202;}
	.st196{fill:#502050;}
	.st197{fill:#6B2B6B;}
	.st198{fill:#6E2D6E;}
	.st199{fill:#6C2C6D;}
	.st200{fill:#7C327C;}
	.st201{fill:#793179;}
	.st202{fill:#7F3480;}
	.st203{fill:#773178;}
	.st204{fill:#7A317A;}
	.st205{fill:#170214;}
	.st206{fill:#742F75;}
	.st207{fill:#7C337D;}
	.st208{fill:#1C071B;}
	.st209{fill:#652965;}
	.st210{fill:#7B327C;}
	.st211{fill:#6C2C6C;}
	.st212{fill:#5B255C;}
	.st213{fill:#7A327B;}
	.st214{fill:#803480;}
	.st215{fill:#602760;}
	.st216{fill:#682A68;}
	.st217{fill:#79317A;}
	.st218{fill:#391739;}
	.st219{fill:#722E72;}
	.st220{fill:#5E265F;}
	.st221{fill:#823683;}
	.st222{fill:#542654;}
	.st223{fill:#883789;}
	.st224{fill:#893889;}
	.st225{fill:#481D48;}
	.st226{fill:#672A68;}
	.st227{fill:#742F74;}
	.st228{fill:#020202;}
	.st229{fill:#401B41;}
	.st230{fill:#471D48;}
	.st231{fill:#190B1A;}
	.st232{fill:#7F337F;}
	.st233{fill:#321532;}
	.st234{fill:#89388A;}
	.st235{fill:#833684;}
	.st236{fill:#6A2B6B;}
	.st237{fill:#341634;}
	.st238{fill:#030203;}
	.st239{fill:#823582;}
	.st240{fill:#AB71AB;}
	.st241{fill:#BB8EBE;}
	.st242{fill:#E8DAEB;}
	.st243{fill:#EDE3F0;}
	.st244{fill:#E6D5E6;}
	.st245{fill:#F3ECF5;}
	.st246{fill:#AF78B0;}
	.st247{fill:#FAF6FA;}
	.st248{fill:#944B96;}
	.st249{fill:#FAF8FA;}
	.st250{fill:#CBA7CC;}
	.st251{fill:#E4D4E8;}
	.st252{fill:#BD90BE;}
	.st253{fill:#C7A1C8;}
	.st254{fill:#ECE1EF;}
	.st255{fill:#F7F1F7;}
	.st256{fill:#9C589D;}
	.st257{fill:#BE91BF;}
	.st258{fill:#AB74AE;}
	.st259{fill:#ECE2EF;}
	.st260{fill:#A76CA9;}
	.st261{fill:#985299;}
	.st262{fill:#B583B7;}
	.st263{fill:#E3D1E5;}
	.st264{fill:#A465A5;}
	.st265{fill:#FFFFFF;}
	.st266{fill:#A96FAA;}
	.st267{fill:#FAF8FB;}
	.st268{fill:#EEE3EF;}
	.st269{fill:#ECE0EE;}
	.st270{fill:#EFE5F0;}
	.st271{fill:#E9DDED;}
	.st272{fill:#AB73AD;}
	.st273{fill:#DAC3DD;}
	.st274{fill:#9D5A9D;}
	.st275{fill:#F3EAF3;}
	.st276{fill:#E8DBEB;}
	.st277{fill:#E9DCEB;}
	.st278{fill:#FCFBFD;}
	.st279{fill:#C298C3;}
	.st280{fill:#E2CFE4;}
	.st281{fill:#C8A2C9;}
	.st282{fill:#C59DC6;}
	.st283{fill:#E7D7E8;}
	.st284{fill:#975098;}
	.st285{fill:#9B569B;}
	.st286{fill:#934692;}
	.st287{fill:#F9F6FA;}
	.st288{fill:#EEE4F1;}
	.st289{fill:#E8DBEC;}
	.st290{fill:#F0E7F1;}
	.st291{fill:#4B1E4B;}
	.st292{fill:#260C24;}
	.st293{fill:#B581B6;}
	.st294{fill:#AC75AE;}
	.st295{fill:#1D061A;}
	.st296{fill:#582358;}
	.st297{fill:#B07BB2;}
	.st298{fill:#C299C4;}
	.st299{fill:#C79FC7;}
	.st300{fill:#AB74AD;}
	.st301{fill:#C095C1;}
	.st302{fill:#E4D2E5;}
	.st303{fill:#C094C1;}
	.st304{fill:#CFAFD1;}
	.st305{fill:#B784B7;}
	.st306{fill:#471E48;}
	.st307{fill:#702D70;}
	.st308{fill:#150614;}
	.st309{fill:#934894;}
	.st310{fill:#BC8DBD;}
	.st311{fill:#A466A5;}
	.st312{fill:#924793;}
	.st313{fill:#F4EDF5;}
	.st314{fill:#904290;}
	.st315{fill:#FBF8FB;}
	.st316{fill:#BA8ABB;}
	.st317{fill:#C69EC6;}
	.st318{fill:#D1B1D2;}
	.st319{fill:#A66AA8;}
	.st320{fill:#9A559B;}
	.st321{fill:#6D2C6D;}
	.st322{fill:#321432;}
	.st323{fill:#A263A3;}
	.st324{fill:#A262A2;}
	.st325{fill:#934994;}
	.st326{fill:#9A539A;}
	.st327{fill:#D8BCD8;}
	.st328{fill:#E9DDEC;}
	.st329{fill:#A466A4;}
	.st330{fill:#C8A1C8;}
	.st331{fill:#A364A3;}
	.st332{fill:#AA6FAA;}
	.st333{fill:#924592;}
	.st334{fill:#C8A3CA;}
	.st335{fill:#C7A0C9;}
	.st336{fill:#BD8FBE;}
	.st337{fill:#D2B5D5;}
	.st338{fill:#BC8EBE;}
</style>
<title>vnqlogo</title>
<g id="Capa_2_1_">
	<g id="Capa_1-2">
		<g id="Modo_de_aislamiento">
			<path d="M8.8,0.5H8.4l3.2-0.4l-1,17.4l-5.3,0.7L0,1.6L4.1,1l3,10.2L7.4,0.6C7.5,0.6,8.8,0.5,8.8,0.5z"/>
			<path d="M12.3,0.4l4.1,0.5L19,8.3l0.8-7.1L24,1.7l-1.8,17.1L18,18.3l-2.5-7.8l-0.8,7.4l-4.2-0.5L12.3,0.4z"/>
		</g>
		<path class="st0" d="M35.7,17.3l-0.1,0.1c-0.1,0-0.1,0.1-0.1,0.2v0.1l0,0c-0.1,0,0,0.1-0.1,0.1c0,0-0.1-0.1-0.1,0
			s-0.1,0.2-0.1,0.3v0.1c-0.1,0-0.1,0.1-0.1,0.2s0,0.1,0,0.1s-0.1,0-0.1,0.1c0,0.2-0.1,0.4-0.2,0.5c0.1,0,0.1-0.1,0.1-0.2
			c0.1,0,0.1,0.1,0.1,0.2c-0.1,0,0,0.1,0,0.2s-0.1,0.1,0,0.1v0.1l0,0c-0.1,0,0,0-0.1-0.1s-0.1,0.1-0.1,0c0,0.1-0.2,0.1-0.1,0.2v0.1
			c0,0.1,0,0,0.1,0c0,0,0,0,0.1,0c0,0,0.1,0.1,0.2,0.1l0,0c0,0,0,0,0.1,0s0.1,0,0.2,0c0.1,0,0.1,0.1,0.2,0.1c0.1,0,0,0.1,0.1,0.1
			s0.1-0.1,0.1,0c0,0,0.1,0.1,0.1,0l0.1,0.1c0.1,0,0.1-0.1,0.1-0.2c0,0.1,0.1,0.2,0.2,0.2c0.1,0.1,0.2,0,0.2,0h0.1l0,0
			c0,0,0.2,0.1,0.1,0.2c0,0,0,0.1,0.1,0.1s0.1,0,0.2,0.1c0,0,0.1,0,0.1,0.1c0.1,0,0.3,0.1,0.4,0c0,0-0.1-0.1,0-0.1
			c0-0.1,0.1-0.1,0.1-0.1l0,0c0.1,0,0,0.1,0,0.1h0.1l0,0l0,0c0,0,0,0,0.1,0l0,0v0.1c0,0,0,0.1,0.1,0.1s0-0.1,0.1-0.1
			c0.1,0.2,0.2,0.2,0.3,0.3V21c0,0.1,0,0.1,0.1,0.2c0.3,0.2,0.4,0.5,0.4,0.8c0,0.1,0,0.2,0,0.2c0.1,0.1,0,0.2-0.1,0.3
			c0,0.1,0,0.1,0,0.2c-0.1,0-0.1,0.1-0.1,0.2c0,0,0,0,0,0.1h-0.1c-0.1,0,0,0-0.1,0s-0.1,0.1-0.2,0.2s-0.2,0.1-0.3,0.1h-0.1
			c-0.1,0.1-0.3,0.1-0.5,0.1s-0.2,0-0.2,0.2c-0.1,0-0.1,0-0.2-0.1c-0.1-0.1-0.1-0.1-0.1,0c-0.1,0.1-0.3,0.1-0.4,0.1
			c0,0-0.1,0-0.1,0.1c-0.1,0.1-0.3,0-0.4,0.1c0-0.1-0.2-0.2-0.2-0.4c0-0.1,0-0.2-0.1-0.2c0-0.1-0.1,0-0.1,0l0,0l0,0
			c-0.1,0-0.1,0-0.2,0c-0.1,0-0.1-0.1-0.2,0l-0.2-0.3c-0.1,0-0.1,0.2-0.2,0.1h-0.1l-0.1-0.1l-0.1-0.1c0,0-0.1-0.1,0-0.1
			c0-0.1,0-0.2,0-0.3c0-1.2,0-2.5,0-3.7c0-0.2-0.1-0.3-0.2-0.4c-1.3-1.3-2.6-2.6-3.9-3.8c-0.1-0.1-0.2-0.2-0.4-0.3
			c-0.1-0.1-0.3-0.2-0.4-0.2c-0.2,0-0.4,0-0.7,0c-0.1-0.1,0-0.1,0-0.2c0.1-0.2,0.2-0.4,0.3-0.7c0.1-0.1,0.1-0.2,0.1-0.3
			s0.1-0.1,0.2,0h0.1c0.2,0,0.1-0.2,0.3-0.2h0.1H30h0.1c0.1,0,0-0.1,0.1-0.1l0,0c0.1,0,0.1-0.1,0.1-0.1s0.1,0,0.1-0.1l0.1-0.1
			c0.1,0,0.2,0,0.2-0.2c0,0,0-0.1,0.1-0.1s0.2-0.1,0.2-0.1c0.1,0,0.1,0,0.1-0.1c0,0,0,0,0.1,0l0,0l0,0c0.1-0.1,0.1,0,0.2-0.1
			s0-0.1,0-0.1c-0.1-0.1,0-0.2,0.1-0.2c0.1,0,0.1,0,0.2-0.1c0-0.1,0.1,0,0.1-0.1V11c0,0,0,0,0-0.1c-0.1,0-0.2-0.1-0.2-0.3
			c0-0.1-0.2-0.2-0.2-0.3s-0.1-0.1,0-0.1c0.1-0.1,0.3-0.2,0.5-0.2c0.1,0,0.2,0,0.2-0.1c0,0,0-0.1,0.1-0.1h0.1c0,0-0.1,0-0.1-0.1
			l-0.1-0.1V9.5c0.1-0.1,0.2-0.1,0-0.2c0,0,0-0.1,0-0.2c0-0.1,0-0.1,0-0.1V8.8c0,0,0-0.1,0.1-0.1c0,0,0.1-0.1,0.1-0.2
			c0-0.1,0-0.2-0.1-0.2s-0.1-0.1-0.1-0.2C32.1,8,32,7.8,32,7.7c0,0,0,0,0-0.1l-0.1-0.1c0-0.1,0-0.1-0.1-0.2c0-0.1,0-0.3-0.1-0.4V6.8
			l0,0l0.1-0.1c0-0.1,0-0.1,0-0.2V6.4c0,0,0,0-0.1,0l-0.1,0.1l-0.1,0.1c-0.1,0-0.2,0-0.2-0.1c0,0,0,0,0-0.1l0,0c0-0.2,0-0.4-0.1-0.7
			c0.2-0.4-0.9-0.6-1.1-0.9C30,4.5,29.9,4.4,29.8,4c0-0.2,0.9-1,1.1-1.1c0.4-0.4,0.8-0.8,1.2-1.2c0.1,0,0.1-0.1,0.2,0
			c0.1,0.1,0,0.2,0.1,0.3c0,0,0.1,0,0.1,0.1s0,0.1,0,0s0-0.1,0.1-0.1c0,0.1,0.1,0.1,0.1,0.1c0.1,0,0,0.1,0,0.2h0.1l0,0
			c0.1,0,0.1,0,0.1,0.1v0.1l0,0c-0.1,0.1,0,0.1,0.1,0.1l0,0l0.1,0.1c0,0.1,0.1,0.2,0.3,0.1l0,0c0.1,0,0.1,0,0.2,0c0.1,0,0.2,0,0.2,0
			c0.1,0-0.1-0.1-0.1-0.1s0-0.1,0.1-0.1s0.1,0,0.2,0.1c0.1,0,0.1,0,0.2,0c0,0-0.1,0-0.1-0.1s0.1,0,0.1,0l0,0c0,0,0,0,0.1,0h0.1
			c0.1,0,0-0.2,0.1-0.1l0,0l0.1-0.1c0.1,0,0,0.1,0,0.1s0,0.1,0.1,0.1c0,0,0.1,0,0.1-0.1l0,0c0-0.1,0.1-0.1,0.1,0
			C35,2.7,35,2.6,35.1,2.4c0,0,0,0,0.1-0.1c0,0.1,0,0.2,0.2,0.1c0.1-0.1,0.3,0,0.5,0.1c0,0.1,0.1,0,0.1,0c0-0.1,0.1-0.1,0.2-0.1v0.1
			v0.1h0.1l0,0h0.1c0-0.1,0.1-0.1,0.2,0h0.1c0.2-0.1,0.3,0.1,0.4,0.1c0.1,0,0.1,0.1,0.2,0.2c0.1,0.1,0.1,0.1,0.1,0
			c0.1,0,0.1-0.1,0.2,0.1c0,0,0.1,0.2,0.2,0c0.1-0.1,0.1,0,0.2,0.1c0,0.1,0,0.1,0.1,0.2c0,0,0,0,0,0.1c0,0,0,0,0.1,0s0,0.1,0.1,0.1
			v0.1c0,0,0,0.1,0.1,0h0.1l0,0c0.1,0.1,0.3,0,0.2,0.2c0.1,0.1,0,0.2-0.1,0.2s-0.1,0.1,0.1,0.1l0.1,0.1c0,0,0.1,0,0.1,0.1l0,0
			c-0.1,0-0.1,0.1-0.1,0.1c-0.1-0.1-0.1,0-0.1,0s0,0.1,0.1,0.1l0.1,0.1v0.1c0.1,0.1-0.1,0.1,0,0.2c-0.1,0,0,0.1-0.1,0.2s0,0,0,0l0,0
			c0,0,0-0.1-0.1,0h-0.1c0,0,0-0.1-0.1,0v0.1c0,0.1,0,0.2,0,0.2c0,0.1,0,0.1,0,0.2l0,0h-0.1h-0.1v0.1l0,0c0,0.1-0.1,0.1-0.1,0.2
			s0,0.1,0,0.2l0,0l-0.1,0.1c0,0,0,0.1,0,0.2C38,6.5,38,6.7,38,6.9C38,7,38,7,38,7.1s0,0.2-0.1,0.3c0,0.1,0,0.2,0,0.2v0.1
			c0,0,0,0.1,0,0s0.1,0,0.1,0c0,0.1-0.1,0.2-0.1,0.3l0,0c-0.1,0-0.1,0.1-0.1,0.1s0,0,0,0.1v0.1c-0.1,0.1,0,0.2-0.1,0.3
			c0,0.1,0,0.1,0,0.1c-0.1,0.2,0,0.3,0,0.5c0,0.1,0,0.1-0.1,0.1c-0.1,0.1,0,0.1,0,0.2c0,0.1-0.1,0.2,0,0.2c0,0,0,0,0,0.1
			c-0.1,0.2-0.1,0.4-0.3,0.6v0.1v0.1c0,0.2-0.2,0.4-0.2,0.7c0,0.1,0,0.1-0.1,0.2c0,0.1,0,0.1,0,0.1c-0.2,0.1-0.2,0.4-0.2,0.6
			c0,0.1-0.1,0.1-0.1,0.1l0.1,0.1c0,0.1-0.1,0.2-0.1,0.3s0,0.1-0.1,0.1c0,0.1-0.1,0.2-0.1,0.2s0,0,0,0.1l0,0c0.1,0.1,0.1,0.3,0,0.4
			c0,0-0.1,0,0,0c0,0,0,0,0,0.1v0.1c0,0.1,0,0.2,0,0.3s-0.1,0.2-0.1,0.2l0,0c0,0.1,0,0.1,0,0.2c0,0.1,0,0.1,0.1,0.2
			c0,0.1,0,0.1,0,0.2v0.1l0,0c0,0.1,0,0.1-0.1,0.2c0,0-0.1,0,0,0.1h0.1c0,0.1,0,0.2-0.1,0.1c-0.1,0-0.1,0.1-0.1,0.1
			c0,0.1,0,0.1,0,0.1c-0.1,0.1,0,0.2-0.1,0.3c-0.1,0.1-0.1,0.2-0.1,0.3L36,16.2c0.1,0.1-0.1,0.2,0,0.3l0,0v0.2
			C35.8,16.9,35.7,17.1,35.7,17.3z"/>
		<path class="st0" d="M28.9,13.8c0.2,0,0.4,0,0.6,0s0.5,0.1,0.6,0.3c0.2,0.2,0.5,0.5,0.7,0.7c0.5,0.4,0.9,0.9,1.4,1.4l1.3,1.3
			l0.9,0.8c0.1,0.1,0.1,0.1,0.1,0.2c0,1.4,0,2.8,0,4.2c-0.1,0-0.1,0-0.1,0.1c0,0,0,0.1-0.1,0.1c0,0.1,0,0.1,0,0.2s-0.1,0.1-0.1,0.3
			c0,0.1-0.1,0.2-0.2,0.3h-0.1c0-0.1-0.1-0.1-0.1-0.1c-0.1,0.1-0.1,0.3-0.2,0.5l0,0c-0.1-0.1-0.1,0-0.2,0.1s-0.1,0.2-0.1,0.3
			c-0.1-0.1-0.1,0.1-0.1,0c-0.1,0.3-0.2,0.6-0.3,0.9c0,0.1-0.1,0.2-0.2,0.2c-0.1,0,0,0.1-0.1,0.1s-0.1,0.1-0.1,0.1s-0.1-0.1-0.1-0.2
			v-0.1c0,0.2-0.2,0.2-0.2,0.4c0,0.1-0.2,0.3-0.3,0.4l-0.1,0.1c-0.1,0.2-0.3,0.4-0.5,0.6c0,0,0,0.1-0.1,0.1c-0.3,0-0.4,0.3-0.5,0.5
			c0,0,0,0.1-0.1,0.1c-0.1,0.1-0.1,0.2-0.3,0c0-0.1-0.1-0.1-0.2-0.1c-0.1,0-0.2,0-0.2-0.1s0-0.2,0.2-0.3c0.4-0.2,0.5-0.7,0.7-1l0,0
			l0,0c-0.1,0.1-0.2,0.2-0.3,0.3c-0.1,0.1-0.2,0.2-0.3,0.1v-0.1c0,0.1,0,0.1-0.1,0.1c-0.1,0.1-0.2,0.1-0.3,0.1s-0.1-0.2-0.1-0.3
			c-0.1-2.4,0-4.8,0-7.2c0-0.1,0-0.3,0-0.4c-0.1-0.1-0.2-0.2-0.3-0.2c0,0-0.1,0,0-0.1l0,0c0,0,0.1,0,0.1-0.1l0,0
			c0.1-0.1,0.1,0,0.2,0.1c0.1,0.1,0.1,0.1,0.1,0c0.1-0.1,0.1-0.1,0-0.1c-0.1-0.1-0.1-0.1,0-0.1c0.1,0,0-0.1,0-0.1
			c0-0.3,0-0.6,0.2-0.8c0-0.1,0-0.1,0-0.2c-0.1-0.1-0.1,0-0.1,0h-0.1c-0.1,0-0.2,0-0.2,0.1l0,0c-0.2-0.2-0.3,0-0.5,0
			c-0.1,0-0.3,0-0.4,0l0,0l0,0c0,0-0.1,0-0.1,0.1c-0.1,0.1-0.1,0-0.1-0.1h-0.1c0,0,0,0-0.1,0l-0.1-0.1c-0.1,0.2-0.2,0-0.3,0
			s-0.1,0-0.1,0s0,0.1-0.1,0.1c-0.1,0-0.3,0.1-0.3-0.1c-0.1,0,0,0.1-0.1,0.2l0,0c-0.1-0.3-0.2-0.3-0.4-0.1h-0.1
			c0-0.2-0.2-0.1-0.3-0.2v0.1l0,0l0,0c-0.1-0.1-0.2-0.1-0.4-0.2l0,0c0-0.2-0.2-0.3-0.4-0.3c-0.1,0-0.1,0-0.2-0.1
			c-0.1-0.1-0.1-0.1-0.2,0l0,0c0,0,0,0,0-0.1c0.1-0.1,0.2-0.1,0.3-0.1c0,0,0.1,0.2,0.2,0c0.2,0,0.5,0,0.7,0s0.3-0.1,0.4-0.2
			c0.7-0.7,1.4-1.4,2.1-2.1C28.7,13.9,28.8,13.8,28.9,13.8z"/>
		<path class="st0" d="M29.3,14.1c-0.2,0.2-0.5,0.4-0.7,0.7c-0.6,0.6-1.1,1.1-1.7,1.7c-0.1,0.1-0.2,0.2-0.4,0.1c-0.3,0-0.5,0-0.8,0
			h-0.1c-0.1,0-0.2,0-0.3,0h-0.1l0,0h-0.1c0-0.1,0-0.1,0-0.1l0,0c0-0.1,0-0.1,0-0.2s0-0.1,0-0.1c-0.2,0.1-0.2-0.1-0.3-0.2
			c0,0-0.1,0,0,0c-0.1-0.1-0.2,0-0.3-0.1c-0.1,0-0.1-0.1-0.2-0.1v0.1c0,0,0,0.1-0.1,0.1h-0.1l0,0c0-0.1-0.1-0.1-0.2-0.2
			c0,0,0,0,0-0.1l0,0c0.1-0.1,0-0.1-0.1-0.1l0,0c-0.1-0.1,0-0.2-0.1-0.2s0,0.1-0.1,0.2c0-0.1,0-0.3-0.1-0.3c0,0-0.1,0-0.1-0.1v-0.1
			l0,0c0-0.1,0-0.1-0.1-0.1l0,0c-0.1,0-0.1,0-0.1-0.1l0,0c0-0.1,0-0.2-0.1-0.2H23c0,0-0.1-0.1-0.1-0.2c-0.1,0-0.1-0.1-0.1-0.1
			c0-0.1-0.1-0.1-0.2-0.1c0,0-0.1,0-0.1-0.1s0-0.1,0-0.2v-0.1c-0.1-0.1,0-0.1,0-0.2c0-0.1,0-0.3,0-0.4c0-0.1,0-0.1-0.1-0.2
			c0.1-0.1,0-0.1,0-0.2c0,0,0,0,0-0.1l0,0l0,0c0,0,0,0.1-0.1,0.1h-0.1c-0.1-0.1,0-0.2-0.1-0.2c0,0-0.1,0-0.1-0.1s-0.1-0.1-0.1-0.2
			c0-0.1,0.1-0.1,0-0.2c-0.1-0.1-0.1,0-0.1,0l0,0c0-0.1,0-0.2,0-0.2v-0.1c0,0-0.1,0-0.1-0.1l0,0l0,0c0,0,0-0.1,0-0.2l0,0l0,0
			c0-0.1,0-0.1-0.1-0.1c0,0-0.1,0-0.1-0.1c0,0,0,0,0-0.1c0,0,0,0,0-0.1h-0.1c0-0.1,0-0.1,0-0.1s0.1-0.1,0-0.1l0.1-0.2
			c0-0.1-0.1-0.1,0-0.2c0-0.1-0.1,0-0.1-0.1s0-0.1,0-0.1 M21.2,10.4l0.1-0.1c0,0,0.1-0.1,0-0.2c-0.1-0.1-0.1-0.1-0.1-0.2
			c0.2-0.1,0-0.2,0-0.4c0.1-0.1,0-0.2,0-0.3V9.1V9c0-0.1,0-0.1,0-0.2l0.1-0.1v0c0,0,0-0.1,0-0.2c0-0.1-0.1-0.1-0.1-0.1
			s-0.1-0.1,0-0.1V8.2l0.1-0.1c0.1-0.1,0-0.2,0-0.3c0-0.1,0-0.1,0.1,0c0.1-0.1,0.2-0.1,0.3-0.1c1.5,0,3,0,4.5,0
			c0.2,0,0.3,0.1,0.4,0.2C26.7,8,26.7,8,26.8,8.1c0,0,0.1,0,0.1,0.1c0,0,0,0,0,0.1c0,0,0,0,0,0.1c-0.1,0.1-0.1,0.2-0.1,0.2
			c0,0.1,0,0.1-0.1,0.2c-0.1,0-0.1,0.1-0.1,0.2c0.1,0,0.2,0,0.2,0c0.1,0.1,0.1,0.2,0,0.3s-0.1,0.2-0.1,0.3v0.1c0,0-0.1,0,0,0l0,0
			c0,0,0,0.1,0,0.2c0.1,0,0.1-0.1,0.2-0.2s0.3-0.1,0.2,0.1c0,0.1-0.1,0.1-0.1,0.2c0,0,0,0.1-0.1,0.1l0,0c0,0,0,0-0.1,0s0.1,0,0.1,0
			c0,0.1,0,0.1-0.1,0.1l0,0c-0.1,0-0.2,0.2-0.1,0.3c0,0.1,0,0.1,0,0.2c0,0.2,0.1,0.3,0.2,0.4c0.1,0.1,0.1,0.1,0,0.1
			c-0.1,0.1-0.1,0.1-0.2,0.2c0,0,0.1,0,0.1,0.1s0,0.1,0,0.2c0,0.1,0.1,0.1,0.1,0.1c0.1,0,0,0,0.1,0c0,0,0-0.1,0.1-0.1l0,0l0.1,0.1
			l0,0l0.1-0.1l0,0c0,0.1,0.2,0.1,0.2,0.3c0.1-0.1,0.1-0.1,0.2-0.1s0.1,0,0.2,0c0.1,0.1,0.3,0.1,0.3,0.2v0.1c0,0.1,0,0.2,0.1,0.2
			c0,0,0.1,0,0.1,0.1c-0.1,0.2,0.1,0.2,0.1,0.2c0.2,0,0.4,0,0.5-0.1l0,0c0.1,0.1,0.2,0.1,0.3,0.1c0.1,0,0.2,0,0.2,0.1s0,0.2,0,0.3
			c-0.1,0.3-0.3,0.5-0.4,0.8c0,0.1,0,0.1,0,0.1L21.2,10.4z"/>
		<path class="st0" d="M29.7,18.6L29.7,18.6c0.1,0.1,0.2,0.1,0.2,0.2c0.1,0,0.1,0.1,0.1,0.2v1.4c0,1.5,0,3,0,4.5
			c0,0.6,0.1,1.2,0,1.8L29.8,27l0,0c-0.2,0.1-0.4,0.3-0.5,0.6c-0.1,0.1-0.1,0.3-0.2,0.4c-0.1-0.1-0.3-0.3-0.5-0.2
			c-0.1,0-0.1-0.1-0.1-0.1c0-0.1,0-0.2,0.1-0.3c0.5-0.3,0.4-0.8,0.7-1.2c-0.1,0.1-0.2,0.1-0.2,0.3c-0.1,0.1-0.2,0.3-0.4,0.2
			c0,0,0,0-0.1,0c0,0-0.1,0.2-0.2,0c-0.1-0.1-0.2-0.2-0.1-0.4c0.1-0.1,0.1-0.2,0.2-0.3c0.3-0.4,0.5-0.9,0.7-1.3c0,0,0-0.1,0-0.2
			c0.2-0.1,0.2-0.1,0-0.4c0,0.1,0,0.2-0.1,0.2c-0.1,0.1-0.1,0.3-0.2,0.4s-0.1,0.1-0.2,0.1s-0.2-0.1-0.1-0.2c0-0.1,0.1-0.2,0.2-0.3
			c0.1-0.1,0.1-0.2,0.2-0.3c0.1-0.1,0-0.2,0-0.4c0-0.3,0.1-0.7,0.2-1c0-0.1,0-0.1,0.2,0.1c0,0,0,0,0-0.1l0,0c-0.2-0.2,0.1-0.4,0-0.5
			c0.2,0,0.1-0.2,0.2-0.3v-0.1l0,0h-0.1c-0.2-0.1-0.4-0.1-0.6-0.2c-0.1,0-0.2,0-0.2-0.1h-0.1l0,0c-0.1-0.1-0.2,0.1-0.3,0.1
			s-0.1,0-0.1-0.1c-0.1-0.1-0.1-0.2-0.3-0.2c-0.2,0-0.4-0.1-0.5-0.1s-0.1,0-0.2,0c0,0.1,0.1,0.1,0,0.1c0,0.1-0.1,0.1-0.2,0l0,0
			c0,0-0.1,0-0.1-0.1l0,0c0-0.1-0.1-0.1-0.1-0.2c-0.1,0,0.1,0.2-0.1,0.1c-0.1,0-0.1-0.1-0.1-0.1c-0.1-0.1-0.3,0-0.3-0.2
			c-0.1,0-0.1-0.1-0.1-0.2c-0.1-0.1-0.3-0.1-0.4-0.2c-0.1-0.2-0.2-0.4-0.2-0.6s-0.1-0.3,0-0.5v-0.1l0,0h0.1V19l0.1-0.1l-0.1-0.1
			c0,0,0.1,0,0.1-0.1c0.1,0.1,0.1,0,0.1,0s0.2-0.2,0.2-0.3c0,0,0.1-0.1,0.1,0c0.1,0,0.2,0,0.3,0c0,0,0,0.1,0.1,0.1c0,0,0,0-0.1-0.1
			c0.1,0,0.2-0.2,0.4-0.1c0.1,0,0.3,0.1,0.2-0.2V18h0.1c0.1,0.2,0.2,0.1,0.3,0s0.1,0,0.2,0s0-0.1,0.1-0.1c0.1,0.1,0.2,0,0.2,0
			s0.3,0,0.4-0.1c0,0.1,0.2,0.2,0.2,0.3c0,0.1,0.1,0.2,0.2,0.3l0,0c0-0.1,0.1-0.1,0.2-0.1s0.1,0,0.1,0.1c0,0,0.1,0.1,0.2,0l0,0
			c0,0.1,0.2,0,0.2,0.1l0.1-0.1C29.5,18.4,29.6,18.5,29.7,18.6C29.7,18.5,29.7,18.6,29.7,18.6L29.7,18.6z"/>
		<path class="st0" d="M24.7,2.6L24.7,2.6c0.1,0,0.2-0.1,0.2-0.2V2.3c0.2,0.1,0.2-0.1,0.3-0.1c0-0.1,0.1,0,0.2,0l0.3-0.1L25.8,2
			c0,0,0,0,0-0.1V1.8c0.1,0,0.2,0,0.3-0.1c0.1,0,0.1,0,0.2,0c0.1-0.1,0.2-0.1,0.3,0c0.1,0,0.2,0,0.3-0.1c0.1,0,0,0,0-0.1
			C26.8,1.4,27,1.4,27,1.4c0.1,0,0.1,0,0.1,0c0.1,0,0.3-0.1,0.4,0c0-0.1,0.1,0.1,0.2,0h0.1c0.1,0.2,0.2,0,0.3,0c0,0.1,0,0.2,0,0.2
			C28,1.8,27.9,2,28,2.2c0,0.5,0,1,0,1.4c0,0.1,0,0.2,0,0.2c-0.3,0.3-0.3,0.9-0.6,1.1c-0.1,0-0.3-0.2-0.4-0.2h-4.1
			c-0.1,0-0.2,0-0.3-0.1c0-0.1,0.1-0.1,0.1-0.2h0.1c0.1,0,0-0.1,0.1-0.2c0,0.1,0,0,0,0c0.1,0,0.1,0,0.2-0.1c0.1,0,0.1,0.1,0.2,0
			S23.4,4,23.5,4s0.1-0.2,0.1-0.2l0,0c0,0,0,0,0.1,0l0.1,0.1c0.1,0,0.1-0.1,0.2-0.1s0.1,0,0.1-0.1s0.1-0.1,0-0.1c0,0-0.1,0-0.1-0.1
			c0,0,0-0.1,0.1-0.1V3.3c0.1,0.1,0.1,0,0.2-0.1c0-0.1-0.1,0-0.1-0.1V3c0.1,0,0.1,0,0.2,0C24.4,2.7,24.6,2.7,24.7,2.6L24.7,2.6
			L24.7,2.6z"/>
		<path class="st0" d="M27.8,3.8c0-0.4,0-0.7,0-1.1c0-0.3,0-0.7,0-1c0-0.1,0.1-0.2,0.1-0.4c0,0,0.1,0,0.1,0.1s0,0.1,0.1,0
			c0,0,0.2-0.1,0.2,0.1h0.1c0,0,0.1,0,0.1,0.1c0.1,0,0.2,0,0.2-0.1c0.1-0.1,0.2,0,0.2,0.1c0,0.2,0.1,0,0.1,0h0.1
			c0.1,0.1,0.1,0,0.2,0c0.1,0.1,0.2-0.1,0.3,0h0.1h0.1l0,0H30l0,0c0,0.1,0.1,0,0.2,0.1c0,0.1,0.1-0.1,0.1,0l0,0c0,0.1,0,0.1,0,0.2
			V1.8l0,0c0.1,0,0.2,0,0.2,0c0.1,0,0.1,0.1,0.2,0.1c0.1,0,0.1,0,0.1,0.1s0.1,0,0.2,0.1c0.1-0.1,0.3,0,0.4-0.1c0,0,0.1,0.1,0.1,0
			c0.1-0.1,0.1,0,0.1,0c0,0.1,0.1,0.2,0.2,0.2c0,0,0,0,0,0.1s-0.1,0.1-0.1,0.2c-0.3,0.3-0.6,0.6-0.9,0.9c-0.2,0.2-0.3,0.4-0.4,0.7
			c-0.1,0.1-0.1,0-0.2,0c-0.4,0-0.7,0-1.1,0c-0.2,0-0.4,0-0.5-0.2c-0.1-0.2-0.3-0.3-0.6-0.2C28,3.9,27.9,3.9,27.8,3.8z"/>
		<path class="st1" d="M38.6,6.4c-0.1-0.1,0-0.1,0-0.2c0,0,0,0,0.1,0c0,0,0.1,0,0.1-0.1l0,0V6c0,0,0,0,0-0.1l0,0C39,6,39,6,39.1,6
			l0,0c0.1,0.1,0,0.1,0.1,0.2l0,0v0.1c0,0-0.1,0-0.1,0.1C39,6.4,39,6.5,39,6.6l0,0h-0.1l0,0C38.7,6.6,38.7,6.5,38.6,6.4z"/>
		<path class="st2" d="M29.3,24.4c0.1,0,0.1-0.1,0.1-0.2s0-0.1,0.1-0.1c0,0.1,0,0.2,0.1,0.2s0.1,0.1,0.1,0.2l0,0
			c0,0.1-0.1,0.1-0.2,0.1C29.4,24.5,29.3,24.5,29.3,24.4z"/>
		<path class="st3" d="M37.1,14.3c0-0.1-0.1-0.2,0-0.3l0,0h0.1h0.1c0,0,0.1,0.1,0,0.1c-0.1,0.1-0.1,0.2-0.1,0.3l0,0
			c-0.1,0-0.1,0-0.1,0C37.2,14.3,37.1,14.3,37.1,14.3L37.1,14.3z"/>
		<path class="st1" d="M36.2,17.6c-0.1-0.2,0-0.4,0.1-0.6l0,0c0,0,0.1,0.1,0.1,0.2v0.1C36.4,17.4,36.3,17.4,36.2,17.6
			C36.3,17.6,36.3,17.7,36.2,17.6z"/>
		<path class="st4" d="M34.3,3C34.3,3.1,34.3,3.1,34.3,3c0.2,0.1,0.2,0.1,0.2,0.2c-0.1,0-0.2,0-0.2,0c-0.1,0-0.1-0.1-0.2-0.1
			S34,3.1,34,3c0-0.1,0,0,0.1,0C34.1,2.9,34.2,2.9,34.3,3C34.3,2.9,34.3,3,34.3,3z"/>
		<path class="st5" d="M38.6,9.5L38.6,9.5c0-0.1,0-0.2,0-0.3s0-0.2,0.1-0.2c0,0,0,0.1,0,0.2c0,0.1,0,0,0,0l0,0h0.1L38.6,9.5
			C38.7,9.5,38.7,9.5,38.6,9.5z"/>
		<path class="st6" d="M35.8,18.9c0.1-0.1,0-0.2,0-0.2c0.1-0.1,0-0.1,0.1-0.1s0.1,0,0.1,0C36,18.8,35.9,18.9,35.8,18.9
			C35.8,19,35.7,19,35.8,18.9z"/>
		<path class="st7" d="M38.8,7.8V7.6c0.1,0,0-0.2,0.1-0.2H39c0,0.1-0.1,0.2,0.1,0.3c0,0,0,0.1-0.1,0C38.8,7.6,38.8,7.8,38.8,7.8
			C38.7,7.8,38.8,7.8,38.8,7.8C38.8,7.7,38.8,7.8,38.8,7.8z"/>
		<path class="st8" d="M37.2,14.2L37.2,14.2c0.1,0.2,0.2,0.3,0.2,0.4c-0.1,0.1,0,0.1-0.1,0s-0.1,0-0.1,0.1v-0.1
			C37.1,14.5,37.1,14.4,37.2,14.2C37.2,14.3,37.2,14.2,37.2,14.2z"/>
		<path class="st9" d="M35.4,20.1L35.4,20.1c-0.1,0.1-0.1,0.1-0.1,0.1s0-0.1-0.1-0.1c0,0-0.1-0.1,0-0.1l0.2-0.1
			C35.4,19.9,35.5,20,35.4,20.1z"/>
		<path class="st10" d="M37.2,14.3c0,0.1,0,0.2,0,0.3l0,0c-0.1,0-0.1,0-0.2,0c0-0.1,0-0.2,0.1-0.2l0,0
			C37.1,14.3,37.2,14.2,37.2,14.3z"/>
		<path class="st11" d="M32.7,2.5L32.7,2.5c-0.1,0.1,0,0.2-0.1,0.2s0-0.1-0.1-0.1c0,0-0.1,0-0.1-0.1V2.4C32.6,2.4,32.7,2.4,32.7,2.5
			z"/>
		<path class="st12" d="M31.7,2c-0.1,0-0.1,0.1-0.2,0.1c-0.1-0.1-0.1,0.1-0.2,0.1c0.1-0.1,0-0.2,0.1-0.2C31.5,1.8,31.6,2,31.7,2z"/>
		<path class="st13" d="M36.9,14.5c0.1-0.1,0.1,0,0.2,0c0,0.1,0,0.2-0.1,0.3c-0.1,0,0,0.1,0,0.1l0,0v-0.2
			C37,14.7,36.9,14.6,36.9,14.5L36.9,14.5z"/>
		<path class="st14" d="M37.3,14.3c0-0.1,0-0.3,0.1-0.4c0,0,0-0.1,0.1,0c0,0,0.1,0,0.1,0.1l0,0c-0.1,0-0.1,0.1-0.1,0.2
			C37.4,14.2,37.3,14.3,37.3,14.3z"/>
		<path class="st15" d="M30.2,1.4c0.1,0,0.3,0,0.4,0.2v0.1l0,0l0,0c-0.1,0,0-0.1-0.1,0 M30.5,1.6c0-0.1-0.1,0-0.2-0.1
			c-0.1,0-0.1,0-0.1-0.1s0-0.1,0-0.1L30.5,1.6z"/>
		<path class="st16" d="M37.5,13.5C37.5,13.6,37.4,13.5,37.5,13.5c-0.2,0-0.2-0.1-0.1-0.2c0.1,0,0.1,0,0.2-0.1
			C37.6,13.3,37.5,13.4,37.5,13.5z"/>
		<path class="st17" d="M38.6,6.4c0.1,0.1,0.1,0.2,0.1,0.3c0,0-0.1,0-0.2,0l0,0c0-0.1-0.1-0.1,0-0.2C38.7,6.5,38.6,6.4,38.6,6.4
			L38.6,6.4z"/>
		<path class="st18" d="M38.1,9c0-0.1,0-0.1,0-0.1c0-0.1,0-0.1,0.1-0.1S38.2,8.9,38.1,9L38.1,9C38.2,9,38.2,9,38.1,9z"/>
		<path class="st19" d="M39.2,5.6c0,0.1,0,0.2-0.1,0.3H39c-0.1-0.1,0-0.1,0-0.2S39.1,5.5,39.2,5.6C39.1,5.5,39.2,5.5,39.2,5.6z"/>
		<path class="st20" d="M34.3,3c0-0.1-0.1-0.1-0.2,0c0-0.1,0-0.1,0-0.2L34.4,3H34.3z"/>
		<path class="st21" d="M36.9,15.2L36.9,15.2L36.9,15.2c0-0.1,0-0.1,0.1-0.1s0.1,0,0.1,0.1s0,0.2,0,0.3C37,15.4,37.2,15.2,36.9,15.2
			C37,15.2,37,15.2,36.9,15.2z"/>
		<path class="st22" d="M24.6,16.5c0-0.1,0.1-0.1,0.2-0.1c0,0,0.1,0,0,0.1C24.7,16.5,24.7,16.6,24.6,16.5
			C24.5,16.5,24.5,16.5,24.6,16.5z"/>
		<path class="st23" d="M39.3,6.9L39.3,6.9c-0.1,0-0.1,0-0.2,0c0-0.1,0-0.1,0-0.2s0,0,0.1,0h0.1l0,0C39.3,6.7,39.2,6.8,39.3,6.9
			L39.3,6.9z"/>
		<path class="st24" d="M29.8,1.4L29.8,1.4c-0.1,0.1-0.1,0.1-0.2,0l0,0l0,0C29.6,1.3,29.7,1.4,29.8,1.4z"/>
		<path class="st25" d="M38.7,3.4c0.1,0,0.1,0.1,0.1,0.2l0,0c-0.1,0-0.1,0.1-0.2,0.1c0-0.1,0-0.1,0-0.2C38.6,3.4,38.6,3.4,38.7,3.4z
			"/>
		<path class="st26" d="M38.3,8.4L38.3,8.4c0,0.1,0,0.2,0,0.2s0,0-0.1,0l0,0C38.2,8.5,38.2,8.4,38.3,8.4z"/>
		<path class="st27" d="M26.1,20.7c0,0.1,0.1,0.1,0.1,0.2c-0.1,0-0.1,0.1-0.1,0.1C26.2,20.9,26,20.8,26.1,20.7z"/>
		<path class="st21" d="M37.3,13.3c0.1,0.1,0,0.1,0,0.2c0,0,0,0.1-0.1,0.1C37.2,13.5,37.2,13.3,37.3,13.3z"/>
		<path class="st28" d="M37.5,13.5c0-0.1,0.1-0.2,0-0.3c0,0,0.1-0.1,0.1,0S37.6,13.4,37.5,13.5z"/>
		<path class="st29" d="M35.7,23.5c0,0,0-0.1,0.1-0.1s0.1,0.1,0.1,0.1c0,0.1,0,0,0,0l0,0C35.9,23.5,35.8,23.5,35.7,23.5z"/>
		<path class="st21" d="M38.7,6.7L38.7,6.7c0.1,0.1,0.1,0.1,0.1,0.2c0,0,0,0.1-0.1,0.1V6.9C38.7,6.9,38.7,6.8,38.7,6.7L38.7,6.7z"/>
		<path class="st30" d="M38.8,3.5L38.8,3.5c0,0.1,0.2,0.1,0.1,0.2l0,0h-0.1C38.6,3.6,38.7,3.6,38.8,3.5z"/>
		<path class="st31" d="M29.6,1.4L29.6,1.4c0,0.1-0.1,0.1-0.1,0.1s-0.1,0.1-0.1,0c0,0,0.1-0.1,0-0.1V1.3l0,0l0,0
			C29.5,1.4,29.5,1.4,29.6,1.4z"/>
		<path class="st32" d="M24.3,16.3L24.3,16.3c0.1,0,0.2,0,0.2,0.1S24.4,16.5,24.3,16.3C24.3,16.4,24.3,16.4,24.3,16.3
			C24.3,16.4,24.3,16.4,24.3,16.3z"/>
		<path class="st33" d="M27,21.3h0.1c0,0,0.1,0,0.1,0.1s0,0.1-0.1,0.1s-0.1,0.1-0.1,0C26.9,21.4,27,21.3,27,21.3z"/>
		<path class="st34" d="M38.6,9.5l0.1-0.1c0.1,0,0,0.1,0.1,0.1c-0.1,0,0,0.1,0,0.1s0,0.1-0.1,0C38.6,9.7,38.6,9.6,38.6,9.5L38.6,9.5
			z"/>
		<path class="st35" d="M38.6,10c0.1,0.1,0,0.2,0,0.3C38.5,10.2,38.6,10.1,38.6,10L38.6,10z"/>
		<path class="st36" d="M26,17.2c-0.1,0.1-0.1,0.1-0.2,0C25.9,17.2,26,17.1,26,17.2z"/>
		<path class="st37" d="M38.5,9.7c0.1,0,0,0.1,0,0.2l0,0l0,0C38.4,9.9,38.4,9.8,38.5,9.7C38.4,9.7,38.5,9.7,38.5,9.7z"/>
		<path class="st38" d="M39,4.2c0,0,0.1-0.1,0.1-0.2c0.1,0,0,0.2,0.2,0.2c0,0,0,0.1-0.1,0.1C39.1,4.2,39.1,4.2,39,4.2z"/>
		<path class="st13" d="M36.4,17.5c0-0.1-0.1-0.2,0-0.2h0.1C36.5,17.3,36.4,17.4,36.4,17.5z"/>
		<path class="st39" d="M36,17.9c0,0-0.1-0.1,0-0.1s0-0.1,0-0.2c0.1,0,0,0.1,0.1,0.1C36.2,17.7,36.1,17.8,36,17.9
			C36.2,17.9,36.1,17.9,36,17.9z"/>
		<path class="st0" d="M26.9,21.3L26.9,21.3c0,0,0,0.1-0.1,0.1s0,0,0-0.1c0,0,0-0.2,0.1-0.1l0,0C26.9,21.3,26.9,21.3,26.9,21.3z"/>
		<path class="st40" d="M29.5,21.7v-0.1c0.1,0,0.2,0.1,0.1,0.2l0,0l0,0C29.6,21.8,29.6,21.8,29.5,21.7L29.5,21.7z"/>
		<path class="st41" d="M33.6,24.7c0.1,0,0-0.1,0.1-0.1c0,0,0,0.1,0.1,0.1c0,0.1,0,0.1-0.1,0.2C33.6,24.8,33.6,24.7,33.6,24.7z"/>
		<path class="st42" d="M26.5,1.6c0,0,0,0.1-0.1,0.1s-0.2,0-0.2-0.1C26.3,1.5,26.4,1.5,26.5,1.6z"/>
		<path class="st43" d="M31.1,2c0-0.1-0.1-0.1-0.1-0.1c0.1-0.1,0.2-0.1,0.3,0C31.2,1.9,31.2,1.9,31.1,2z"/>
		<path class="st13" d="M32.5,2.4L32.5,2.4L32.5,2.4c-0.1,0-0.1-0.1-0.1-0.2C32.4,2.2,32.4,2.3,32.5,2.4C32.4,2.4,32.4,2.4,32.5,2.4
			z"/>
		<path class="st21" d="M33.4,3.2c0.2-0.1,0.1,0.1,0.2,0.1l0,0C33.5,3.4,33.4,3.4,33.4,3.2L33.4,3.2z"/>
		<path class="st44" d="M38.9,7.4C38.8,7.4,38.8,7.4,38.9,7.4c0,0.1,0,0.2-0.1,0.2C38.7,7.5,38.7,7.4,38.9,7.4
			C38.9,7.3,38.9,7.3,38.9,7.4z"/>
		<path class="st45" d="M38.5,8.1C38.5,8.1,38.4,8.2,38.5,8.1L38.4,8c0-0.1,0-0.1,0.1-0.1l0,0C38.4,8,38.5,8,38.5,8.1z"/>
		<path class="st46" d="M37.5,14C37.5,13.9,37.4,13.9,37.5,14l-0.2-0.1l0,0l0,0c0.1,0,0.1,0,0.2-0.1C37.6,13.9,37.6,14,37.5,14z"/>
		<path class="st41" d="M36.4,16.5C36.4,16.4,36.4,16.4,36.4,16.5c0.1-0.1,0.2-0.1,0.3-0.1v0.1l0,0h-0.1
			C36.5,16.4,36.5,16.5,36.4,16.5z"/>
		<path class="st47" d="M27.8,17.5c0-0.1,0.1-0.1,0.2-0.2C28,17.5,27.9,17.6,27.8,17.5z"/>
		<path class="st48" d="M25.2,16.6L25.2,16.6c0,0.1,0.1,0.1,0.1,0.2c-0.1,0-0.2,0-0.2-0.1C25.1,16.7,25.2,16.7,25.2,16.6z"/>
		<path class="st49" d="M39.2,6.3L39.1,6V5.9l0,0c0,0,0,0,0,0.1S39.2,6.2,39.2,6.3z"/>
		<path class="st6" d="M37.6,20.5L37.6,20.5c0.1,0.1,0.1,0.1,0,0.1c0,0-0.2,0.1-0.2-0.1C37.5,20.5,37.5,20.6,37.6,20.5z"/>
		<path class="st50" d="M38.8,8.7C38.8,8.7,38.7,8.8,38.8,8.7c-0.1-0.1-0.1-0.2,0-0.2C38.8,8.5,38.9,8.6,38.8,8.7z"/>
		<path class="st51" d="M39.2,4.6L39.2,4.6C39.2,4.5,39.1,4.5,39.2,4.6C39.1,4.4,39.2,4.5,39.2,4.6C39.2,4.5,39.2,4.5,39.2,4.6
			L39.2,4.6C39.3,4.7,39.3,4.7,39.2,4.6L39.2,4.6z"/>
		<path class="st52" d="M36.9,15.2L36.9,15.2c0,0.1,0,0.2,0,0.3h-0.1c0-0.1,0-0.1,0-0.1C36.9,15.3,36.9,15.2,36.9,15.2z"/>
		<path class="st53" d="M37.1,15.1L37,15c-0.1,0,0,0,0,0l0,0c0.1,0,0-0.2,0.1-0.1C37.3,15.1,37.2,15.1,37.1,15.1z"/>
		<path class="st54" d="M38.9,6.7c0-0.1,0-0.2,0.1-0.2C39,6.6,39,6.7,38.9,6.7z"/>
		<path class="st55" d="M25.5,17c0,0,0.1-0.1,0.2,0c0,0.1,0,0.1,0,0.1C25.5,17.2,25.5,17.1,25.5,17C25.4,17,25.5,17,25.5,17L25.5,17
			z"/>
		<path class="st56" d="M34.7,23.2c0-0.1,0-0.1,0.1-0.1s0.1,0,0.2,0.1c0,0,0,0,0,0.1C34.8,23.2,34.7,23.2,34.7,23.2z"/>
		<path class="st57" d="M34.3,23.9L34.3,23.9c0.1,0.1,0,0.1,0,0.1s0,0.1-0.1,0.1S34.2,24,34.3,23.9C34.2,23.8,34.3,23.8,34.3,23.9z"
			/>
		<path class="st58" d="M25.3,16.8c0,0-0.1-0.1,0-0.2c0.1,0,0.1,0,0.1,0L25.3,16.8C25.3,16.7,25.4,16.9,25.3,16.8z"/>
		<path class="st59" d="M36.6,16.1c0-0.1-0.1-0.2,0.1-0.3c0,0.1,0,0.1,0,0.2C36.7,16.1,36.7,16.1,36.6,16.1L36.6,16.1z"/>
		<path class="st60" d="M25.6,19c0,0.1,0,0.1-0.1,0.1h-0.1C25.5,19.1,25.5,19,25.6,19z"/>
		<path class="st61" d="M27.6,18.1c0,0.1-0.1,0.1-0.2,0V18C27.5,18,27.5,18.1,27.6,18.1z"/>
		<path class="st62" d="M28.5,21.5L28.5,21.5c0.1,0,0.1,0,0.2,0c0.1,0.1,0.2,0,0.2,0.1l0,0h-0.1C28.7,21.5,28.6,21.6,28.5,21.5z"/>
		<path class="st63" d="M30.6,1.7L30.6,1.7c0.1-0.1,0.2-0.1,0.2,0c0,0,0,0.1-0.1,0C30.7,1.7,30.7,1.7,30.6,1.7z"/>
		<path class="st35" d="M38.8,7.8L38.8,7.8c0.1,0.1-0.1,0.1-0.1,0.2C38.6,7.8,38.6,7.8,38.8,7.8z"/>
		<path class="st8" d="M27.2,21.3L27.2,21.3c-0.1-0.1-0.2-0.1-0.1-0.2C27.1,21.3,27.2,21.2,27.2,21.3c0.1-0.1,0.1,0,0.1,0
			C27.3,21.4,27.2,21.4,27.2,21.3z"/>
		<path class="st64" d="M35.7,18.5L35.7,18.5C35.9,18.4,35.7,18.5,35.7,18.5c0.2,0,0.2,0.1,0.1,0.1S35.8,18.5,35.7,18.5z"/>
		<path class="st65" d="M35.6,19.6c-0.1,0-0.1-0.1-0.1-0.2s0.1,0,0.1,0S35.6,19.5,35.6,19.6z"/>
		<path class="st66" d="M25.5,17L25.5,17c0,0-0.1,0.1-0.1,0c0,0-0.1,0-0.1-0.1C25.3,16.9,25.3,16.9,25.5,17L25.5,17z"/>
		<path class="st67" d="M38.6,3.7L38.6,3.7c-0.1-0.1-0.2-0.1-0.1-0.2l0.1-0.1C38.6,3.5,38.6,3.6,38.6,3.7L38.6,3.7z"/>
		<path class="st68" d="M30,1.5l-0.1,0.1l0,0c0,0,0,0,0-0.1S29.9,1.4,30,1.5C30,1.4,30,1.4,30,1.5C30,1.4,30,1.5,30,1.5z"/>
		<path class="st69" d="M38.4,21.1c-0.1,0-0.1,0.1-0.1,0.1c0-0.1,0.1-0.1,0.1-0.2h0.1C38.5,21,38.5,21.1,38.4,21.1z"/>
		<path class="st70" d="M38.4,7.9L38.4,7.9c-0.1-0.1-0.1-0.2,0-0.2l0,0C38.5,7.8,38.4,7.8,38.4,7.9L38.4,7.9z"/>
		<path class="st71" d="M36.6,16.1V16C36.8,16,36.7,16,36.6,16.1c0.1,0,0.1,0,0.1,0.1C36.7,16.2,36.6,16.2,36.6,16.1z"/>
		<path class="st72" d="M27.7,21.5c-0.1,0-0.1,0.1-0.2,0.1l0,0C27.6,21.5,27.6,21.4,27.7,21.5z"/>
		<path class="st73" d="M39.2,4.9C39.2,4.9,39.2,4.8,39.2,4.9c-0.2-0.1-0.1-0.2,0-0.2C39.3,4.8,39.3,4.9,39.2,4.9z"/>
		<path class="st74" d="M38.7,3.4L38.7,3.4C38.6,3.5,38.6,3.4,38.7,3.4C38.6,3.4,38.6,3.3,38.7,3.4C38.7,3.3,38.7,3.3,38.7,3.4z"/>
		<path class="st75" d="M38.3,3.4c-0.2,0,0-0.1-0.1-0.2c0,0,0.1,0,0.1,0.1V3.4L38.3,3.4z"/>
		<path class="st76" d="M26.5,21L26.5,21c0.1,0.2,0.1,0.2,0,0.2S26.5,21.1,26.5,21z"/>
		<path class="st77" d="M38.2,11.4c0.1,0,0.1-0.1,0.2-0.2C38.4,11.3,38.4,11.4,38.2,11.4L38.2,11.4z"/>
		<path class="st78" d="M38,9.9c0-0.1,0-0.1,0-0.2l0,0C38,9.8,38.2,9.9,38,9.9z"/>
		<path class="st79" d="M36.3,18.6c0-0.1-0.1-0.2,0-0.3C36.4,18.4,36.4,18.5,36.3,18.6z"/>
		<path class="st50" d="M36.7,16.5v-0.1c0.1,0,0-0.1,0.1-0.1C36.8,16.4,36.8,16.5,36.7,16.5z"/>
		<path class="st80" d="M37.8,13c0,0.1,0,0.2-0.1,0.2L37.8,13C37.7,13,37.7,13,37.8,13L37.8,13z"/>
		<path class="st81" d="M39.2,7.5L39.2,7.5L39,7.6l0.1-0.3C39.2,7.4,39.1,7.4,39.2,7.5L39.2,7.5z"/>
		<path class="st26" d="M27.4,17.4c0.1,0.1-0.1,0.1,0,0.2C27.3,17.5,27.2,17.5,27.4,17.4L27.4,17.4z"/>
		<path class="st82" d="M36.2,17.9c0.1-0.1,0.1-0.1,0.2-0.1C36.4,17.8,36.3,17.8,36.2,17.9L36.2,17.9L36.2,17.9L36.2,17.9L36.2,17.9
			z"/>
		<path class="st53" d="M37.4,13.9L37.4,13.9l-0.2-0.1l0.1-0.1C37.4,13.8,37.5,13.8,37.4,13.9z"/>
		<path class="st83" d="M38.9,7.4C38.9,7.4,38.9,7.3,38.9,7.4L38.9,7.4C38.9,7.3,38.9,7.2,38.9,7.4c0.1-0.1,0.2-0.1,0.2,0H38.9z"/>
		<path class="st84" d="M38.9,7.3L38.9,7.3c-0.1,0-0.1-0.1-0.1-0.2C39,7.1,38.9,7.2,38.9,7.3z"/>
		<path class="st2" d="M34.9,23.2L34.9,23.2c-0.1-0.1,0-0.1,0-0.2C35,23.1,35,23.1,34.9,23.2C35,23.2,35,23.2,34.9,23.2L34.9,23.2z"
			/>
		<path class="st0" d="M36.5,2.8C36.4,2.8,36.4,2.8,36.5,2.8L36.5,2.8C36.5,2.7,36.4,2.8,36.5,2.8z"/>
		<path class="st85" d="M27.8,17.3c0-0.1,0-0.1,0-0.2c0.1,0,0.1,0,0.1,0.1S27.9,17.4,27.8,17.3z"/>
		<path class="st86" d="M38.1,11.3C38.1,11.2,38,11.3,38.1,11.3c-0.1-0.1,0-0.1,0-0.1S38.2,11.1,38.1,11.3
			C38.1,11.2,38.2,11.3,38.1,11.3z"/>
		<path class="st54" d="M36.5,17.3L36.5,17.3l-0.1-0.1l0,0C36.5,17.2,36.6,17.3,36.5,17.3z"/>
		<path class="st87" d="M35.8,18.6c0.1,0,0.1-0.1,0-0.1c0,0,0,0,0.1,0l0,0C36,18.5,35.9,18.6,35.8,18.6
			C35.9,18.6,35.9,18.7,35.8,18.6L35.8,18.6z"/>
		<path class="st88" d="M39.1,7.8L39.1,7.8C39.1,7.9,39.1,7.9,39.1,7.8C39,7.9,39,7.8,39.1,7.8C39,7.8,39,7.7,39.1,7.8z"/>
		<path class="st89" d="M37.5,11.8c0-0.1,0-0.1,0.1-0.2C37.7,11.8,37.6,11.8,37.5,11.8z"/>
		<path class="st90" d="M35.9,23.5L35.9,23.5h0.2L36,23.6C36,23.6,36,23.6,35.9,23.5L35.9,23.5z"/>
		<path class="st0" d="M38.6,3.4L38.6,3.4v0.3l0,0V3.4L38.6,3.4z"/>
		<path class="st91" d="M36.5,20.2c-0.1,0-0.1,0.1-0.2,0C36.3,20.2,36.4,20.1,36.5,20.2z"/>
		<path class="st92" d="M39.2,4.4c-0.1,0-0.1-0.1-0.1-0.2h0.1C39.2,4.3,39.2,4.4,39.2,4.4C39.3,4.4,39.3,4.4,39.2,4.4z"/>
		<path class="st58" d="M37.9,20.8c0,0,0.1,0.1,0,0.1C37.9,20.9,37.9,20.9,37.9,20.8C37.8,20.8,37.8,20.8,37.9,20.8
			C37.9,20.7,37.9,20.8,37.9,20.8z"/>
		<path class="st93" d="M37.2,13.1c0,0,0-0.1,0.1-0.1s0.1,0,0.1,0.1C37.3,13.1,37.3,13.1,37.2,13.1z"/>
		<path class="st94" d="M37.6,20.6L37.6,20.6c0.1-0.1,0.2-0.1,0.2,0C37.7,20.7,37.6,20.7,37.6,20.6z"/>
		<path class="st95" d="M39.2,5.2c-0.1-0.1,0-0.1,0-0.2C39.4,5.1,39.3,5.1,39.2,5.2z"/>
		<path class="st96" d="M38.8,8.7V8.5C38.9,8.5,38.9,8.6,38.8,8.7C38.9,8.6,39,8.7,38.8,8.7z"/>
		<path class="st4" d="M38.2,8.6L38.2,8.6c0.1,0.1,0.1,0.2,0,0.2C38.2,8.8,38.3,8.7,38.2,8.6L38.2,8.6z"/>
		<path class="st87" d="M38.1,12c0.1,0,0.1,0,0,0.1s-0.1,0.1-0.1,0S38,12,38.1,12z"/>
		<path class="st8" d="M35.9,19c0.1,0.1,0.1,0.2,0,0.2C35.9,19.1,35.9,19.1,35.9,19z"/>
		<path class="st97" d="M38.8,8.9C38.7,8.9,38.7,8.9,38.8,8.9c0-0.1,0-0.2,0.1-0.2S38.8,8.9,38.8,8.9z"/>
		<path class="st35" d="M35,23.5c-0.1,0-0.1,0-0.2,0l0,0l0,0C34.9,23.4,34.9,23.4,35,23.5z"/>
		<path class="st98" d="M35.2,23.3C35.2,23.3,35.3,23.2,35.2,23.3C35.4,23.3,35.2,23.4,35.2,23.3C35.1,23.4,35.2,23.3,35.2,23.3z"/>
		<path class="st84" d="M32.8,2.8c0-0.1,0.1-0.1,0-0.2c0.1,0,0.1,0.1,0.2,0.2l0,0C32.9,2.8,32.9,2.8,32.8,2.8z"/>
		<path class="st99" d="M33.6,2.7C33.7,2.7,33.7,2.7,33.6,2.7C33.7,2.9,33.7,2.8,33.6,2.7L33.6,2.7z"/>
		<path class="st100" d="M38.3,3.4V3.3h0.1C38.4,3.3,38.4,3.3,38.3,3.4L38.3,3.4L38.3,3.4z"/>
		<path class="st101" d="M38.5,3.5c-0.1,0.1,0,0.1,0,0.2C38.4,3.6,38.4,3.6,38.5,3.5C38.4,3.4,38.5,3.5,38.5,3.5z"/>
		<path class="st102" d="M35.8,20.2c0,0.2-0.1,0-0.2,0.1C35.6,20.2,35.7,20.2,35.8,20.2L35.8,20.2z"/>
		<path class="st103" d="M33.9,3L33.9,3L33.9,3L33.9,3L33.9,3C33.9,3.1,33.8,3,33.9,3z"/>
		<path class="st104" d="M37,15C37,15,37,15.1,37,15l-0.1,0.1L37,15l-0.1-0.2l0,0C37,14.9,36.9,15,37,15L37,15z"/>
		<path class="st105" d="M39.2,7c0.1,0.1,0,0.1,0,0.2C39.1,7.1,39.1,7.1,39.2,7L39.2,7z"/>
		<path class="st106" d="M28.9,21.7c0,0,0.1-0.1,0.1,0v0.1C28.9,21.8,28.9,21.8,28.9,21.7C28.8,21.7,28.8,21.7,28.9,21.7L28.9,21.7z
			"/>
		<path class="st107" d="M36.2,17.9L36.2,17.9c0,0.1,0,0.2-0.1,0.2V18C36.1,17.9,36.1,17.8,36.2,17.9L36.2,17.9z"/>
		<path class="st108" d="M28.3,21.7C28.4,21.7,28.4,21.7,28.3,21.7c0.1,0.1,0.1,0.1,0,0.1C28.3,21.8,28.3,21.7,28.3,21.7L28.3,21.7z
			"/>
		<path class="st109" d="M39.2,23.1c0,0,0-0.1,0-0.2V23.1L39.2,23.1z"/>
		<path class="st110" d="M36.8,16.2v-0.1c0,0,0.1,0,0.1-0.1C36.8,16.1,36.8,16.1,36.8,16.2z"/>
		<path class="st111" d="M26.9,17.3H27l0,0c0,0,0,0,0,0.1h-0.1C26.9,17.4,26.9,17.4,26.9,17.3L26.9,17.3L26.9,17.3z"/>
		<path class="st112" d="M36.6,20.2c0.1,0,0.1,0,0.1,0.1s0,0-0.1,0C36.7,20.3,36.6,20.3,36.6,20.2z"/>
		<path class="st113" d="M27,17.4C27,17.4,27,17.3,27,17.4c0-0.1,0.1-0.1,0.1,0C27.1,17.4,27.2,17.5,27,17.4
			C27,17.3,27,17.4,27,17.4z"/>
		<path class="st73" d="M38.6,9.6C38.6,9.6,38.6,9.7,38.6,9.6c0.1,0.1,0.1,0.2,0,0.2C38.6,9.7,38.6,9.6,38.6,9.6z"/>
		<path class="st0" d="M37,20.5L37,20.5c0-0.1,0-0.1,0.1-0.1c0,0,0.1,0,0,0C37.1,20.4,37.1,20.5,37,20.5z"/>
		<path class="st114" d="M30,17.1L30,17.1c0.2,0.1,0,0.1,0,0.1S30,17.2,30,17.1z"/>
		<path class="st115" d="M37.8,13C37.8,13,37.7,13,37.8,13c-0.2-0.1-0.1-0.1,0-0.1V13z"/>
		<path class="st116" d="M39,5.8C39.1,5.8,39.1,5.8,39,5.8c0.1,0,0.2,0,0.2,0.1s0,0-0.1,0l0,0L39,5.8C39.1,6,39,5.9,39,5.8
			C39,5.9,39,5.9,39,5.8L39,5.8z"/>
		<path class="st71" d="M39.3,4.4C39.2,4.4,39.2,4.3,39.3,4.4C39.3,4.2,39.4,4.3,39.3,4.4L39.3,4.4z"/>
		<path class="st110" d="M33.4,3.2L33.4,3.2L33.4,3.2L33.4,3.2L33.4,3.2C33.4,3.1,33.4,3.2,33.4,3.2L33.4,3.2z"/>
		<path class="st78" d="M33.4,3.1L33.4,3.1L33.4,3.1C33.3,3,33.3,2.9,33.4,3.1C33.5,3.1,33.4,3,33.4,3.1z"/>
		<path class="st16" d="M33.3,3L33.3,3c-0.1,0.1-0.1,0-0.2,0l0,0c0-0.1,0-0.1,0.1-0.1C33.3,2.8,33.3,2.9,33.3,3z"/>
		<path class="st62" d="M33.2,2.9L33.2,2.9C33.1,3,33.1,3,33.1,3S33.1,3,33.2,2.9C33.1,2.8,33.2,2.8,33.2,2.9z"/>
		<path class="st117" d="M34.5,2.9L34.5,2.9C34.4,2.9,34.4,2.8,34.5,2.9C34.5,2.8,34.5,2.8,34.5,2.9L34.5,2.9z"/>
		<path class="st118" d="M37.4,12.6L37.4,12.6C37.2,12.6,37.2,12.6,37.4,12.6C37.3,12.6,37.4,12.6,37.4,12.6z"/>
		<path class="st119" d="M28.7,1.5c-0.1,0-0.1,0-0.1-0.1S28.7,1.3,28.7,1.5C28.8,1.4,28.8,1.4,28.7,1.5z"/>
		<path class="st120" d="M28.3,1.3l-0.1,0.1C28.2,1.3,28.2,1.3,28.3,1.3L28.3,1.3z"/>
		<path class="st121" d="M27.3,1.3c-0.1,0,0,0.1,0,0.1c-0.1,0,0-0.1-0.1-0.1C27.2,1.2,27.2,1.3,27.3,1.3z"/>
		<path class="st122" d="M34.3,23.9L34.3,23.9l-0.1-0.1C34.3,23.7,34.3,23.8,34.3,23.9z"/>
		<path class="st123" d="M35.9,23.5C36,23.5,36,23.6,35.9,23.5c0.1,0.1,0.1,0.2,0.1,0.2S35.9,23.6,35.9,23.5z"/>
		<path class="st14" d="M37.6,20.5C37.6,20.6,37.5,20.6,37.6,20.5C37.4,20.4,37.5,20.6,37.6,20.5z"/>
		<path class="st124" d="M36.4,20.4c-0.1,0-0.1,0-0.1-0.1C36.4,20.3,36.4,20.4,36.4,20.4z"/>
		<path class="st106" d="M39.4,5.5c0-0.1,0-0.1,0.1-0.2C39.4,5.4,39.4,5.4,39.4,5.5z"/>
		<path class="st125" d="M27.9,17.3C27.9,17.2,27.9,17.2,27.9,17.3C27.9,17.1,28,17.2,27.9,17.3L27.9,17.3z"/>
		<path class="st0" d="M39.3,4.7C39.3,4.7,39.3,4.6,39.3,4.7c0.1-0.1,0.1,0,0.2,0C39.4,4.7,39.3,4.7,39.3,4.7z"/>
		<path class="st58" d="M36.4,17.1C36.4,17,36.5,17,36.4,17.1C36.5,17,36.5,17.1,36.4,17.1C36.5,17.1,36.5,17.1,36.4,17.1L36.4,17.1
			z"/>
		<path class="st126" d="M38.1,9L38.1,9L38.1,9C38.2,9,38.2,9,38.1,9v0.1C38.2,9.1,38.1,9,38.1,9z"/>
		<path class="st127" d="M38.2,9L38.2,9C38.2,9,38.3,9.1,38.2,9C38.2,9.2,38.2,9.1,38.2,9z"/>
		<path class="st100" d="M37.5,13.6c0-0.1,0-0.1,0.1-0.1C37.6,13.6,37.6,13.6,37.5,13.6z"/>
		<path class="st15" d="M37.1,13.4c0,0.1,0,0.1-0.1,0.1C37,13.4,37.1,13.4,37.1,13.4L37.1,13.4z"/>
		<path class="st128" d="M37.5,20.9C37.5,20.9,37.5,20.8,37.5,20.9c0-0.1,0-0.1,0.1-0.1C37.6,20.8,37.5,20.8,37.5,20.9z"/>
		<path class="st129" d="M39.3,4.4L39.3,4.4C39.4,4.5,39.4,4.5,39.3,4.4L39.3,4.4L39.3,4.4z"/>
		<path class="st21" d="M27.4,21.4C27.4,21.4,27.5,21.4,27.4,21.4c0.1,0.1,0.1,0.1,0,0.1C27.4,21.5,27.4,21.5,27.4,21.4L27.4,21.4z"
			/>
		<path class="st130" d="M35.6,18.8c0-0.1-0.1-0.1,0-0.1C35.7,18.7,35.7,18.8,35.6,18.8z"/>
		<path class="st131" d="M28.4,21.7C28.5,21.7,28.5,21.7,28.4,21.7c0.1,0,0.1,0,0.1,0C28.6,21.8,28.6,21.8,28.4,21.7
			C28.5,21.8,28.5,21.8,28.4,21.7C28.5,21.8,28.5,21.7,28.4,21.7z"/>
		<path class="st0" d="M28.1,17.4c0.1,0,0.1,0,0.2,0.1C28.1,17.5,28.1,17.4,28.1,17.4z"/>
		<path class="st0" d="M38.7,21.2L38.7,21.2L38.7,21.2C38.6,21.1,38.7,21.1,38.7,21.2z"/>
		<path class="st106" d="M39.1,3.6C39.1,3.5,39.1,3.5,39.1,3.6C39.2,3.5,39.2,3.6,39.1,3.6z"/>
		<path class="st6" d="M26.9,17.3L26.9,17.3c-0.1,0.1-0.1,0.1-0.1,0.1L26.9,17.3z"/>
		<path class="st100" d="M35.5,20.2C35.5,20.2,35.5,20.1,35.5,20.2c0.1,0,0.1-0.1,0.2-0.1c0.1,0,0,0,0,0
			C35.7,20.2,35.6,20.2,35.5,20.2z"/>
		<path class="st80" d="M29,22.8C29,22.8,28.9,22.8,29,22.8L29,22.8C29,22.8,29.1,22.8,29,22.8C29.1,22.8,29,22.9,29,22.8z"/>
		<path class="st47" d="M28.3,17.3L28.3,17.3C28.4,17.2,28.4,17.3,28.3,17.3L28.3,17.3C28.4,17.4,28.3,17.4,28.3,17.3z"/>
		<path class="st132" d="M26.6,17.3L26.6,17.3C26.6,17.3,26.7,17.3,26.6,17.3C26.6,17.4,26.5,17.4,26.6,17.3
			C26.5,17.3,26.6,17.3,26.6,17.3z"/>
		<path class="st46" d="M38.7,7.2C38.7,7.3,38.7,7.3,38.7,7.2C38.5,7.3,38.6,7.2,38.7,7.2C38.6,7.1,38.7,7.2,38.7,7.2z"/>
		<path class="st133" d="M35.5,20.2h0.2l0,0C35.7,20.2,35.7,20.2,35.5,20.2C35.6,20.3,35.5,20.2,35.5,20.2z"/>
		<path class="st134" d="M38.7,6.8c0.2,0.1,0,0.1,0,0.2l0,0C38.7,6.9,38.7,6.8,38.7,6.8L38.7,6.8z"/>
		<path class="st135" d="M28.4,17.3L28.4,17.3c0-0.1,0-0.1,0-0.1S28.5,17.2,28.4,17.3L28.4,17.3z"/>
		<path class="st136" d="M29.3,18.5L29.3,18.5C29.2,18.5,29.1,18.4,29.3,18.5C29.2,18.4,29.2,18.4,29.3,18.5
			C29.3,18.4,29.3,18.5,29.3,18.5z"/>
		<path class="st137" d="M25.1,16.5c0.1,0,0.1-0.1,0.1,0s-0.1,0.1-0.1,0.1V16.5z"/>
		<path class="st138" d="M27.6,17.7L27.6,17.7c0,0.1,0,0.1,0,0.1C27.5,17.8,27.5,17.8,27.6,17.7C27.5,17.7,27.5,17.7,27.6,17.7z"/>
		<path class="st101" d="M38.6,9.9L38.6,9.9C38.6,9.9,38.7,9.8,38.6,9.9C38.7,10,38.6,9.9,38.6,9.9C38.6,10,38.6,9.9,38.6,9.9z"/>
		<path class="st122" d="M35.8,18.9L35.8,18.9l-0.1,0.2C35.7,19,35.7,18.9,35.8,18.9z"/>
		<path class="st44" d="M37.9,11.7c0,0.1,0,0.1,0,0.1C37.9,11.7,37.9,11.7,37.9,11.7z"/>
		<path class="st139" d="M38.1,12L38,12.1C38,12,38,12,38.1,12z"/>
		<path class="st48" d="M37.9,12.3C37.9,12.4,37.9,12.4,37.9,12.3C37.8,12.4,37.9,12.4,37.9,12.3L37.9,12.3L37.9,12.3z"/>
		<path class="st140" d="M38.5,9.7L38.5,9.7C38.4,9.7,38.4,9.7,38.5,9.7C38.5,9.6,38.5,9.7,38.5,9.7z"/>
		<path class="st141" d="M38.9,9.3L38.9,9.3C38.8,9.2,38.8,9.1,38.9,9.3C38.9,9.2,38.9,9.2,38.9,9.3z"/>
		<path class="st7" d="M37.2,13.9L37.2,13.9C37.1,13.9,37.1,13.9,37.2,13.9c-0.1-0.1-0.1-0.1-0.1-0.1C37.1,13.7,37.1,13.8,37.2,13.9
			L37.2,13.9z"/>
		<path class="st0" d="M37,15L37,15l-0.1-0.2l0,0L37,15z"/>
		<path class="st142" d="M37.2,15.6L37.2,15.6C37.2,15.6,37.2,15.7,37.2,15.6C37.2,15.7,37.2,15.7,37.2,15.6
			C37.2,15.7,37.1,15.6,37.2,15.6C37.1,15.6,37.1,15.5,37.2,15.6z"/>
		<path class="st135" d="M24.7,16.1L24.7,16.1c0,0.1,0,0.1-0.1,0.1C24.6,16.1,24.6,16.1,24.7,16.1C24.6,16.1,24.7,16.1,24.7,16.1z"
			/>
		<path class="st143" d="M25,16.3c0,0,0.1,0.1,0,0.2C25,16.5,25.1,16.4,25,16.3z"/>
		<path class="st58" d="M24.6,16.5L24.6,16.5C24.6,16.6,24.5,16.7,24.6,16.5C24.5,16.5,24.5,16.5,24.6,16.5z"/>
		<path class="st144" d="M36.6,16.5L36.6,16.5c0.1,0,0,0.1,0,0.2C36.5,16.6,36.6,16.6,36.6,16.5z"/>
		<path class="st72" d="M36.4,16.8C36.4,16.8,36.4,16.7,36.4,16.8C36.5,16.8,36.5,16.8,36.4,16.8C36.4,16.9,36.4,16.8,36.4,16.8
			L36.4,16.8z"/>
		<path class="st145" d="M25.1,17.1L25.1,17.1C25.2,17.1,25.2,17.1,25.1,17.1c0.1,0,0.1,0,0.1,0S25.2,17.2,25.1,17.1L25.1,17.1z"/>
		<path class="st78" d="M38.4,7.9L38.4,7.9C38.4,7.8,38.5,7.7,38.4,7.9C38.5,7.8,38.5,7.8,38.4,7.9z"/>
		<path class="st73" d="M26.2,17.1L26.2,17.1v0.1C26.1,17.3,26.1,17.2,26.2,17.1C26.1,17.2,26.2,17.2,26.2,17.1z"/>
		<path class="st146" d="M28.7,17.3c0-0.1-0.1-0.1-0.1-0.1C28.7,17.1,28.7,17.2,28.7,17.3L28.7,17.3z"/>
		<path class="st147" d="M37.8,10.9C37.8,10.9,37.7,11,37.8,10.9C37.7,10.8,37.7,10.8,37.8,10.9L37.8,10.9L37.8,10.9L37.8,10.9z"/>
		<path class="st148" d="M39.2,7.5L39.2,7.5C39.2,7.5,39.3,7.5,39.2,7.5C39.2,7.6,39.2,7.5,39.2,7.5L39.2,7.5z"/>
		<path class="st27" d="M36.2,17.9L36.2,17.9c0.1,0.1,0,0.1,0,0.1V17.9z"/>
		<path class="st149" d="M36,18.1l0.1-0.1C36.1,18.2,36.1,18.2,36,18.1z"/>
		<path class="st38" d="M29,18.2v0.1l0,0l0,0l0,0l0,0C28.9,18.3,28.9,18.3,29,18.2C28.9,18.1,28.9,18.2,29,18.2L29,18.2z"/>
		<path class="st150" d="M29,18.4L29,18.4l0.1-0.1C29.1,18.4,29.1,18.4,29,18.4z"/>
		<path class="st151" d="M37.8,10.9L37.8,10.9L37.8,10.9C37.8,10.9,37.8,11,37.8,10.9C37.7,11,37.8,10.9,37.8,10.9z"/>
		<path class="st152" d="M36.2,18.9L36.2,18.9C36.2,18.8,36.2,18.8,36.2,18.9C36.2,18.8,36.2,18.8,36.2,18.9
			C36.3,18.9,36.2,18.9,36.2,18.9L36.2,18.9z"/>
		<path class="st4" d="M38.4,3.4C38.4,3.4,38.4,3.3,38.4,3.4C38.4,3.3,38.4,3.2,38.4,3.4C38.5,3.3,38.4,3.4,38.4,3.4z"/>
		<path class="st153" d="M33.9,3.1C33.9,3.2,33.9,3.2,33.9,3.1C33.8,3.2,33.8,3.2,33.9,3.1L33.9,3.1z"/>
		<path class="st7" d="M39.3,6.9L39.3,6.9L39.3,6.9L39.3,6.9z"/>
		<path class="st154" d="M36.8,20.3c0.1,0,0.1,0,0.1,0.1C36.8,20.4,36.9,20.3,36.8,20.3z"/>
		<path class="st0" d="M38.2,20.8L38.2,20.8C38.3,20.8,38.3,20.8,38.2,20.8c0.1,0.1,0.1,0.1,0,0.1s0,0,0,0l0,0V20.8L38.2,20.8z"/>
		<path class="st55" d="M38.2,20.9L38.2,20.9V21c0,0,0,0-0.1,0C38.2,21,38.2,20.9,38.2,20.9z"/>
		<path class="st155" d="M38.8,21.4L38.8,21.4c-0.1-0.1-0.1-0.2,0-0.2s0.1,0,0,0C38.8,21.4,38.8,21.4,38.8,21.4z"/>
		<path class="st156" d="M28.2,21.8L28.2,21.8C28.1,21.8,28.1,21.8,28.2,21.8C28.1,21.8,28.1,21.7,28.2,21.8
			C28.2,21.7,28.2,21.8,28.2,21.8z"/>
		<path class="st157" d="M39.1,6.4C39.1,6.3,39.1,6.3,39.1,6.4C39.2,6.3,39.2,6.4,39.1,6.4C39.2,6.5,39.1,6.4,39.1,6.4z"/>
		<path class="st158" d="M28.8,22.6L28.8,22.6c-0.1,0-0.1,0-0.1,0C28.7,22.5,28.8,22.5,28.8,22.6L28.8,22.6z"/>
		<path class="st133" d="M34.5,2.9C34.5,2.9,34.5,2.8,34.5,2.9L34.5,2.9C34.5,2.9,34.6,3,34.5,2.9z"/>
		<path class="st113" d="M39.1,23.3L39.1,23.3C39.2,23.3,39.2,23.3,39.1,23.3C39.1,23.4,39.1,23.4,39.1,23.3z"/>
		<path class="st159" d="M34,24.3L34,24.3v0.2C33.9,24.4,34,24.3,34,24.3z"/>
		<path class="st69" d="M39.2,6C39.2,5.9,39.2,5.9,39.2,6C39.3,5.9,39.3,6,39.2,6L39.2,6L39.2,6z"/>
		<path class="st160" d="M35.2,2.5C35.2,2.6,35.2,2.6,35.2,2.5C35.1,2.6,35.1,2.6,35.2,2.5C35.1,2.5,35.1,2.5,35.2,2.5L35.2,2.5z"/>
		<path class="st7" d="M34.4,2.5L34.4,2.5C34.4,2.6,34.4,2.6,34.4,2.5C34.4,2.6,34.4,2.6,34.4,2.5L34.4,2.5z"/>
		<path class="st161" d="M30.1,1.5L30.1,1.5C30,1.4,30.1,1.4,30.1,1.5C30.2,1.5,30.2,1.5,30.1,1.5z"/>
		<path class="st53" d="M30.4,26.7l0.1-0.2L30.4,26.7L30.4,26.7z"/>
		<path class="st12" d="M39.2,5.4L39.2,5.4C39.3,5.4,39.3,5.5,39.2,5.4L39.2,5.4C39.1,5.5,39.1,5.5,39.2,5.4L39.2,5.4z"/>
		<path class="st0" d="M38.2,11.4L38.2,11.4c0,0.1,0,0.2-0.1,0.1S38.2,11.4,38.2,11.4z"/>
		<path class="st162" d="M24.7,16.8c0,0-0.1,0.1-0.1,0H24.7z"/>
		<path class="st141" d="M37.9,20.6C37.9,20.7,37.9,20.7,37.9,20.6C37.8,20.7,37.8,20.7,37.9,20.6C37.8,20.7,37.8,20.6,37.9,20.6
			C37.8,20.6,37.8,20.6,37.9,20.6z"/>
		<path class="st163" d="M38.3,20.8L38.3,20.8C38.3,20.8,38.3,20.7,38.3,20.8C38.4,20.8,38.3,20.8,38.3,20.8z"/>
		<path class="st160" d="M38.2,20.8v0.1h-0.1L38.2,20.8L38.2,20.8z"/>
		<path class="st93" d="M26.9,21.3v-0.1C26.9,21.2,26.9,21.3,26.9,21.3C26.9,21.4,26.9,21.3,26.9,21.3z"/>
		<path class="st106" d="M39.1,7.8C39,7.7,39,7.8,39.1,7.8C39,7.8,39,7.8,39.1,7.8L39.1,7.8C39.1,7.7,39.1,7.7,39.1,7.8z"/>
		<path class="st164" d="M30.1,1.5L30.1,1.5c0.1-0.1,0.1-0.1,0.1-0.1L30.1,1.5C30.2,1.5,30.2,1.5,30.1,1.5L30.1,1.5z"/>
		<path class="st165" d="M36.4,17.1L36.4,17.1v0.2l0,0V17.1L36.4,17.1z"/>
		<path class="st166" d="M28.8,21.5h0.1C28.9,21.6,28.8,21.6,28.8,21.5C28.8,21.6,28.8,21.6,28.8,21.5L28.8,21.5z"/>
		<path class="st167" d="M28.8,21.6L28.8,21.6C28.8,21.7,28.8,21.7,28.8,21.6l0.1,0.1C28.7,21.8,28.8,21.7,28.8,21.6z"/>
		<path class="st168" d="M27.1,1.4C27.1,1.4,27.2,1.4,27.1,1.4C27.1,1.5,27.1,1.5,27.1,1.4L27.1,1.4z"/>
		<path class="st89" d="M39.5,6.3L39.5,6.3L39.5,6.3C39.4,6.4,39.5,6.4,39.5,6.3L39.5,6.3z"/>
		<path class="st163" d="M29,18.2C29,18.2,29,18.1,29,18.2c0.1,0,0.1,0,0.1,0C29,18.3,29,18.2,29,18.2L29,18.2z"/>
		<path class="st169" d="M29.4,1.4v0.1h-0.1C29.3,1.4,29.3,1.4,29.4,1.4z"/>
		<path class="st170" d="M37.8,13v-0.1C37.9,12.9,37.8,13,37.8,13L37.8,13z"/>
		<path class="st167" d="M29.5,1.4L29.5,1.4C29.4,1.3,29.5,1.3,29.5,1.4L29.5,1.4z"/>
		<path class="st150" d="M28.9,18.4L28.9,18.4L28.9,18.4C28.9,18.4,28.8,18.5,28.9,18.4L28.9,18.4z"/>
		<path class="st0" d="M39.1,6.9C39.1,6.9,39.2,6.9,39.1,6.9L39.1,6.9L39.1,6.9L39.1,6.9z"/>
		<path class="st76" d="M25,16.9L25,16.9C25,16.9,25,16.8,25,16.9C25.1,16.9,25.1,16.9,25,16.9L25,16.9z"/>
		<path class="st171" d="M38.7,6.8L38.7,6.8C38.7,6.9,38.6,6.9,38.7,6.8z"/>
		<path class="st11" d="M36.1,20.3C36,20.4,36,20.3,36.1,20.3C36.1,20.2,36.1,20.3,36.1,20.3z"/>
		<path class="st110" d="M29.7,17.4C29.7,17.3,29.8,17.3,29.7,17.4C29.8,17.4,29.8,17.4,29.7,17.4L29.7,17.4z"/>
		<path class="st19" d="M29,22.6c0-0.1,0-0.1,0.1-0.1C29.1,22.6,29,22.6,29,22.6z"/>
		<path class="st172" d="M39.2,6.7L39.2,6.7C39.2,6.6,39.2,6.6,39.2,6.7C39.3,6.6,39.2,6.6,39.2,6.7z"/>
		<path class="st173" d="M28.7,18.5C28.7,18.5,28.8,18.5,28.7,18.5C28.8,18.5,28.8,18.5,28.7,18.5C28.8,18.5,28.7,18.5,28.7,18.5
			L28.7,18.5z"/>
		<path class="st174" d="M29.7,18.6L29.7,18.6c0-0.1,0-0.1,0.1-0.1L29.7,18.6C29.8,18.6,29.8,18.6,29.7,18.6L29.7,18.6z"/>
		<path class="st163" d="M36.1,23.5v-0.1l0,0V23.5L36.1,23.5z"/>
		<path class="st166" d="M38.2,2.9L38.2,2.9L38.2,2.9z"/>
		<path class="st175" d="M36.7,2.9C36.7,2.9,36.6,3,36.7,2.9C36.6,2.8,36.6,2.8,36.7,2.9C36.6,2.9,36.7,2.9,36.7,2.9z"/>
		<path class="st176" d="M39,8.3C39,8.3,39.1,8.3,39,8.3c0,0.1,0,0.1,0,0.1S39,8.4,39,8.3C39,8.4,39,8.3,39,8.3z"/>
		<path class="st153" d="M38.4,2.8L38.4,2.8C38.3,2.8,38.3,2.8,38.4,2.8C38.3,2.8,38.4,2.8,38.4,2.8L38.4,2.8z"/>
		<path class="st177" d="M36.3,2.7C36.3,2.7,36.2,2.7,36.3,2.7C36.3,2.6,36.3,2.6,36.3,2.7C36.4,2.7,36.3,2.7,36.3,2.7z"/>
		<path class="st178" d="M37.6,24.1C37.6,24.1,37.6,24.2,37.6,24.1c0,0.1,0,0.1,0,0.1C37.5,24.2,37.5,24.2,37.6,24.1
			C37.5,24.1,37.5,24.1,37.6,24.1z"/>
		<path class="st8" d="M39.4,6C39.4,5.9,39.4,5.9,39.4,6L39.4,6L39.4,6z"/>
		<path class="st87" d="M36.7,17.3v-0.1l0,0C36.7,17.2,36.7,17.3,36.7,17.3z"/>
		<path class="st135" d="M38.7,7.2L38.7,7.2L38.7,7.2L38.7,7.2L38.7,7.2z"/>
		<path class="st61" d="M27.2,18L27.2,18L27.2,18C27.1,18,27.1,18,27.2,18C27.1,17.9,27.1,17.9,27.2,18L27.2,18z"/>
		<path class="st179" d="M25.4,17.2C25.4,17.2,25.5,17.2,25.4,17.2C25.5,17.3,25.4,17.3,25.4,17.2C25.4,17.3,25.4,17.3,25.4,17.2
			C25.4,17.1,25.4,17.2,25.4,17.2z"/>
		<path class="st180" d="M26.7,17.4h0.1C26.7,17.5,26.7,17.5,26.7,17.4z"/>
		<path class="st181" d="M38.3,11C38.3,11,38.3,10.9,38.3,11C38.3,10.9,38.3,10.9,38.3,11C38.3,10.9,38.3,10.9,38.3,11
			C38.3,10.9,38.3,11,38.3,11z"/>
		<path class="st182" d="M37.5,14.6C37.5,14.5,37.5,14.5,37.5,14.6C37.5,14.5,37.5,14.5,37.5,14.6C37.5,14.4,37.5,14.5,37.5,14.6
			C37.5,14.5,37.5,14.5,37.5,14.6z"/>
		<path class="st66" d="M38.6,8.9L38.6,8.9C38.6,8.9,38.5,9,38.6,8.9C38.5,8.9,38.5,8.9,38.6,8.9z"/>
		<path class="st183" d="M25.5,19.2v0.1l-0.1-0.1C25.4,19.2,25.4,19.2,25.5,19.2z"/>
		<path class="st6" d="M38.6,9.9L38.6,9.9L38.6,9.9L38.6,9.9L38.6,9.9L38.6,9.9z"/>
		<path class="st0" d="M28,3.6c0.2,0,0.4,0,0.6,0c0.1,0,0.2,0,0.2,0.1C29,4,29.4,4.1,29.7,4.1c0.3,0,0.6,0,1,0
			c0.2,0.5,0.5,0.9,0.7,1.4c0.1,0.3,0.1,0.6-0.1,0.8c0,0,0,0-0.1,0s-0.1-0.1-0.1-0.2c-0.1,0,0,0.1-0.1,0.1h-0.1l0,0
			c0,0,0-0.1-0.1-0.1s0,0.1-0.1,0.1h-0.1h-0.1c-0.1,0-0.1-0.1-0.2,0c-0.1,0-0.2,0.1-0.3,0c0,0-0.1-0.1-0.2-0.1s-0.1-0.1-0.2,0h-0.1
			c-0.1,0-0.1-0.1-0.1-0.2c-0.1-0.1-0.3,0-0.4,0c0,0.1-0.2,0-0.1,0.1c0,0,0,0.1-0.1,0.1l-0.1,0.1h-0.1c-0.1,0-0.1-0.1-0.2,0
			s-0.2,0.1-0.3,0H28c0,0-0.1,0-0.1,0.1c-0.1,0.1-0.1,0.2-0.2,0.3v0.1v0.1c-0.1,0.1,0,0.2-0.1,0.2c0,0,0,0-0.1,0c0,0-0.1-0.1-0.1,0
			c0,0,0,0,0,0.1c-0.2,0.1-0.2,0.3-0.3,0.5v0.1v0.1v0.1c0.1,0.2,0.1,0.2-0.1,0.2c0,0,0,0-0.1,0c-0.2-0.3-0.6-0.3-0.9-0.3
			c-1.4,0-2.8,0-4.2,0c-0.1,0-0.1,0-0.2,0c0-0.1,0-0.1-0.1-0.2c0.1-0.1,0-0.1,0-0.1c0-0.1,0-0.3,0-0.4c0.1-0.1,0.2-0.3,0.2-0.5
			c0.1,0,0.1-0.1,0.1-0.2l0,0c0-0.1,0-0.1,0-0.1c0.1-0.1,0-0.3,0.1-0.4c0-0.1,0-0.1,0.1-0.2l0,0c0-0.1,0.1-0.1,0.1-0.1
			c-0.1-0.1,0-0.2,0.1-0.3c0.1-0.1,0.2-0.2,0.2-0.3c0.1,0,0-0.1,0-0.1c0.1-0.1,0-0.2,0-0.2h0.1l0,0l0.1-0.1l0,0
			c0.4,0.1,0.9,0.1,1.3,0.1c1,0,2.1,0,3.1,0h0.1L28,3.6z"/>
		<path class="st0" d="M23.8,3.5L23.8,3.5c0-0.1,0-0.1,0.1-0.2c0,0,0.1,0,0.1-0.1s0.1-0.1,0.1-0.1l0,0v0.1c0,0,0,0.1,0.1,0.1l0,0
			v0.1v0.1c-0.1,0,0,0.2-0.2,0.1C23.9,3.5,23.8,3.5,23.8,3.5z"/>
		<path class="st0" d="M21.5,7.2c0.1,0.1,0.1,0.3,0,0.4c0,0,0,0.1-0.1,0.1h-0.1h-0.1c0,0,0,0,0-0.1c0.1-0.1,0-0.2,0.2-0.2
			C21.5,7.4,21.6,7.3,21.5,7.2C21.4,7.1,21.5,7.2,21.5,7.2z"/>
		<path class="st0" d="M21.4,9.3c0,0.1,0.2,0.2,0,0.3c-0.1,0-0.1,0-0.1,0.1h-0.1c0,0,0,0,0-0.1s-0.1-0.1-0.1-0.2
			C21.1,9.3,21.3,9.4,21.4,9.3C21.3,9.3,21.4,9.3,21.4,9.3z"/>
		<path class="st184" d="M22.1,13L22.1,13c0.1,0,0.1,0,0.1,0v0.1c0,0,0,0,0,0.1v0.1c-0.1,0-0.2,0.1-0.3,0.1c0-0.1,0.3-0.2,0.1-0.3
			L22.1,13C22.1,13.1,22.1,13.1,22.1,13z"/>
		<path class="st185" d="M21.4,7.4C21.4,7.4,21.3,7.4,21.4,7.4c-0.1,0.1-0.1,0.2-0.2,0.2h-0.1c0-0.1-0.1-0.1,0-0.2
			C21.3,7.3,21.4,7.3,21.4,7.4z"/>
		<path class="st0" d="M25,2.2c0,0.1-0.1,0.2-0.1,0.3s0,0-0.1-0.1C24.8,2.3,24.8,2.1,25,2.2z"/>
		<path class="st0" d="M22.1,13c0,0.1-0.1,0-0.1,0v-0.2v-0.1c0,0,0,0,0-0.1h0.1V13z"/>
		<path class="st186" d="M22,5.8C22,5.9,22,6,21.9,6l0,0c-0.1,0-0.1,0-0.1-0.1S21.9,5.8,22,5.8z"/>
		<path class="st0" d="M23,14.6c0.2,0.1,0.1,0.2,0.1,0.3c-0.1,0-0.1-0.1-0.1-0.2C23,14.7,23,14.6,23,14.6z"/>
		<path class="st187" d="M22.4,13.7c0,0.1-0.1,0.2,0.1,0.2h-0.1c0,0-0.1,0-0.1-0.1s0-0.1,0-0.1L22.4,13.7z"/>
		<path class="st0" d="M22.2,13.4v-0.1c0-0.1,0.1,0,0.1-0.1l0,0c0,0.1,0.1,0.1,0,0.2C22.3,13.4,22.2,13.3,22.2,13.4z"/>
		<path class="st0" d="M22.7,14.5c0.1,0,0.2,0,0.2,0.2l0,0l0,0l-0.1-0.1C22.6,14.6,22.7,14.6,22.7,14.5z"/>
		<path class="st188" d="M21.3,9.3c0,0.2-0.2,0.1-0.3,0.1l0.1-0.1c0,0,0-0.1,0.1-0.1C21.3,9.3,21.3,9.3,21.3,9.3z"/>
		<path class="st189" d="M21.4,11.4L21.4,11.4C21.4,11.5,21.3,11.5,21.4,11.4C21.3,11.5,21.3,11.5,21.4,11.4c-0.1,0-0.1,0-0.1-0.1
			s0,0,0,0l0,0l0,0c0,0,0.1-0.1,0.1,0C21.5,11.4,21.4,11.4,21.4,11.4z"/>
		<path class="st190" d="M21.3,11.4L21.3,11.4h0.2l0,0c0,0.1-0.1,0.1-0.2,0.1S21.3,11.5,21.3,11.4C21.5,11.5,21.3,11.5,21.3,11.4z"
			/>
		<path class="st191" d="M21.4,8.9c-0.1,0.1,0.1,0.2,0,0.2C21.3,9.1,21.2,9,21.4,8.9L21.4,8.9z"/>
		<path class="st192" d="M21.9,12.5l0.2,0.1c0,0.1-0.1,0.1-0.1,0.1l0,0C21.9,12.7,21.9,12.6,21.9,12.5
			C21.8,12.6,21.8,12.5,21.9,12.5z"/>
		<path class="st0" d="M25.5,2c0,0.1-0.1,0-0.2,0c0-0.1-0.1,0-0.1-0.1c0,0,0.1-0.1,0.1,0C25.3,2,25.4,2,25.5,2z"/>
		<path class="st193" d="M21,10l0.1,0.1c0,0.1-0.1,0-0.1,0l0,0C21,10.1,20.9,10.1,21,10L21,10z"/>
		<path class="st194" d="M21.6,11.8L21.6,11.8c0.1,0,0.2,0,0.2,0.1V12c0-0.1-0.1,0-0.1,0S21.5,12,21.6,11.8L21.6,11.8z"/>
		<path class="st195" d="M22.5,14.1c-0.1,0.1,0,0.1,0,0.2c0,0.1-0.1,0-0.1,0c-0.1-0.1,0-0.1,0-0.2C22.4,14.1,22.4,14,22.5,14.1z"/>
		<path class="st196" d="M21.9,12.5L21.9,12.5c-0.3,0,0.1-0.1,0-0.2C22,12.4,21.9,12.5,21.9,12.5z"/>
		<path class="st197" d="M21.6,11.6L21.6,11.6c0,0.1,0,0.1-0.1,0.2h-0.1c-0.1,0-0.1-0.1,0-0.1S21.5,11.7,21.6,11.6z"/>
		<path class="st198" d="M21.5,11.9L21.5,11.9c0.1,0.2,0,0.2-0.1,0.2C21.5,12.1,21.4,12,21.5,11.9z"/>
		<path class="st0" d="M23.8,15.7c0.1,0,0.1-0.1,0.2,0c0,0.1,0,0.1-0.1,0.1C23.9,15.7,23.8,15.8,23.8,15.7z"/>
		<path class="st0" d="M22.5,14.1c-0.1,0-0.1,0-0.1,0V14h0.1C22.5,14,22.6,14,22.5,14.1z"/>
		<path class="st199" d="M23.7,3.5c0,0.1,0.2,0.2-0.1,0.2C23.6,3.6,23.7,3.6,23.7,3.5z"/>
		<path class="st200" d="M21.2,8.1C21.2,8,21.2,8,21.2,8.1C21.1,8,21.1,8,21.2,8.1L21.2,8.1C21.2,8,21.2,8,21.2,8.1
			c0.1-0.1,0.1,0,0.1,0H21.2z"/>
		<path class="st0" d="M23.4,3.9L23.3,4c-0.1,0,0-0.1-0.1-0.1C23.3,3.8,23.3,3.8,23.4,3.9z"/>
		<path class="st201" d="M21.4,8.3v0.1c-0.1,0-0.1-0.1-0.2-0.1C21.3,8.3,21.3,8.4,21.4,8.3z"/>
		<path class="st202" d="M23.9,15.9L23.9,15.9v0.2C23.7,15.9,23.7,15.9,23.9,15.9z"/>
		<path class="st203" d="M21.4,8.9L21.4,8.9L21.4,8.9C21.4,8.9,21.3,8.9,21.4,8.9L21.4,8.9c0-0.1,0-0.1,0.1-0.1
			C21.5,8.9,21.5,8.9,21.4,8.9z"/>
		<path class="st204" d="M21.5,8.5c0,0.1,0,0.1,0,0.2C21.5,8.7,21.4,8.7,21.5,8.5C21.5,8.5,21.5,8.6,21.5,8.5z"/>
		<path class="st0" d="M24,16.1L24,16.1c0,0.1,0,0.1-0.1,0.3C23.9,16.2,23.9,16.1,24,16.1z"/>
		<path class="st205" d="M24.1,3.1L24.1,3.1C24,3,24.1,3,24.2,3C24.2,3,24.3,3.1,24.1,3.1C24.2,3.1,24.1,3.1,24.1,3.1z"/>
		<path class="st0" d="M21.9,6.5c0,0.1,0,0.2-0.1,0.2C21.8,6.6,21.8,6.5,21.9,6.5z"/>
		<path class="st206" d="M21.1,9.6L21.1,9.6L21.1,9.6c0,0-0.1,0.1-0.1,0c-0.1-0.1,0,0,0-0.1C21,9.6,21.1,9.7,21.1,9.6z"/>
		<path class="st207" d="M21.1,9.7L21.1,9.7h0.1c0,0.1-0.1,0.1-0.1,0.1S21.2,9.7,21.1,9.7z"/>
		<path class="st0" d="M25.9,1.8c0,0.1-0.1,0.1-0.1,0.1C25.7,1.9,25.7,1.8,25.9,1.8C25.9,1.7,25.9,1.8,25.9,1.8z"/>
		<path class="st208" d="M21.5,7.6L21.5,7.6C21.6,7.6,21.5,7.7,21.5,7.6L21.5,7.6C21.4,7.7,21.4,7.7,21.5,7.6z"/>
		<path class="st0" d="M24.5,2.7c-0.1,0.1-0.1,0.1-0.2,0C24.3,2.6,24.4,2.7,24.5,2.7L24.5,2.7L24.5,2.7z"/>
		<path class="st209" d="M21.5,11.8C21.5,11.7,21.5,11.7,21.5,11.8C21.6,11.7,21.6,11.8,21.5,11.8L21.5,11.8L21.5,11.8L21.5,11.8z"
			/>
		<path class="st210" d="M21.3,10.3c0,0.1,0,0.1-0.1,0.1C21.1,10.2,21.3,10.3,21.3,10.3z"/>
		<path class="st211" d="M21.3,9.3c-0.1,0-0.1,0-0.1-0.1l0,0c0,0,0.1,0,0.2,0L21.3,9.3L21.3,9.3z"/>
		<path class="st204" d="M21.5,7.6L21.5,7.6c0,0.1-0.1,0.1-0.1,0.1c-0.1,0,0,0,0-0.1C21.4,7.6,21.4,7.6,21.5,7.6z"/>
		<path class="st0" d="M23.2,15L23.2,15c0.1,0,0.2,0,0.2,0.1l0,0C23.3,15.1,23.2,15.1,23.2,15z"/>
		<path class="st210" d="M21.3,10.6c0,0.1,0.1,0.1,0,0.2C21.3,10.8,21.2,10.7,21.3,10.6z"/>
		<path class="st212" d="M21.2,8L21.2,8V7.8C21.3,7.9,21.3,7.9,21.2,8z"/>
		<path class="st0" d="M24.2,16C24.2,16,24.3,16,24.2,16v0.1V16z"/>
		<path class="st213" d="M23.6,16.1C23.6,16.1,23.7,16.1,23.6,16.1c0.1,0,0.1,0,0.1,0S23.7,16.2,23.6,16.1
			C23.7,16.2,23.7,16.1,23.6,16.1z"/>
		<path class="st214" d="M22.3,13.8L22.3,13.8c-0.1,0-0.1,0.1-0.1,0.1S22.2,13.7,22.3,13.8z"/>
		<path class="st215" d="M22.4,14.3h0.1c0,0,0,0,0,0.1C22.5,14.4,22.4,14.3,22.4,14.3z"/>
		<path class="st0" d="M21.2,7.6L21.2,7.6L21.2,7.6C21.2,7.7,21.2,7.6,21.2,7.6L21.2,7.6z"/>
		<path class="st0" d="M21.5,11.5L21.5,11.5C21.6,11.4,21.6,11.5,21.5,11.5C21.5,11.6,21.6,11.5,21.5,11.5z"/>
		<path class="st0" d="M21.2,10.4C21.2,10.4,21.2,10.5,21.2,10.4h-0.1C21.1,10.3,21.1,10.4,21.2,10.4z"/>
		<path class="st216" d="M22.6,4.4c0,0.1-0.1,0.1-0.1,0.1S22.5,4.4,22.6,4.4C22.6,4.3,22.6,4.4,22.6,4.4z"/>
		<path class="st0" d="M21.9,6.4c0,0,0.1,0,0.1,0.1v0.1c0,0,0,0-0.1,0V6.4z"/>
		<path class="st217" d="M21.4,8.9L21.4,8.9L21.3,9C21.3,8.8,21.3,8.9,21.4,8.9z"/>
		<path class="st0" d="M22.4,4.9C22.4,5,22.5,5,22.4,4.9L22.4,4.9C22.3,4.8,22.4,4.9,22.4,4.9z"/>
		<path class="st218" d="M22.5,4.6C22.5,4.6,22.4,4.6,22.5,4.6c-0.1,0-0.2,0.1-0.2,0S22.4,4.6,22.5,4.6L22.5,4.6z"/>
		<path class="st219" d="M23.6,3.5C23.6,3.6,23.6,3.6,23.6,3.5c-0.1,0-0.1,0-0.1,0S23.5,3.5,23.6,3.5L23.6,3.5z"/>
		<path class="st220" d="M21.3,8.7C21.3,8.7,21.3,8.8,21.3,8.7C21.2,8.8,21.2,8.7,21.3,8.7C21.2,8.7,21.2,8.7,21.3,8.7
			C21.2,8.7,21.2,8.6,21.3,8.7C21.2,8.6,21.3,8.7,21.3,8.7z"/>
		<path class="st221" d="M23.6,3.2C23.6,3.3,23.6,3.3,23.6,3.2C23.6,3.3,23.6,3.3,23.6,3.2C23.5,3.2,23.6,3.2,23.6,3.2L23.6,3.2z"/>
		<path class="st222" d="M24.3,16.3L24.3,16.3h-0.1C24.2,16.3,24.3,16.3,24.3,16.3z"/>
		<path class="st223" d="M22.6,14.7c0.1,0,0.1,0,0.1,0.1s0,0,0,0L22.6,14.7z"/>
		<path class="st224" d="M24.2,16.1C24.3,16.1,24.3,16.1,24.2,16.1c0.1,0.1,0.1,0.2,0,0.1V16.1z"/>
		<path class="st0" d="M24.8,2.4L24.8,2.4c-0.1,0-0.1-0.1-0.2-0.1C24.7,2.3,24.7,2.4,24.8,2.4z"/>
		<path class="st225" d="M21.2,8.1c0,0.1,0,0.1,0,0.2C21.1,8.2,21.2,8.1,21.2,8.1z"/>
		<path class="st226" d="M21.5,8.2C21.5,8.2,21.5,8.3,21.5,8.2C21.4,8.3,21.4,8.3,21.5,8.2C21.4,8.3,21.4,8.2,21.5,8.2L21.5,8.2z"/>
		<path class="st227" d="M21,10L21,10C21,9.9,21,9.9,21,10C21.1,9.9,21.1,9.9,21,10C21.1,9.9,21.1,9.9,21,10C21.1,10,21,10,21,10z"
			/>
		<path class="st0" d="M21.7,12.3L21.7,12.3c0,0,0,0.1-0.1,0.1C21.6,12.3,21.6,12.3,21.7,12.3z"/>
		<path class="st228" d="M21.9,12.8L21.9,12.8H22v0.1C22,12.9,22,12.8,21.9,12.8L21.9,12.8z"/>
		<path class="st229" d="M21.9,12.8H22c0,0,0,0.1-0.1,0.1C21.9,12.9,21.9,12.8,21.9,12.8z"/>
		<path class="st0" d="M23.4,15.2c0.1,0,0.1,0,0.1,0.1C23.5,15.3,23.3,15.4,23.4,15.2z"/>
		<path class="st0" d="M22.9,4.2h-0.1c-0.1-0.1,0-0.1,0-0.1C22.8,4.2,22.9,4.2,22.9,4.2z"/>
		<path class="st230" d="M21,10.2v0.2C20.9,10.3,21,10.2,21,10.2z"/>
		<path class="st231" d="M21.3,11c0.1,0,0,0.1,0,0.1C21.2,11.1,21.2,11,21.3,11z"/>
		<path class="st0" d="M22.1,5.6L22,5.7C21.9,5.6,22.1,5.6,22.1,5.6z"/>
		<path class="st232" d="M25.9,1.8L25.9,1.8c-0.1-0.1-0.1-0.1,0-0.1C25.9,1.6,25.8,1.7,25.9,1.8L25.9,1.8z"/>
		<path class="st233" d="M20.9,10.2L20.9,10.2C20.8,10.3,20.8,10.3,20.9,10.2L20.9,10.2L20.9,10.2z"/>
		<path class="st234" d="M21,11C21,10.9,21.1,10.9,21,11C21.1,10.9,21.1,11,21,11C21.1,11,21.1,11,21,11C21.1,11,21.1,11,21,11
			C21.1,11,21.1,11,21,11z"/>
		<path class="st210" d="M21.3,11.3L21.3,11.3c0,0-0.1,0.1-0.1,0C21.1,11.3,21.2,11.3,21.3,11.3C21.2,11.3,21.2,11.3,21.3,11.3z"/>
		<path class="st235" d="M21.2,9.3L21.2,9.3L21.2,9.3L21.2,9.3L21.2,9.3z"/>
		<path class="st0" d="M23,4L23,4C23,4.1,22.9,3.9,23,4z"/>
		<path class="st236" d="M22,13.1L22,13.1C21.9,13.1,22,12.9,22,13.1z"/>
		<path class="st237" d="M21.1,8.1C21.1,8.2,21.1,8.2,21.1,8.1C21,8.2,21,8.2,21.1,8.1L21.1,8.1C21,8.1,21,8.1,21.1,8.1z"/>
		<path class="st234" d="M21.5,11.8L21.5,11.8C21.4,11.9,21.4,11.8,21.5,11.8L21.5,11.8z"/>
		<path class="st196" d="M21.6,5.3L21.6,5.3C21.5,5.3,21.6,5.2,21.6,5.3L21.6,5.3L21.6,5.3z"/>
		<path class="st0" d="M24.4,2.6C24.4,2.6,24.3,2.6,24.4,2.6C24.3,2.5,24.3,2.5,24.4,2.6C24.4,2.5,24.4,2.6,24.4,2.6L24.4,2.6z"/>
		<path class="st0" d="M23.5,15.4c0,0-0.1,0.1-0.1,0C23.4,15.4,23.4,15.4,23.5,15.4z"/>
		<path class="st238" d="M22.9,14.7L22.9,14.7c0.1,0,0.1-0.1,0.1-0.1C23.1,14.6,23,14.7,22.9,14.7L22.9,14.7z"/>
		<path class="st239" d="M22.5,14.6C22.5,14.5,22.5,14.5,22.5,14.6c0.1-0.1,0.1,0,0.1,0C22.5,14.6,22.5,14.6,22.5,14.6z"/>
		<path class="st240" d="M32,7.1C32,7,31.8,7,31.8,7l0.1-0.1H32C32.2,6.9,32.1,7,32,7.1C32.1,7.2,32,7.1,32,7.1z"/>
		<path class="st241" d="M30.7,12.4c-0.1-0.1-0.1-0.1,0-0.2s0.1,0,0.1,0.1C30.9,12.5,30.8,12.5,30.7,12.4z"/>
		<path class="st242" d="M33.3,3.2C33.3,3.1,33.4,3.2,33.3,3.2c0.1,0.1,0.2,0.1,0.3,0.1c0,0.1-0.1,0.1-0.2,0.1
			C33.4,3.4,33.3,3.4,33.3,3.2z"/>
		<path class="st155" d="M32.5,10c-0.1,0-0.1-0.2-0.2-0.1V9.8l0.1-0.1v0.1l0.1,0.1C32.5,9.9,32.5,9.9,32.5,10L32.5,10z"/>
		<path class="st48" d="M39.2,5.4L39.2,5.4c-0.1,0.1,0,0.2-0.1,0.2L39,5.7V5.6C39,5.6,39,5.5,39.2,5.4C39,5.5,39,5.4,39.2,5.4
			C39.1,5.4,39.1,5.5,39.2,5.4z"/>
		<path class="st243" d="M38.9,5.7L38.9,5.7c0.1,0.1,0,0.1,0.1,0.2l0,0c0,0.1,0,0.1-0.1,0l0,0c0,0,0,0-0.1,0
			C38.9,5.8,38.9,5.8,38.9,5.7L38.9,5.7z"/>
		<path class="st244" d="M32.5,8.8c0,0,0-0.1,0-0.2c0,0,0.1-0.1,0.1,0s0,0.1,0.1,0.2c0,0.1,0,0.1-0.1,0.1
			C32.5,8.8,32.5,8.8,32.5,8.8z"/>
		<path class="st245" d="M34.9,23c0,0.1,0,0.1-0.1,0.1S34.7,23,34.7,23v-0.1C34.8,22.9,34.8,23,34.9,23C34.8,23,34.9,23,34.9,23z"/>
		<path class="st75" d="M36.9,14.5c0,0.1,0.2,0.2,0,0.2C36.9,14.7,37,14.6,36.9,14.5C36.8,14.5,36.8,14.5,36.9,14.5L36.9,14.5z"/>
		<path class="st246" d="M38.6,3.7L38.6,3.7c0.1,0,0.1-0.2,0.2-0.1c0,0.1-0.1,0.1-0.1,0.2C38.7,3.8,38.7,3.8,38.6,3.7
			C38.6,3.7,38.6,3.8,38.6,3.7L38.6,3.7z"/>
		<path class="st247" d="M34.2,3.2c0.1-0.1,0.2-0.1,0.2,0C34.3,3.2,34.3,3.3,34.2,3.2z"/>
		<path class="st248" d="M33.1,2.9L33.3,3v0.1h-0.2C33.1,3,33.2,3,33.1,2.9z"/>
		<path class="st249" d="M32.5,8.8C32.6,8.9,32.6,8.8,32.5,8.8c0.2,0.1,0.1,0.1,0,0.2C32.5,9,32.5,8.9,32.5,8.8L32.5,8.8L32.5,8.8z"
			/>
		<path class="st250" d="M38.7,6.2L38.7,6.2C38.5,6.2,38.6,6.1,38.7,6.2c-0.1-0.1,0-0.1,0-0.2s0,0,0-0.1L38.8,6
			C38.8,6.1,38.8,6.2,38.7,6.2z"/>
		<path class="st251" d="M38.8,6.1C38.7,6.1,38.7,6,38.8,6.1C38.7,6,38.7,6,38.7,5.9l0,0l0.1-0.1h0.1v0.1C38.8,6,38.8,6,38.8,6.1
			L38.8,6.1L38.8,6.1z"/>
		<path class="st252" d="M38.9,5.7L38.9,5.7c-0.1,0-0.1-0.1,0-0.2C38.9,5.5,38.9,5.6,38.9,5.7L38.9,5.7z"/>
		<path class="st253" d="M38.7,5.9L38.7,5.9L38.7,5.9L38.7,5.9C38.7,5.9,38.7,5.9,38.7,5.9L38.7,5.9z"/>
		<path class="st254" d="M32.5,9.8c-0.1,0-0.1-0.1-0.1-0.1s0.1-0.1,0.1,0C32.6,9.8,32.6,9.8,32.5,9.8C32.6,9.8,32.6,9.8,32.5,9.8z"
			/>
		<path class="st247" d="M32.2,7.9C32.1,7.9,32.1,7.8,32.2,7.9C32.1,7.7,32.1,7.8,32.2,7.9L32.2,7.9C32.2,7.7,32.2,7.8,32.2,7.9z"/>
		<path class="st243" d="M37.9,9.5c-0.1-0.1,0-0.2,0-0.3C38,9.3,38,9.4,37.9,9.5z"/>
		<path class="st242" d="M32.7,9.3c0-0.1,0-0.1,0.1-0.2S32.9,9.1,32.7,9.3C32.8,9.2,32.8,9.3,32.7,9.3C32.8,9.3,32.7,9.3,32.7,9.3
			L32.7,9.3z"/>
		<path class="st255" d="M35.4,23.1c-0.1,0-0.2,0-0.2-0.1C35.2,23,35.3,23.1,35.4,23.1z"/>
		<path class="st256" d="M38.9,5.6L38.9,5.6c0-0.1-0.2-0.1,0-0.2c0,0,0,0,0.1,0l0.1,0.1L38.9,5.6z"/>
		<path class="st95" d="M39,5.6C39,5.6,38.9,5.6,39,5.6L39,5.6L39,5.6L39,5.6z"/>
		<path class="st125" d="M38.3,8.4c-0.1,0-0.1,0.1-0.1,0.2l0,0C38.1,8.5,38.2,8.5,38.3,8.4C38.3,8.3,38.3,8.4,38.3,8.4L38.3,8.4z"/>
		<path class="st257" d="M32.2,11.2c-0.1-0.1-0.1-0.1,0.1-0.2L32.2,11.2C32.2,11.1,32.2,11.1,32.2,11.2L32.2,11.2z"/>
		<path class="st258" d="M32.3,8c0,0.1-0.1,0.1-0.1,0.1C32.1,8,32.2,8,32.3,8L32.3,8z"/>
		<path class="st255" d="M39,5.4L39,5.4L39,5.4C38.9,5.4,38.9,5.4,39,5.4C39,5.3,39,5.2,39,5.4C39,5.4,38.9,5.3,39,5.4
			C38.9,5.4,38.9,5.4,39,5.4L39,5.4z"/>
		<path class="st133" d="M32,6.9h-0.1H32L32,6.9z"/>
		<path class="st31" d="M32.5,8.9C32.5,8.9,32.6,8.9,32.5,8.9v0.2C32.4,9.1,32.5,9,32.5,8.9z"/>
		<path class="st255" d="M32,7.1L32,7.1C32.1,7.2,32.1,7.2,32,7.1L32,7.1z"/>
		<path class="st259" d="M35.3,20.1L35.3,20.1C35.3,20.3,35.3,20.2,35.3,20.1L35.3,20.1L35.3,20.1C35.2,20.1,35.2,20.1,35.3,20.1z"
			/>
		<path class="st260" d="M32.2,11.1L32.2,11.1C32.3,11.1,32.4,11.1,32.2,11.1C32.2,11.2,32.2,11.2,32.2,11.1z"/>
		<path class="st261" d="M32.2,11.1L32.2,11.1c0.1,0.1,0,0.1,0,0.1C32,11.2,32.2,11.2,32.2,11.1L32.2,11.1z"/>
		<path class="st75" d="M32.8,2.8H33C32.9,2.9,32.9,2.9,32.8,2.8z"/>
		<path class="st153" d="M38,9.1c0,0-0.1-0.1,0-0.1V9.1z"/>
		<path class="st84" d="M32.5,9.2L32.5,9.2C32.4,9.2,32.4,9.1,32.5,9.2C32.5,9.1,32.5,9.2,32.5,9.2L32.5,9.2z"/>
		<path class="st262" d="M30.4,12.8c0,0-0.1-0.1,0-0.1s0.1,0,0.1,0.1H30.4z"/>
		<path class="st247" d="M38.6,6.4C38.6,6.6,38.6,6.6,38.6,6.4C38.6,6.5,38.6,6.4,38.6,6.4z"/>
		<path class="st263" d="M35.3,20.1L35.3,20.1C35.2,20.1,35.2,20.1,35.3,20.1V20C35.3,20,35.2,20.1,35.3,20.1z"/>
		<path class="st264" d="M29.8,13c0.1-0.1,0.1,0,0.2,0H29.8z"/>
		<path class="st252" d="M31.5,11.9L31.5,11.9c0-0.1,0-0.1,0.1-0.1C31.6,11.8,31.6,11.9,31.5,11.9z"/>
		<path class="st174" d="M31.6,11.8h-0.1C31.5,11.7,31.6,11.8,31.6,11.8L31.6,11.8C31.7,11.7,31.7,11.8,31.6,11.8L31.6,11.8z"/>
		<path class="st265" d="M31.6,11.8L31.6,11.8c0-0.1,0.1-0.1,0.1,0S31.7,11.8,31.6,11.8z"/>
		<path class="st266" d="M32.5,9.8L32.5,9.8L32.5,9.8L32.5,9.8L32.5,9.8z"/>
		<path class="st267" d="M36.9,15.1L36.9,15.1c0,0.1,0,0.1,0,0.1C36.9,15.2,36.9,15.2,36.9,15.1C36.8,15.1,36.9,15.1,36.9,15.1z"/>
		<path class="st117" d="M32.9,8.8C32.9,8.8,32.9,8.9,32.9,8.8C32.8,8.9,32.9,8.9,32.9,8.8C32.8,8.8,32.8,8.8,32.9,8.8L32.9,8.8z"/>
		<path class="st268" d="M36.9,15.3v0.1C36.7,15.5,36.7,15.4,36.9,15.3C36.8,15.3,36.8,15.3,36.9,15.3z"/>
		<path class="st269" d="M38.3,8.1L38.3,8.1v0.1l0,0V8.1z"/>
		<path class="st95" d="M38.6,3.7L38.6,3.7c0.1,0,0.1,0,0.2,0C38.7,3.9,38.7,3.8,38.6,3.7z"/>
		<path class="st270" d="M35.1,20.2L35.1,20.2C35,20.3,35,20.2,35.1,20.2L35.1,20.2C35.1,20.1,35.1,20.1,35.1,20.2z"/>
		<path class="st265" d="M38.6,5.9c0.1,0,0,0.1,0,0.2C38.6,6,38.5,6,38.6,5.9z"/>
		<path class="st271" d="M39.1,4.9C39.1,5,39.2,5,39.1,4.9C39,5.1,39.1,5,39.1,4.9C38.9,5,39.1,5,39.1,4.9z"/>
		<path class="st272" d="M32.3,11.5C32.2,11.5,32.2,11.5,32.3,11.5C32.2,11.5,32.2,11.5,32.3,11.5C32.2,11.5,32.2,11.4,32.3,11.5
			C32.2,11.4,32.2,11.5,32.3,11.5z"/>
		<path class="st273" d="M36.6,20.5L36.6,20.5C36.5,20.5,36.6,20.5,36.6,20.5L36.6,20.5C36.6,20.6,36.6,20.5,36.6,20.5z"/>
		<path class="st73" d="M32.7,9.3L32.7,9.3C32.8,9.3,32.8,9.4,32.7,9.3C32.7,9.4,32.7,9.3,32.7,9.3z"/>
		<path class="st67" d="M30.3,12.8C30.3,12.8,30.3,12.7,30.3,12.8C30.3,12.7,30.3,12.8,30.3,12.8C30.4,12.9,30.3,12.8,30.3,12.8z"/>
		<path class="st274" d="M30.6,12.5C30.6,12.5,30.5,12.5,30.6,12.5C30.5,12.4,30.6,12.4,30.6,12.5C30.6,12.4,30.6,12.5,30.6,12.5
			L30.6,12.5z"/>
		<path class="st275" d="M31.4,12.2l-0.1-0.1C31.4,12.1,31.4,12.1,31.4,12.2z"/>
		<path class="st168" d="M32.7,9.9C32.7,10,32.7,10,32.7,9.9C32.6,9.9,32.6,9.9,32.7,9.9L32.7,9.9L32.7,9.9z"/>
		<path class="st276" d="M31.9,11.7v-0.1C32,11.6,31.9,11.6,31.9,11.7z"/>
		<path class="st277" d="M32.5,2.5L32.5,2.5L32.5,2.5L32.5,2.5z"/>
		<path class="st278" d="M29.9,18.8c-0.1,0-0.2-0.1-0.3-0.1l0,0l0,0C29.8,18.7,29.9,18.6,29.9,18.8z"/>
		<path class="st279" d="M30.9,26.1c0,0.1-0.1,0.2-0.2,0.2L30.9,26.1C30.9,26,30.9,26,30.9,26.1z"/>
		<path class="st102" d="M25.6,16.6L25.6,16.6l0.1,0.1C25.7,16.7,25.6,16.8,25.6,16.6z"/>
		<path class="st280" d="M28.3,17.2L28.3,17.2c-0.1,0-0.1,0-0.1,0C28.2,17.2,28.3,17.1,28.3,17.2C28.3,17.1,28.3,17.1,28.3,17.2z"/>
		<path class="st281" d="M30.9,26.1L30.9,26.1C30.8,26,30.9,25.9,30.9,26.1C31,26,30.9,26.1,30.9,26.1z"/>
		<path class="st282" d="M31,26.3c0-0.1,0-0.1,0.1-0.1C31.1,26.3,31.1,26.3,31,26.3L31,26.3z"/>
		<path class="st283" d="M29.7,18.6L29.7,18.6C29.8,18.5,29.8,18.5,29.7,18.6L29.7,18.6z"/>
		<path class="st284" d="M30.5,19.1L30.5,19.1C30.5,19.1,30.6,19.1,30.5,19.1C30.6,19.1,30.6,19.1,30.5,19.1L30.5,19.1z"/>
		<path class="st285" d="M27.1,11.8v0.1c0,0,0.1,0,0.1,0.1v0.1h-0.1c0,0-0.3,0-0.2-0.2C26.9,11.8,27,11.7,27.1,11.8L27.1,11.8z"/>
		<path class="st286" d="M26.9,9.7C27,9.7,27,9.8,26.9,9.7c0,0.1,0,0.1,0,0.1c0,0.1,0,0.2-0.2,0.1c-0.1,0,0-0.1,0-0.2
			C26.7,9.7,26.8,9.8,26.9,9.7z"/>
		<path class="st29" d="M28.2,12.7c-0.2,0.1-0.2-0.1-0.3-0.2c0,0,0-0.1,0.1-0.1C28.1,12.5,28.1,12.6,28.2,12.7z"/>
		<path class="st287" d="M26.9,9L26.9,9c-0.2,0.1-0.3,0.1-0.2-0.1c0.1-0.2,0.1-0.2,0.3,0l0,0C27,8.9,26.9,8.9,26.9,9z"/>
		<path class="st266" d="M27,8.9c-0.1,0-0.2-0.1-0.3,0c0-0.1,0-0.2,0.1-0.2v0.1C27,8.7,27,8.8,27,8.9z"/>
		<path class="st265" d="M27.4,11.9L27.4,11.9c0.1,0,0.1,0.1,0.1,0.1s0,0.1-0.1,0.1c0,0,0,0,0-0.1s-0.1,0-0.1-0.1l0,0H27.4z"/>
		<path class="st288" d="M27,10.2L27,10.2c-0.1,0.1-0.1,0.2-0.2,0.1s0-0.1,0-0.1C26.9,10.1,27,10.2,27,10.2z"/>
		<path class="st0" d="M22.2,13.2v-0.1h0.1c0,0,0.1,0.1,0,0.1l0,0l0,0C22.3,13.2,22.2,13.2,22.2,13.2z"/>
		<path class="st255" d="M27,8.3c0,0.1,0,0.2-0.1,0.3C26.9,8.4,26.8,8.3,27,8.3z"/>
		<path class="st141" d="M27.1,9.9c0,0,0.1,0,0.1,0.1h-0.1C27,10,27,10,27.1,9.9z"/>
		<path class="st289" d="M27.1,11.8l-0.2,0.1c-0.1-0.1,0-0.1,0-0.1C27,11.7,27.1,11.7,27.1,11.8z"/>
		<path class="st290" d="M26.9,9.7c-0.1,0.1-0.1,0-0.2,0.1c0,0-0.1-0.1,0-0.1h0.1l0,0H26.9z"/>
		<path class="st291" d="M23.4,15.1L23.3,15c0-0.1,0-0.1,0.1-0.1C23.4,15,23.5,15,23.4,15.1z"/>
		<path class="st135" d="M28.5,12.6v0.1C28.3,12.7,28.4,12.7,28.5,12.6C28.4,12.6,28.4,12.6,28.5,12.6
			C28.4,12.6,28.4,12.6,28.5,12.6C28.4,12.6,28.4,12.6,28.5,12.6z"/>
		<path class="st265" d="M27.1,10.1c0-0.1,0.1,0,0.1,0S27.2,10.2,27.1,10.1L27.1,10.1z"/>
		<path class="st260" d="M26.8,10.7c0.1,0.1,0.1,0.1,0,0.1C26.7,10.7,26.7,10.7,26.8,10.7z"/>
		<path class="st106" d="M27.5,12c0,0-0.1-0.1,0-0.1V12C27.6,12.1,27.6,12.1,27.5,12L27.5,12z"/>
		<path class="st292" d="M21.8,11.9c-0.1,0-0.1,0-0.2-0.1C21.7,11.8,21.7,11.9,21.8,11.9z"/>
		<path class="st0" d="M22.3,12.9c0,0,0-0.1,0.1-0.1l0,0C22.4,12.9,22.4,12.9,22.3,12.9L22.3,12.9z"/>
		<path class="st128" d="M28.4,12.6L28.4,12.6L28.4,12.6c-0.1-0.1,0-0.1,0-0.2C28.5,12.4,28.4,12.5,28.4,12.6
			C28.4,12.5,28.4,12.6,28.4,12.6z"/>
		<path class="st293" d="M27.1,12.1h0.1v0.1C27.1,12.1,27.1,12.1,27.1,12.1L27.1,12.1z"/>
		<path class="st294" d="M26.8,9.7h-0.1V9.6C26.8,9.6,26.8,9.6,26.8,9.7L26.8,9.7z"/>
		<path class="st295" d="M22.3,12.9L22.3,12.9L22.3,12.9c0,0.1,0,0.1-0.1,0.1L22.3,12.9C22.3,13,22.3,13,22.3,12.9z"/>
		<path class="st64" d="M27.2,12L27.2,12v-0.1l0,0C27.3,11.9,27.3,11.9,27.2,12L27.2,12L27.2,12z"/>
		<path class="st0" d="M29.2,12.9L29.2,12.9C29.1,12.9,29.1,12.9,29.2,12.9C29.2,12.8,29.2,12.8,29.2,12.9
			C29.2,12.8,29.2,12.8,29.2,12.9L29.2,12.9z"/>
		<path class="st296" d="M21.4,11.4v-0.1C21.5,11.4,21.5,11.4,21.4,11.4z"/>
		<path class="st297" d="M27.3,12.1C27.4,12.1,27.4,12.2,27.3,12.1C27.4,12.2,27.3,12.2,27.3,12.1L27.3,12.1z"/>
		<path class="st298" d="M29,26.1c0-0.1,0-0.2,0.1-0.2C29.1,26,29.1,26.1,29,26.1z"/>
		<path class="st299" d="M28.8,26.3c0,0.1,0,0.1-0.1,0.2C28.7,26.5,28.7,26.4,28.8,26.3z"/>
		<path class="st300" d="M29.3,23.2c0,0,0-0.1,0-0.2V23.2L29.3,23.2z"/>
		<path class="st301" d="M29.3,23.2L29.3,23.2v0.1V23.2z"/>
		<path class="st302" d="M28.7,21.5c0,0.1-0.1,0-0.1,0C28.5,21.4,28.6,21.5,28.7,21.5z"/>
		<path class="st303" d="M29,26.1l-0.1,0.1C28.9,26.1,28.9,26.1,29,26.1z"/>
		<path class="st304" d="M26.4,18.4l0.1,0.1C26.5,18.5,26.4,18.5,26.4,18.4L26.4,18.4z"/>
		<path class="st305" d="M29.3,23v-0.1C29.3,22.9,29.3,22.9,29.3,23C29.3,22.9,29.3,23,29.3,23L29.3,23z"/>
		<path class="st187" d="M23.8,3.5c0.1,0,0.1-0.1,0.1-0.1L24,3.6C23.9,3.6,23.8,3.6,23.8,3.5z"/>
		<path class="st306" d="M24.1,3.5L24.1,3.5C24.1,3.4,24.2,3.4,24.1,3.5C24.2,3.4,24.2,3.4,24.1,3.5C24.2,3.5,24.2,3.5,24.1,3.5z"/>
		<path class="st307" d="M24.1,3.1L24.1,3.1C24.2,3.1,24.2,3.2,24.1,3.1C24.1,3.2,24.1,3.2,24.1,3.1C23.9,3.2,24.1,3.1,24.1,3.1z"/>
		<path class="st308" d="M24.2,3.4L24.2,3.4C24.2,3.3,24.2,3.3,24.2,3.4C24.3,3.3,24.1,3.3,24.2,3.4z"/>
		<path class="st309" d="M30.5,1.7c0.1-0.1,0.1,0.1,0.1,0.1c0,0.1,0,0.2-0.1,0.2C30.5,1.9,30.5,1.8,30.5,1.7z"/>
		<path class="st146" d="M30.1,1.5L30.1,1.5l0.2,0.1v0.1l0,0c0,0,0-0.1-0.1,0C30.2,1.7,30.1,1.6,30.1,1.5z"/>
		<path class="st265" d="M30.3,1.7V1.6c0.1,0,0.1,0,0.2,0.1C30.4,1.7,30.4,1.6,30.3,1.7L30.3,1.7z"/>
		<path class="st310" d="M38.9,5.9C39,5.9,39,5.9,38.9,5.9L38.9,5.9C39,6,39,6,38.9,5.9C38.9,6.1,38.9,6,38.9,5.9z"/>
		<path class="st311" d="M38.8,6.4c0,0.1,0,0.1-0.1,0.2C38.8,6.5,38.7,6.4,38.8,6.4z"/>
		<path class="st312" d="M38.8,6.1L38.8,6.1C38.8,6,38.8,6,38.8,6.1C38.9,6,38.9,6.1,38.8,6.1z"/>
		<path class="st261" d="M38.8,6.1L38.8,6.1C38.8,6.2,38.9,6.3,38.8,6.1L38.8,6.1z"/>
		<path class="st313" d="M39,6L39,6L39,6C39.2,6,39.1,6,39,6L39,6z"/>
		<path class="st314" d="M37.2,14.3L37.2,14.3C37.2,14.2,37.2,14.2,37.2,14.3L37.2,14.3z"/>
		<path class="st87" d="M27.4,7.2L27.4,7.2c0.1,0.2,0.1,0.2-0.1,0.2s-0.1,0-0.2,0.1c0,0.1,0.1,0,0.2,0.1c0,0.1-0.1,0.1-0.1,0.1
			c0,0.1-0.1,0-0.1,0l0,0H27C27.1,7.4,27.2,7.2,27.4,7.2z"/>
		<path class="st246" d="M29.4,5.9C29.3,5.9,29.3,5.9,29.4,5.9c-0.3,0-0.2,0.1-0.1,0.2C29.1,6,29,6,29,6c-0.1-0.1-0.1-0.1,0-0.1
			S29.2,5.8,29.4,5.9z"/>
		<path class="st10" d="M31.2,6.3c0,0.1-0.1,0-0.2,0V6.2c0.1-0.1-0.1-0.1,0-0.2C31.2,6,31.2,6.1,31.2,6.3L31.2,6.3z"/>
		<path class="st135" d="M27.6,6.9c0,0.1,0,0.1,0.1,0.2v0.1c0,0-0.1,0.1-0.1-0.1C27.6,7.1,27.4,6.9,27.6,6.9z"/>
		<path class="st315" d="M30.6,6.3h-0.1c0,0-0.1,0-0.1-0.1v0c0-0.1,0-0.1,0.1,0h0.1V6.3z"/>
		<path class="st135" d="M29.7,6.1c-0.1,0-0.1,0.1-0.2,0.1V6L29.7,6.1C29.6,6,29.7,6.1,29.7,6.1z"/>
		<path class="st240" d="M30,6.2c-0.1,0.1-0.1,0-0.2,0s0,0,0,0C29.8,6.1,29.9,6,30,6.2z"/>
		<path class="st316" d="M31.1,6C31,6,31,5.9,30.9,5.8C31.1,5.8,31,5.9,31.1,6z"/>
		<path class="st265" d="M29.8,6.1L29.8,6.1c-0.1,0-0.1,0.1-0.1,0c0,0-0.1,0-0.1-0.1C29.7,5.9,29.7,6,29.8,6.1z"/>
		<path class="st73" d="M27.1,7.8c0,0.1,0,0.1,0,0.2l0,0c0,0,0-0.1-0.1-0.1V7.8C27.1,7.8,27.1,7.7,27.1,7.8z"/>
		<path class="st13" d="M31,6.2L31,6.2c0,0.1,0,0.2,0,0.2C30.9,6.4,30.9,6.4,31,6.2C31,6.3,30.9,6.2,31,6.2L31,6.2z"/>
		<path class="st159" d="M30.7,6.2L30.7,6.2L30.7,6.2L30.7,6.2L30.7,6.2L30.7,6.2V6C30.7,6,30.7,6,30.7,6.2c0-0.1,0.1-0.1,0.1,0
			C30.9,6.2,30.8,6.3,30.7,6.2z"/>
		<path class="st6" d="M30.4,6.2L30.4,6.2c-0.1,0-0.2,0-0.2,0C30.3,6.1,30.4,6.1,30.4,6.2C30.4,6.1,30.4,6.1,30.4,6.2z"/>
		<path class="st105" d="M30.8,6.2L30.8,6.2C30.8,6.1,30.8,6.1,30.8,6.2C30.9,6.1,30.9,6.2,30.8,6.2L30.8,6.2
			C30.9,6.2,30.8,6.2,30.8,6.2z"/>
		<path class="st317" d="M27.1,7.8H27c-0.1,0,0-0.1,0-0.1C27.1,7.6,27.1,7.6,27.1,7.8z"/>
		<path class="st265" d="M27.6,6.4c0.1,0,0-0.1,0-0.2C27.7,6.4,27.7,6.4,27.6,6.4z"/>
		<path class="st15" d="M27.6,6.7c0,0.1,0.1,0.1,0.1,0.1L27.6,6.7L27.6,6.7z"/>
		<path class="st160" d="M30.7,6.2L30.7,6.2c-0.1,0-0.1,0.1-0.1,0.1c-0.1,0,0-0.1,0-0.1H30.7z"/>
		<path class="st135" d="M28.7,6.3C28.7,6.3,28.6,6.4,28.7,6.3C28.6,6.3,28.6,6.3,28.7,6.3C28.6,6.2,28.6,6.2,28.7,6.3z"/>
		<path class="st318" d="M27.9,6.3c0,0.1-0.1,0.1-0.1,0.1C27.8,6.3,27.9,6.3,27.9,6.3z"/>
		<path class="st319" d="M27.5,7.1C27.4,7.2,27.4,7.1,27.5,7.1C27.4,7.1,27.4,7.1,27.5,7.1C27.4,7.1,27.5,7.1,27.5,7.1z"/>
		<path class="st320" d="M28.8,6.1C28.8,6.2,28.9,6.3,28.8,6.1C28.7,6.2,28.8,6.1,28.8,6.1z"/>
		<path class="st321" d="M22,6.1C22,6.1,22,6,22,6.1C22.1,6,22,6,22,6.1C22.1,6.1,22.1,6.1,22,6.1z"/>
		<path class="st322" d="M22.2,13.2h0.2C22.3,13.2,22.2,13.2,22.2,13.2L22.2,13.2z"/>
		<path class="st71" d="M27.6,7.7c0.2,0,0.2,0,0.2,0.3C27.6,7.9,27.6,7.9,27.6,7.7z"/>
		<path class="st323" d="M27.8,8.3c0,0.1-0.1,0.1-0.1,0.2c0,0-0.1,0-0.1-0.1C27.6,8.3,27.6,8.2,27.8,8.3C27.8,8.2,27.8,8.2,27.8,8.3
			z"/>
		<path class="st320" d="M30.8,6.2C30.8,6.2,30.9,6.2,30.8,6.2C30.9,6.3,30.9,6.4,30.8,6.2c-0.1,0.1-0.1,0.2-0.1,0
			C30.8,6.3,30.8,6.2,30.8,6.2z"/>
		<path class="st316" d="M27.3,12v-0.1c0,0,0-0.1,0.1-0.1s0,0.1,0.1,0.1L27.3,12z"/>
		<path class="st67" d="M31.3,6.6L31.3,6.6L31.3,6.6c-0.1,0.1-0.1,0.1-0.1,0C31.2,6.5,31.2,6.5,31.3,6.6C31.3,6.5,31.3,6.5,31.3,6.6
			z"/>
		<path class="st93" d="M27.7,7.3c0-0.1,0.1-0.1,0.1-0.1l0,0c0,0.1,0,0.1,0,0.2C27.7,7.5,27.7,7.4,27.7,7.3z"/>
		<path class="st324" d="M27.2,11.6c0.1-0.1,0.2-0.1,0.2,0.1L27.2,11.6z"/>
		<path class="st325" d="M28.4,12.6L28.4,12.6c0.1,0,0.1-0.1,0.2-0.1C28.6,12.6,28.5,12.6,28.4,12.6L28.4,12.6z"/>
		<path class="st135" d="M27,9C27.1,9,27.1,9,27,9c0,0.1,0,0.1,0,0.2c0,0-0.1,0-0.1-0.1C27,9.1,27,9,27,9L27,9z"/>
		<path class="st313" d="M27.3,7.7c0,0-0.1,0-0.1-0.1S27.3,7.6,27.3,7.7C27.4,7.6,27.3,7.7,27.3,7.7z"/>
		<path class="st326" d="M31.2,11.9c0,0.1-0.1,0.1-0.1,0.1C31.1,11.9,31.1,11.9,31.2,11.9z"/>
		<path class="st13" d="M27.1,9.5c0,0.1,0,0.1-0.1,0.1s0-0.1,0-0.1C26.9,9.5,27,9.5,27.1,9.5C27,9.5,27.1,9.5,27.1,9.5L27.1,9.5z"/>
		<path class="st30" d="M27,9.5c-0.1,0-0.1,0-0.1-0.1C26.9,9.3,27,9.4,27,9.5L27,9.5z"/>
		<path class="st327" d="M27.1,9.4l0.1-0.1C27.2,9.4,27.2,9.5,27.1,9.4C27.1,9.5,27.1,9.5,27.1,9.4z"/>
		<path class="st328" d="M27.7,7.3c0,0,0,0.1,0.1,0.1l-0.1,0.1V7.3z"/>
		<path class="st152" d="M26.9,11.6h0.2C27,11.7,27,11.6,26.9,11.6z"/>
		<path class="st14" d="M27.1,9.4L27.1,9.4c0,0.1,0,0.1,0,0.1H27L27.1,9.4L27.1,9.4L27.1,9.4z"/>
		<path class="st329" d="M27.6,8.9c0,0-0.1-0.1,0-0.1l0,0C27.7,8.8,27.6,8.8,27.6,8.9z"/>
		<path class="st55" d="M32.3,9v0.1C32.2,9.1,32.2,9.1,32.3,9C32.3,9,32.2,9,32.3,9z"/>
		<path class="st50" d="M26.9,10.5L26.9,10.5c-0.1,0-0.1,0-0.1-0.1C26.8,10.4,26.9,10.4,26.9,10.5L26.9,10.5z"/>
		<path class="st330" d="M29.8,6.4C29.8,6.4,29.7,6.3,29.8,6.4C29.8,6.3,29.8,6.3,29.8,6.4C29.8,6.3,29.8,6.3,29.8,6.4
			C29.8,6.3,29.8,6.4,29.8,6.4z"/>
		<path class="st75" d="M27.4,11.8L27.4,11.8L27.4,11.8C27.3,11.8,27.2,11.8,27.4,11.8C27.3,11.7,27.3,11.8,27.4,11.8z"/>
		<path class="st331" d="M31,11.7C31,11.8,31,11.8,31,11.7C30.9,11.8,30.9,11.7,31,11.7C30.9,11.7,30.9,11.6,31,11.7L31,11.7z"/>
		<path class="st332" d="M32.3,9L32.3,9C32.2,9,32.1,9,32.3,9C32.2,8.9,32.3,9,32.3,9z"/>
		<path class="st165" d="M27.6,9C27.6,9,27.6,9.1,27.6,9c-0.1,0-0.1,0-0.1,0C27.5,8.9,27.5,9,27.6,9C27.5,9,27.6,9,27.6,9z"/>
		<path class="st246" d="M26.9,9c0-0.1,0.1-0.1,0.1-0.1C27.1,9,27,9,26.9,9z"/>
		<path class="st100" d="M32.3,8.7L32.3,8.7C32.3,8.8,32.3,8.8,32.3,8.7C32.2,8.8,32.2,8.8,32.3,8.7C32.2,8.8,32.2,8.8,32.3,8.7z"/>
		<path class="st79" d="M32.2,8.4L32.2,8.4C32.3,8.4,32.3,8.4,32.2,8.4C32.3,8.5,32.3,8.5,32.2,8.4C32.2,8.5,32.2,8.4,32.2,8.4z"/>
		<path class="st333" d="M27.7,8.2V8.1C27.8,8.1,27.8,8.1,27.7,8.2C27.8,8.2,27.8,8.2,27.7,8.2z"/>
		<path class="st334" d="M30.4,6.2C30.4,6.2,30.5,6.2,30.4,6.2C30.4,6.3,30.3,6.4,30.4,6.2z"/>
		<path class="st264" d="M27.1,11.4c0.1,0,0.1,0,0.1-0.2C27.3,11.4,27.2,11.4,27.1,11.4z"/>
		<path class="st335" d="M27.2,11.5L27.2,11.5L27.2,11.5C27.2,11.4,27.2,11.5,27.2,11.5z"/>
		<path class="st256" d="M32.5,9.5C32.5,9.5,32.5,9.6,32.5,9.5C32.4,9.6,32.4,9.5,32.5,9.5C32.4,9.5,32.4,9.5,32.5,9.5L32.5,9.5z"/>
		<path class="st38" d="M28.9,12.8L28.9,12.8C28.8,12.8,28.8,12.8,28.9,12.8C28.8,12.8,28.8,12.8,28.9,12.8L28.9,12.8z"/>
		<path class="st154" d="M31,12.1c0,0.1,0,0.1,0,0.2C31,12.2,30.9,12.1,31,12.1z"/>
		<path class="st0" d="M28.6,12.1L28.6,12.1C28.5,12.1,28.5,12.1,28.6,12.1C28.5,12.1,28.5,12,28.6,12.1L28.6,12.1z"/>
		<path class="st336" d="M27.8,7.3c0-0.1,0-0.1,0.1-0.1C27.9,7.2,27.8,7.3,27.8,7.3L27.8,7.3z"/>
		<path class="st71" d="M27,8.2C27,8.2,27.1,8.2,27,8.2C27.1,8.3,27.1,8.3,27,8.2C27,8.3,27,8.3,27,8.2L27,8.2z"/>
		<path class="st337" d="M27.7,8.2L27.7,8.2C27.9,8.2,27.8,8.2,27.7,8.2C27.8,8.3,27.8,8.3,27.7,8.2L27.7,8.2z"/>
		<path class="st60" d="M29.3,6L29.3,6L29.3,6C29.3,6,29.4,6,29.3,6C29.4,6,29.4,6,29.3,6C29.4,6,29.4,6.1,29.3,6z"/>
		<path class="st338" d="M32,7.7L32,7.7L32,7.7L32,7.7L32,7.7z"/>
		<path class="st0" d="M32.5,10.8L32.5,10.8c-0.1,0-0.1,0-0.1-0.1L32.5,10.8L32.5,10.8z"/>
	</g>
</g>
</svg>
