<?xml version="1.0" encoding="utf-8"?>
<!-- Generator: Adobe Illustrator 24.0.2, SVG Export Plug-In . SVG Version: 6.00 Build 0)  -->
<svg version="1.1" id="Capa_1" xmlns="http://www.w3.org/2000/svg" xmlns:xlink="http://www.w3.org/1999/xlink" x="0px" y="0px"
	 viewBox="0 0 42 30" style="enable-background:new 0 0 42 30;" xml:space="preserve">
<style type="text/css">
	.st0{fill:#FCE9F3;}
</style>
<path class="st0" d="M42,9.4C42,4.2,37.9,0,32.8,0H9.2C4.1,0,0,4.2,0,9.4v11.2C0,25.8,4.1,30,9.2,30h23.6c5.1,0,9.2-4.2,9.2-9.4
	C42,20.6,42,9.4,42,9.4z M28.1,15.9l-10.6,5.3c-0.4,0.2-1.8-0.1-1.8-0.6v-11c0-0.5,1.4-0.8,1.8-0.6l10.1,5.6
	C28.1,15,28.5,15.6,28.1,15.9z"/>
</svg>
