<?xml version="1.0" encoding="utf-8"?>
<!-- Generator: Adobe Illustrator 24.0.2, SVG Export Plug-In . SVG Version: 6.00 Build 0)  -->
<svg version="1.1" xmlns="http://www.w3.org/2000/svg" xmlns:xlink="http://www.w3.org/1999/xlink" x="0px" y="0px"
	 viewBox="0 0 1190.8 414.1" style="enable-background:new 0 0 1190.8 414.1;" xml:space="preserve">
<style type="text/css">
	.st0{fill:#8B368C;}
	.st1{fill:none;}
	.st2{fill:#FACF00;}
	.st3{font-family:'Montserrat-Bold';}
	.st4{font-size:25px;}
	.st5{font-family:'Montserrat-Regular';}
	.st6{font-size:20px;}
	.st7{display:none;}
	.st8{display:inline;fill:#8B368C;}
	.st9{display:inline;}
</style>
<g id="Capa_1">
	<path class="st0" d="M1051.9,414.1h-913C62.5,414.1,0,351.6,0,275.2V138.9C0,62.5,62.5,0,138.9,0h913
		c76.4,0,138.9,62.5,138.9,138.9v136.3C1190.8,351.6,1128.3,414.1,1051.9,414.1z"/>
	<g>
		<defs>
			<path id="SVGID_1_" d="M510.4,346.6H170.8c-30.4,0-55.2-24.9-55.2-55.2V136c0-37.3,30.5-67.7,67.7-67.7h327
				c30.4,0,55.2,24.9,55.2,55.2v167.8C565.6,321.7,540.8,346.6,510.4,346.6z"/>
		</defs>
		<clipPath id="SVGID_2_">
			<use xlink:href="#SVGID_1_"  style="overflow:visible;"/>
		</clipPath>
		<g transform="matrix(1 0 0 1 7.629395e-06 0)" style="clip-path:url(#SVGID_2_);">
			
				<image style="overflow:visible;" width="600" height="400" xlink:href="F51A7487.jpg"  transform="matrix(0.75 0 0 0.75 115.9787 62.3909)">
			</image>
		</g>
	</g>
	<rect x="624.1" y="77.5" class="st1" width="463.7" height="355.1"/>
	<text transform="matrix(1 0 0 1 624.063 96.0282)"><tspan x="0" y="0" class="st2 st3 st4">Hogar Eva Duarte </tspan><tspan x="0" y="32" class="st2 st5 st4"> </tspan><tspan x="0" y="64" class="st2 st5 st6">Este hogar está destinado a madres jóvenes </tspan><tspan x="0" y="96" class="st2 st5 st6">embarazadas o con niños/as pequeños.  </tspan><tspan x="0" y="128" class="st2 st5 st6">Implementa acciones en pos de empoderar </tspan><tspan x="0" y="160" class="st2 st5 st6">a la mujer y para fortificar la red de conviven</tspan><tspan x="448.4" y="160" class="st2 st5 st6">-</tspan><tspan x="0" y="192" class="st2 st5 st6">cia con el grupo de pertenencia de la mujer o </tspan><tspan x="0" y="224" class="st2 st5 st6">su reinserción en la sociedad.</tspan></text>
</g>
<g id="Capa_2" class="st7">
	<path class="st8" d="M1051.9,1019.9h-913C62.5,1019.9,0,957.4,0,881.1V654c0-76.4,62.5-138.9,138.9-138.9h913
		c76.4,0,138.9,62.5,138.9,138.9v227.1C1190.8,957.4,1128.3,1019.9,1051.9,1019.9z"/>
	<g class="st9">
		<defs>
			<path id="SVGID_3_" d="M510.4,904.9H170.8c-30.4,0-55.2-24.9-55.2-55.2V694.3c0-37.3,30.5-67.7,67.7-67.7h327
				c30.4,0,55.2,24.9,55.2,55.2v167.8C565.6,880,540.8,904.9,510.4,904.9z"/>
		</defs>
		<clipPath id="SVGID_4_">
			<use xlink:href="#SVGID_3_"  style="overflow:visible;"/>
		</clipPath>
		<g transform="matrix(1 0 0 1 0 -6.103516e-05)" style="clip-path:url(#SVGID_4_);">
			
				<image style="overflow:visible;" width="756" height="504" xlink:href="F51A7485.jpg"  transform="matrix(0.5952 0 0 0.5952 115.6165 622.6774)">
			</image>
		</g>
	</g>
	<rect x="624.1" y="572.2" style="display:inline;fill:none;" width="463.7" height="415.7"/>
	<text transform="matrix(1 0 0 1 624.063 590.722)" class="st9"><tspan x="0" y="0" class="st2 st3 st4">Mariquita Sanchez  </tspan><tspan x="0" y="32" class="st2 st5 st4"> </tspan><tspan x="0" y="64" class="st2 st5 st6">Brinda alojamiento seguro para mujeres con </tspan><tspan x="0" y="96" class="st2 st5 st6">o sin hijas/os, que están atravesando una si</tspan><tspan x="438.4" y="96" class="st2 st5 st6">-</tspan><tspan x="0" y="128" class="st2 st5 st6">tuación de violencia de alto riesgo. Además, </tspan><tspan x="0" y="160" class="st2 st5 st6">ofrece asistencia psicológica individual con el </tspan><tspan x="0" y="192" class="st2 st5 st6">propósito de empoderar a la mujer generan</tspan><tspan x="440.4" y="192" class="st2 st5 st6">-</tspan><tspan x="0" y="224" class="st2 st5 st6">do nuevos modelos vinculares con pares y </tspan><tspan x="0" y="256" class="st2 st5 st6">con sus hijos (varones hasta 12 años) e hijas. </tspan><tspan x="0" y="288" class="st2 st5 st6">También se les brinda patrocinio jurídico gra</tspan><tspan x="447.6" y="288" class="st2 st5 st6">-</tspan><tspan x="0" y="320" class="st2 st5 st6">tuito y asesoramiento en materia legal a </tspan><tspan x="0" y="352" class="st2 st5 st6">todas las mujeres alojadas.</tspan></text>
</g>
<g id="Capa_3" class="st7">
	<path class="st8" d="M1051.9,1543.6h-913C62.5,1543.6,0,1481.1,0,1404.7v-191.4c0-76.4,62.5-138.9,138.9-138.9h913
		c76.4,0,138.9,62.5,138.9,138.9v191.4C1190.8,1481.1,1128.3,1543.6,1051.9,1543.6z"/>
	<g class="st9">
		<defs>
			<path id="SVGID_5_" d="M510.4,1448.1H170.8c-30.4,0-55.2-24.9-55.2-55.2v-155.3c0-37.3,30.5-67.7,67.7-67.7h327
				c30.4,0,55.2,24.9,55.2,55.2v167.8C565.6,1423.3,540.8,1448.1,510.4,1448.1z"/>
		</defs>
		<clipPath id="SVGID_6_">
			<use xlink:href="#SVGID_5_"  style="overflow:visible;"/>
		</clipPath>
		<g style="clip-path:url(#SVGID_6_);">
			
				<image style="overflow:visible;" width="1000" height="667" xlink:href="F51A748B.jpg"  transform="matrix(0.45 0 0 0.45 115.6165 1169.8319)">
			</image>
		</g>
	</g>
	<rect x="624.1" y="1127.8" style="display:inline;fill:none;" width="463.7" height="355.1"/>
	<text transform="matrix(1 0 0 1 624.1056 1146.3473)" class="st9"><tspan x="0" y="0" class="st2 st3 st4">Casa de medio camino  </tspan><tspan x="0" y="32" class="st2 st3 st4">Margarita Barrientos </tspan><tspan x="0" y="64" class="st2 st5 st4"> </tspan><tspan x="0" y="96" class="st2 st5 st6">Las Casas de Medio Camino son espacios </tspan><tspan x="0" y="128" class="st2 st5 st6">preparados para recibir a las mujeres que han </tspan><tspan x="0" y="160" class="st2 st5 st6">sido alojadas en los refugios. Para esta tarea, </tspan><tspan x="0" y="192" class="st2 st5 st6">cuentan con equipos interdisciplinarios con</tspan><tspan x="439.2" y="192" class="st2 st5 st6">-</tspan><tspan x="0" y="224" class="st2 st5 st6">formados por principalmente por abogadas, </tspan><tspan x="0" y="256" class="st2 st5 st6">psicólogas, trabajadoras sociales y facilitado</tspan><tspan x="446.7" y="256" class="st2 st5 st6">-</tspan><tspan x="0" y="288" class="st2 st5 st6">ras, quienes acompañan la vida cotidiana </tspan><tspan x="0" y="320" class="st2 st5 st6">dentro de la Casa.</tspan></text>
</g>
<g id="Capa_4" class="st7">
	<path class="st8" d="M1051.9,2054h-913C62.5,2054,0,1991.5,0,1915.1v-191.4c0-76.4,62.5-138.9,138.9-138.9h913
		c76.4,0,138.9,62.5,138.9,138.9v191.4C1190.8,1991.5,1128.3,2054,1051.9,2054z"/>
	<g class="st9">
		<defs>
			<path id="SVGID_7_" d="M510.4,1958.4H170.8c-30.4,0-55.2-24.9-55.2-55.2v-155.3c0-37.3,30.5-67.7,67.7-67.7h327
				c30.4,0,55.2,24.9,55.2,55.2v167.8C565.6,1933.6,540.8,1958.4,510.4,1958.4z"/>
		</defs>
		<clipPath id="SVGID_8_">
			<use xlink:href="#SVGID_7_"  style="overflow:visible;"/>
		</clipPath>
		<g style="clip-path:url(#SVGID_8_);">
			
				<image style="overflow:visible;" width="960" height="644" xlink:href="F51A748D.jpg"  transform="matrix(0.4688 0 0 0.4688 115.6165 1680.1228)">
			</image>
		</g>
	</g>
	<rect x="624.1" y="1638.2" style="display:inline;fill:none;" width="463.7" height="355.1"/>
	<text transform="matrix(1 0 0 1 624.1056 1656.7826)" class="st9"><tspan x="0" y="0" class="st2 st3 st4">Casa de medio camino  </tspan><tspan x="0" y="32" class="st2 st3 st4">Juana Manso  </tspan><tspan x="0" y="64" class="st2 st5 st4"> </tspan><tspan x="0" y="96" class="st2 st5 st6">Las Casas de Medio Camino son espacios </tspan><tspan x="0" y="128" class="st2 st5 st6">preparados para recibir a las mujeres que han </tspan><tspan x="0" y="160" class="st2 st5 st6">sido alojadas en los refugios. Para esta tarea, </tspan><tspan x="0" y="192" class="st2 st5 st6">cuentan con equipos interdisciplinarios con</tspan><tspan x="439.2" y="192" class="st2 st5 st6">-</tspan><tspan x="0" y="224" class="st2 st5 st6">formados por principalmente por abogadas, </tspan><tspan x="0" y="256" class="st2 st5 st6">psicólogas, trabajadoras sociales y facilitado</tspan><tspan x="446.7" y="256" class="st2 st5 st6">-</tspan><tspan x="0" y="288" class="st2 st5 st6">ras, quienes acompañan la vida cotidiana </tspan><tspan x="0" y="320" class="st2 st5 st6">dentro de la Casa.</tspan></text>
</g>
<g id="Capa_5" class="st7">
	<path class="st8" d="M1051.9,2532.1h-913C62.5,2532.1,0,2469.6,0,2393.2v-159.1c0-76.4,62.5-138.9,138.9-138.9h913
		c76.4,0,138.9,62.5,138.9,138.9v159.1C1190.8,2469.6,1128.3,2532.1,1051.9,2532.1z"/>
	<g class="st9">
		<defs>
			<path id="SVGID_9_" d="M510.4,2452.8H170.8c-30.4,0-55.2-24.9-55.2-55.2v-155.3c0-37.3,30.5-67.7,67.7-67.7h327
				c30.4,0,55.2,24.9,55.2,55.2v167.8C565.6,2428,540.8,2452.8,510.4,2452.8z"/>
		</defs>
		<clipPath id="SVGID_10_">
			<use xlink:href="#SVGID_9_"  style="overflow:visible;"/>
		</clipPath>
		<g transform="matrix(1 0 0 1 7.629395e-06 0)" style="clip-path:url(#SVGID_10_);">
			
				<image style="overflow:visible;" width="290" height="194" xlink:href="F51A748F.jpg"  transform="matrix(1.5517 0 0 1.5517 115.6165 2174.5344)">
			</image>
		</g>
	</g>
	<rect x="624.1" y="2148.3" style="display:inline;fill:none;" width="463.7" height="355.1"/>
	<text transform="matrix(1 0 0 1 624.063 2166.8777)" class="st9"><tspan x="0" y="0" class="st2 st3 st4">Tita Merello </tspan><tspan x="0" y="32" class="st2 st5 st4"> </tspan><tspan x="0" y="64" class="st2 st5 st6">Aloja mujeres en riesgo que han sido rescata</tspan><tspan x="449.9" y="64" class="st2 st5 st6">-</tspan><tspan x="0" y="96" class="st2 st5 st6">das de redes de trata de personas con fines </tspan><tspan x="0" y="128" class="st2 st5 st6">de explotación sexual y/o laboral. Las muje</tspan><tspan x="435.9" y="128" class="st2 st5 st6">-</tspan><tspan x="0" y="160" class="st2 st5 st6">res permanecen alojadas allí por un período </tspan><tspan x="0" y="192" class="st2 st5 st6">de aproximadamente 3 meses, período en el </tspan><tspan x="0" y="224" class="st2 st5 st6">cual se las acompaña a gestionar las medidas </tspan><tspan x="0" y="256" class="st2 st5 st6">de protección, documentos de identidad, </tspan><tspan x="0" y="288" class="st2 st5 st6">controles médicos, etc.</tspan></text>
</g>
</svg>
